<?xml version="1.0" encoding="UTF-8" standalone="no"?>
<!DOCTYPE svg PUBLIC "-//W3C//DTD SVG 1.1//EN" "http://www.w3.org/Graphics/SVG/1.1/DTD/svg11.dtd">
<svg xmlns="http://www.w3.org/2000/svg" version="1.1" viewBox="0.00 0.00 1948.00 469.00">
<g stroke-width="2.00" fill="none" stroke-linecap="butt">
<path stroke="#826b42" vector-effect="non-scaling-stroke" d="
  M 58.88 59.35
  C 20.71 93.78 27.14 151.81 43.90 194.61"
/>
<path stroke="#815e18" vector-effect="non-scaling-stroke" d="
  M 43.90 194.61
  Q 60.03 234.13 85.50 268.82"
/>
<path stroke="#7e4f12" vector-effect="non-scaling-stroke" d="
  M 85.50 268.82
  Q 120.81 317.36 166.55 356.52"
/>
<path stroke="#7c440f" vector-effect="non-scaling-stroke" d="
  M 166.55 356.52
  Q 197.06 383.05 231.71 403.72"
/>
<path stroke="#7b3d0e" vector-effect="non-scaling-stroke" d="
  M 231.71 403.72
  Q 256.65 418.77 283.94 428.56
  Q 298.22 433.69 312.06 436.18"
/>
<path stroke="#79310a" vector-effect="non-scaling-stroke" d="
  M 312.06 436.18
  C 357.86 444.41 404.21 424.69 442.78 401.50"
/>
<path stroke="#772208" vector-effect="non-scaling-stroke" d="
  M 442.78 401.50
  C 499.43 368.09 549.47 321.07 588.92 268.71
  C 623.81 222.40 655.56 161.88 642.38 101.83
  C 635.49 70.41 611.92 49.46 581.32 39.94"
/>
<path stroke="#79310a" vector-effect="non-scaling-stroke" d="
  M 581.32 39.94
  C 559.97 33.20 537.54 30.99 515.24 30.53"
/>
<path stroke="#7c440f" vector-effect="non-scaling-stroke" d="
  M 515.24 30.53
  L 375.74 30.51"
/>
<path stroke="#7e4f12" vector-effect="non-scaling-stroke" d="
  M 375.74 30.51
  L 284.75 30.51"
/>
<path stroke="#826b42" vector-effect="non-scaling-stroke" d="
  M 284.75 30.51
  L 167.99 30.51"
/>
<path stroke="#837867" vector-effect="non-scaling-stroke" d="
  M 167.99 30.51
  C 130.67 30.49 88.69 34.63 58.88 59.35"
/>
<path stroke="#fee0a9" vector-effect="non-scaling-stroke" d="
  M 167.99 30.51
  L 168.77 30.82
  Q 169.23 30.99 168.79 31.22
  L 167.95 31.66
  Q 167.40 31.94 167.74 32.46
  C 170.13 36.13 174.00 39.16 176.11 41.85
  Q 181.17 48.30 184.43 56.02"
/>
<path stroke="#837867" vector-effect="non-scaling-stroke" d="
  M 184.43 56.02
  Q 155.08 55.97 125.57 56.02
  Q 112.73 56.04 108.76 67.12
  C 106.82 72.50 107.04 87.60 109.11 92.63
  C 112.83 101.68 120.05 102.78 129.68 102.77
  Q 155.59 102.73 181.52 102.76"
/>
<path stroke="#fee0a9" vector-effect="non-scaling-stroke" d="
  M 181.52 102.76
  C 184.72 105.43 177.10 115.11 175.26 117.44
  A 0.98 0.98 0.0 0 0 175.05 118.10
  Q 175.10 119.23 174.07 119.66
  A 0.01 0.01 0.0 0 0 174.07 119.68
  Q 174.25 119.70 174.34 119.76
  Q 174.52 119.86 174.36 119.99
  Q 174.12 120.20 174.00 120.50"
/>
<path stroke="#837867" vector-effect="non-scaling-stroke" d="
  M 174.00 120.50
  Q 149.09 120.50 124.18 120.50
  C 107.97 120.50 97.27 122.14 86.82 133.63"
/>
<path stroke="#fee0a9" vector-effect="non-scaling-stroke" d="
  M 86.82 133.63
  Q 84.54 131.20 82.35 128.80
  C 79.11 125.24 75.02 121.63 71.79 117.53
  C 71.02 116.56 70.87 115.35 69.97 114.25
  C 67.73 111.51 66.62 108.22 65.07 105.07
  Q 55.26 85.09 59.55 62.89
  Q 59.63 62.50 59.23 62.50
  L 58.77 62.50
  A 0.40 0.39 14.8 0 1 58.42 61.91
  Q 59.30 60.38 58.88 59.35"
/>
<path stroke="#f9b853" vector-effect="non-scaling-stroke" d="
  M 284.75 30.51
  Q 284.88 30.86 285.36 31.05
  Q 285.86 31.25 285.32 31.25
  L 284.80 31.25
  Q 284.44 31.25 284.54 31.61
  Q 287.89 43.38 289.79 55.46
  Q 289.83 55.67 290.04 55.68
  Q 290.27 55.69 290.45 55.78
  Q 290.77 55.93 290.42 55.95
  L 288.24 56.09"
/>
<path stroke="#826b42" vector-effect="non-scaling-stroke" d="
  M 288.24 56.09
  L 184.43 56.02"
/>
<path stroke="#815e18" vector-effect="non-scaling-stroke" d="
  M 269.49 228.24
  Q 193.38 228.26 117.25 228.26
  Q 98.69 228.26 86.55 214.78"
/>
<path stroke="#826b42" vector-effect="non-scaling-stroke" d="
  M 86.55 214.78
  C 73.61 200.56 76.20 183.86 76.26 166.27
  C 76.31 152.10 77.83 143.39 86.82 133.63"
/>
<path stroke="#826b42" vector-effect="non-scaling-stroke" d="
  M 174.00 120.50
  Q 210.71 120.50 247.42 120.50
  C 255.67 120.50 261.38 121.31 265.70 128.08"
/>
<path stroke="#815e18" vector-effect="non-scaling-stroke" d="
  M 265.70 128.08
  C 269.46 134.00 268.64 141.84 268.26 148.42
  Q 267.47 162.17 255.19 165.06
  C 251.50 165.92 246.45 165.43 242.26 165.51"
/>
<path stroke="#826b42" vector-effect="non-scaling-stroke" d="
  M 242.26 165.51
  L 123.40 165.51
  Q 122.82 165.51 122.81 166.09
  L 122.72 182.71
  Q 122.72 183.24 123.25 183.24
  L 233.25 183.24"
/>
<path stroke="#815e18" vector-effect="non-scaling-stroke" d="
  M 233.25 183.24
  L 282.24 183.24
  A 0.51 0.51 0.0 0 0 282.75 182.73
  L 282.75 103.26
  Q 282.75 102.77 282.26 102.77
  L 273.56 102.76"
/>
<path stroke="#826b42" vector-effect="non-scaling-stroke" d="
  M 273.56 102.76
  L 181.52 102.76"
/>
<path stroke="#fcc65a" vector-effect="non-scaling-stroke" d="
  M 273.56 102.76
  Q 273.23 104.58 272.50 106.48
  Q 271.76 108.43 271.53 110.18
  Q 270.30 119.72 265.70 128.08"
/>
<path stroke="#fcc65a" vector-effect="non-scaling-stroke" d="
  M 86.55 214.78
  L 86.47 216.02
  A 0.99 0.98 -56.4 0 1 84.60 216.40
  Q 83.60 214.31 81.43 213.40
  A 0.76 0.76 0.0 0 1 80.98 212.55
  Q 81.02 212.34 81.01 212.14
  Q 80.97 211.68 80.51 211.70
  Q 79.93 211.73 79.95 212.20
  A 0.19 0.19 0.0 0 1 79.67 212.37
  L 76.02 210.39
  Q 75.64 210.18 75.20 210.20
  Q 72.36 210.35 70.70 208.09
  A 1.44 1.43 -12.0 0 0 69.81 207.52
  Q 66.47 206.84 64.29 204.15
  A 0.28 0.28 0.0 0 0 63.80 204.29
  L 63.74 204.78
  Q 63.70 205.02 63.47 204.95
  C 61.53 204.33 60.14 203.02 58.34 202.38
  C 56.03 201.55 50.39 198.60 48.83 196.44
  A 0.62 0.61 57.0 0 0 48.02 196.26
  L 47.16 196.75
  Q 46.53 197.12 46.41 196.40
  Q 46.10 194.53 43.90 194.61"
/>
<path stroke="#f39120" vector-effect="non-scaling-stroke" d="
  M 375.74 30.51
  C 379.93 31.11 382.58 29.84 386.10 32.89
  Q 386.41 33.16 386.04 33.31
  C 382.15 34.95 379.37 38.32 383.00 42.07
  Q 383.31 42.39 383.73 42.52
  L 384.67 42.83
  A 1.14 1.13 86.0 0 1 385.33 43.41
  Q 386.70 46.14 386.21 49.14
  A 0.78 0.76 22.2 0 0 386.54 49.90
  L 388.80 51.46
  Q 389.19 51.73 389.67 51.79
  Q 392.70 52.16 393.36 55.40
  Q 393.48 55.99 394.09 55.99
  L 398.19 56.01
  Q 398.19 56.01 398.19 56.06
  Q 398.19 56.09 398.19 56.13
  A 0.15 0.15 0.0 0 1 398.04 56.28
  L 387.00 56.44"
/>
<path stroke="#7e4f12" vector-effect="non-scaling-stroke" d="
  M 387.00 56.44
  C 369.31 56.67 353.64 68.90 349.03 85.63
  Q 347.49 91.24 347.49 104.97
  Q 347.49 144.52 347.52 184.05
  C 347.53 193.86 348.47 201.17 353.24 208.74
  C 367.30 231.06 387.57 228.22 410.50 228.25"
/>
<path stroke="#f28a1f" vector-effect="non-scaling-stroke" d="
  M 410.50 228.25
  Q 410.62 228.70 411.22 228.81
  Q 411.35 228.84 411.22 228.88
  Q 409.51 229.42 408.18 230.26
  Q 407.71 230.55 407.56 231.09
  L 406.93 233.43
  Q 406.80 233.91 407.19 234.22
  L 408.47 235.21
  Q 408.86 235.52 408.80 236.01
  Q 408.32 240.18 412.27 241.73"
/>
<path stroke="#7e4f12" vector-effect="non-scaling-stroke" d="
  M 412.27 241.73
  L 264.21 241.79"
/>
<path stroke="#f8ab2a" vector-effect="non-scaling-stroke" d="
  M 264.21 241.79
  Q 265.33 240.77 267.69 240.87
  Q 267.83 240.88 267.70 240.85
  Q 267.23 240.75 266.89 240.46
  Q 266.61 240.22 266.80 239.90
  L 266.95 239.63
  Q 267.16 239.28 266.98 238.91
  Q 265.36 235.79 267.57 231.75
  Q 268.69 229.69 270.52 229.10
  A 0.06 0.06 0.0 0 0 270.52 228.98
  Q 269.62 228.78 269.49 228.24"
/>
<path stroke="#7e4f12" vector-effect="non-scaling-stroke" d="
  M 269.49 228.24
  Q 290.59 228.37 311.64 228.12
  C 322.65 227.99 329.25 221.53 329.32 210.46
  Q 329.70 154.94 329.33 99.43
  Q 329.26 89.58 327.80 84.73
  C 322.49 67.23 306.42 56.03 288.24 56.09"
/>
<path stroke="#815e18" vector-effect="non-scaling-stroke" d="
  M 264.21 241.79
  Q 203.84 241.65 143.38 241.85
  C 122.40 241.92 123.87 260.05 124.87 274.79"
/>
<path stroke="#f8ab2a" vector-effect="non-scaling-stroke" d="
  M 124.87 274.79
  Q 122.38 275.15 120.38 272.51
  Q 120.12 272.17 119.71 272.29
  Q 115.53 273.49 111.54 271.79
  A 1.27 1.23 -39.0 0 0 110.77 271.72
  Q 108.20 272.29 105.97 270.93
  Q 105.47 270.63 104.88 270.65
  Q 102.97 270.71 101.47 269.69
  Q 101.04 269.40 100.53 269.47
  Q 99.09 269.65 97.76 269.26
  Q 97.29 269.13 96.83 269.26
  Q 92.98 270.39 90.21 269.02
  Q 87.15 267.51 85.50 268.82"
/>
<path stroke="#fcc65a" vector-effect="non-scaling-stroke" d="
  M 233.25 183.24
  Q 231.27 183.08 231.00 181.19
  Q 230.93 180.68 231.27 180.28
  C 235.30 175.59 239.05 171.82 241.86 166.17
  A 0.12 0.11 -76.8 0 0 241.76 166.00
  Q 241.61 166.00 241.46 166.03
  A 0.07 0.07 0.0 0 1 241.42 165.89
  L 242.26 165.51"
/>
<path stroke="#7b3d0e" vector-effect="non-scaling-stroke" d="
  M 510.50 102.75
  L 435.49 102.76"
/>
<path stroke="#7c440f" vector-effect="non-scaling-stroke" d="
  M 435.49 102.76
  L 395.24 102.76
  Q 394.25 102.76 394.25 103.74
  L 394.24 182.79
  Q 394.24 183.23 394.68 183.23
  L 431.01 183.22"
/>
<path stroke="#7b3d0e" vector-effect="non-scaling-stroke" d="
  M 431.01 183.22
  L 496.01 183.23"
/>
<path stroke="#7b3d0e" vector-effect="non-scaling-stroke" d="
  M 534.00 228.25
  L 410.50 228.25"
/>
<path stroke="#ee7219" vector-effect="non-scaling-stroke" d="
  M 515.24 30.53
  Q 515.18 30.77 515.37 31.02
  Q 515.54 31.23 515.29 31.35
  L 514.92 31.53
  Q 514.51 31.73 514.91 31.94
  L 515.22 32.11
  Q 515.68 32.36 515.79 32.88
  C 516.36 35.77 517.98 46.55 516.47 49.43
  A 1.01 1.00 -47.7 0 0 516.51 50.42
  Q 517.62 52.18 516.89 53.95
  Q 516.73 54.33 516.39 54.57
  L 514.75 55.75
  Q 514.41 55.99 514.83 56.01
  L 519.01 56.21"
/>
<path stroke="#7c440f" vector-effect="non-scaling-stroke" d="
  M 519.01 56.21
  L 387.00 56.44"
/>
<path stroke="#7b3d0e" vector-effect="non-scaling-stroke" d="
  M 529.99 241.73
  L 412.27 241.73"
/>
<path stroke="#79310a" vector-effect="non-scaling-stroke" d="
  M 515.22 288.50
  L 381.24 288.51"
/>
<path stroke="#7c440f" vector-effect="non-scaling-stroke" d="
  M 381.24 288.51
  L 316.75 288.50"
/>
<path stroke="#7e4f12" vector-effect="non-scaling-stroke" d="
  M 316.75 288.50
  Q 231.55 288.50 146.35 288.50
  C 135.13 288.50 127.66 286.37 124.87 274.79"
/>
<path stroke="#f39120" vector-effect="non-scaling-stroke" d="
  M 316.75 288.50
  Q 318.06 289.15 317.22 289.90
  C 316.31 290.72 314.82 290.14 313.75 290.91
  Q 311.39 292.63 309.54 294.89
  Q 309.22 295.29 308.73 295.41
  C 307.22 295.79 306.24 297.40 305.42 298.02
  Q 299.50 302.55 293.56 307.06
  Q 293.24 307.31 292.64 307.42
  Q 292.20 307.51 291.89 307.83
  L 287.65 312.09
  Q 287.29 312.45 286.78 312.49
  Q 285.99 312.56 285.73 313.18
  Q 285.55 313.61 285.25 313.98
  Q 284.51 314.89 283.75 314.21
  Q 283.29 313.79 282.77 314.14
  L 280.03 315.98
  A 0.89 0.88 60.7 0 0 279.72 317.09
  Q 280.37 318.47 278.70 319.15
  A 0.64 0.60 44.2 0 1 278.21 319.14
  C 274.90 317.69 268.20 323.56 264.54 324.78
  A 1.25 1.22 -85.3 0 0 263.84 325.39
  Q 263.04 326.95 260.70 327.42
  C 258.23 327.92 254.47 330.54 251.54 331.60
  Q 249.71 332.26 247.82 332.81
  A 1.68 1.67 12.0 0 0 247.03 333.32
  Q 246.02 334.50 244.43 334.49
  A 1.31 1.30 -67.1 0 0 243.52 334.86
  C 241.60 336.77 239.27 336.82 237.23 337.94
  Q 233.54 339.97 229.73 340.72
  Q 227.55 341.15 226.22 342.59
  A 1.68 1.64 -74.0 0 1 225.38 343.07
  C 223.34 343.52 217.67 344.70 216.14 345.93
  A 1.37 1.36 24.7 0 1 215.26 346.25
  C 211.46 346.24 207.65 348.48 204.12 349.71
  C 202.65 350.22 201.83 351.36 200.28 351.91
  Q 199.74 352.10 199.27 351.79
  Q 197.31 350.48 195.38 351.63
  A 1.78 1.77 29.5 0 1 194.47 351.88
  Q 192.01 351.87 189.81 353.13
  A 1.39 1.38 -55.4 0 1 188.89 353.30
  Q 187.30 353.05 185.84 353.56
  Q 185.35 353.74 184.85 353.62
  C 181.92 352.92 180.63 356.37 178.67 354.78
  Q 178.22 354.42 177.70 354.65
  L 174.53 356.06
  A 0.55 0.54 -49.1 0 1 174.14 356.09
  Q 171.81 355.33 169.88 356.65
  Q 169.45 356.94 169.07 356.60
  Q 168.14 355.78 166.55 356.52"
/>
<path stroke="#e95012" vector-effect="non-scaling-stroke" d="
  M 581.32 39.94
  L 579.42 41.49
  A 0.55 0.55 0.0 0 0 579.30 42.21
  L 581.19 45.32
  Q 581.48 45.80 581.46 46.36
  Q 581.38 48.37 583.34 48.38
  A 0.39 0.39 0.0 0 1 583.46 49.14
  L 582.60 49.41
  A 0.41 0.41 0.0 0 0 582.31 49.76
  Q 582.14 50.88 582.98 51.68
  Q 583.34 52.03 583.33 52.55
  Q 583.20 56.81 581.11 60.58
  Q 580.76 61.23 581.48 61.35
  L 582.58 61.54
  A 0.47 0.47 0.0 0 0 583.04 61.35
  Q 584.75 58.94 587.22 60.40
  A 0.74 0.74 0.0 0 1 587.59 61.06
  L 587.54 68.77
  Q 587.54 69.36 587.20 69.86
  Q 586.21 71.31 586.20 73.06
  Q 586.20 73.44 586.50 73.68
  Q 587.77 74.68 587.11 76.30
  A 1.17 1.14 47.9 0 0 587.08 77.12
  L 588.43 81.11
  A 0.88 0.80 42.4 0 1 588.47 81.55
  L 587.03 89.49
  Q 586.96 89.86 587.15 90.18
  Q 588.05 91.65 586.91 92.86
  A 1.35 1.32 -23.7 0 0 586.54 93.78
  Q 586.53 95.18 587.42 96.06
  Q 587.86 96.50 587.78 97.12
  L 587.32 100.23
  A 0.83 0.79 80.8 0 1 586.91 100.83
  Q 585.16 101.81 586.36 103.06
  A 0.81 0.81 0.0 0 1 586.42 104.11
  L 585.00 105.98
  Q 584.73 106.33 584.92 106.73
  Q 585.61 108.16 585.36 109.92
  Q 585.29 110.38 585.51 110.79
  Q 586.94 113.46 585.18 115.92
  A 1.11 1.07 60.6 0 0 584.98 116.69
  Q 585.47 120.48 585.21 124.30
  Q 585.11 125.88 584.03 125.75
  A 1.03 1.03 0.0 0 0 583.01 127.26
  Q 583.86 128.83 583.17 130.60
  A 1.49 1.42 -43.7 0 0 583.13 131.48
  C 585.23 139.10 577.53 142.29 580.43 149.44
  Q 580.60 149.87 580.45 150.30
  L 579.66 152.49
  Q 579.47 153.02 579.94 153.34
  C 581.50 154.40 580.74 155.45 580.75 156.74
  Q 580.81 160.94 580.55 165.17
  A 1.94 1.92 74.7 0 1 579.72 166.64
  C 575.85 169.34 578.56 174.45 573.75 175.62
  Q 573.37 175.71 573.33 176.10
  Q 573.15 177.67 574.42 178.62
  Q 574.75 178.87 574.75 179.29
  L 574.75 182.50
  Q 574.75 183.04 574.22 183.00
  Q 573.10 182.92 572.24 183.23"
/>
<path stroke="#79310a" vector-effect="non-scaling-stroke" d="
  M 572.24 183.23
  L 496.01 183.23"
/>
<path stroke="#ed6c18" vector-effect="non-scaling-stroke" d="
  M 496.01 183.23
  L 492.29 182.96
  Q 492.03 182.94 492.26 182.81
  Q 492.58 182.62 493.04 182.72
  A 0.02 0.02 0.0 0 0 493.06 182.68
  Q 492.91 182.55 492.80 182.41
  Q 492.60 182.15 492.91 182.04
  Q 493.07 181.98 493.24 181.92
  A 0.04 0.04 0.0 0 0 493.25 181.85
  Q 492.31 181.24 491.60 180.36
  A 2.00 1.99 50.6 0 1 491.87 177.57
  C 492.84 176.77 494.00 173.90 494.78 173.53
  Q 495.46 173.20 495.77 173.96
  A 0.41 0.41 0.0 0 0 496.54 173.95
  L 496.83 173.17
  Q 497.02 172.65 497.55 172.52
  Q 499.37 172.08 499.26 170.12
  A 0.90 0.85 -30.0 0 1 499.43 169.55
  L 502.25 165.72
  Q 502.33 165.60 502.41 165.73
  Q 502.50 165.89 502.64 165.94
  Q 502.92 166.05 502.82 165.76
  L 502.17 163.92
  A 0.87 0.86 -11.9 0 1 502.92 162.78
  L 503.84 162.71
  Q 504.34 162.67 504.60 162.23
  Q 505.01 161.54 505.03 160.78
  A 1.44 0.83 62.8 0 0 503.06 159.50
  Q 503.03 160.00 502.75 160.00
  Q 502.33 160.00 502.31 159.94
  Q 502.26 159.79 502.22 159.64
  Q 502.17 159.48 502.32 159.39
  Q 504.11 158.36 503.49 156.66
  Q 503.33 156.25 503.77 156.25
  L 504.28 156.25
  Q 504.79 156.25 504.96 155.77
  Q 505.51 154.23 504.55 152.92
  A 0.81 0.81 0.0 0 1 504.52 151.98
  C 505.37 150.69 505.69 149.96 505.67 148.31
  C 505.65 146.85 507.22 142.00 506.81 141.41
  Q 506.57 141.06 506.71 140.66
  Q 508.32 135.78 508.88 129.20
  Q 509.00 127.77 510.38 127.82
  Q 510.75 127.83 510.75 127.47
  L 510.75 123.50
  Q 510.75 122.65 511.19 123.32
  Q 511.35 123.57 511.79 123.45
  Q 512.64 123.23 511.95 122.67
  L 510.69 121.67
  A 0.77 0.75 -73.3 0 1 510.40 121.11
  Q 510.28 118.85 508.19 118.09
  Q 507.76 117.94 507.93 117.52
  C 508.82 115.27 510.51 113.27 510.69 110.91
  Q 510.91 108.07 510.68 105.18
  Q 510.64 104.63 510.11 104.75
  Q 508.85 105.03 508.22 104.10
  Q 507.95 103.71 508.42 103.65
  L 510.19 103.42
  Q 510.39 103.39 510.39 103.39
  Q 510.21 103.31 510.01 103.26
  Q 509.69 103.19 510.01 103.09
  Q 510.42 102.95 510.50 102.75"
/>
<path stroke="#79310a" vector-effect="non-scaling-stroke" d="
  M 510.50 102.75
  Q 529.92 102.75 549.34 102.75
  Q 557.35 102.75 560.84 101.32
  C 568.46 98.18 570.80 91.85 570.77 83.69
  C 570.73 73.72 572.40 63.13 561.41 58.09
  Q 558.10 56.57 551.26 56.45
  C 540.50 56.27 529.74 56.79 519.01 56.21"
/>
<path stroke="#e95012" vector-effect="non-scaling-stroke" d="
  M 442.78 401.50
  Q 442.54 401.21 442.49 400.78
  Q 442.45 400.51 442.18 400.58
  L 441.32 400.82
  Q 440.89 400.94 440.98 400.50
  L 441.32 398.66
  A 0.58 0.58 0.0 0 1 442.12 398.24
  L 443.22 398.71
  A 0.83 0.82 -56.6 0 0 444.15 398.51
  Q 446.16 396.33 448.10 394.08
  Q 448.19 393.60 448.50 393.85
  A 0.27 0.27 0.0 0 0 448.88 393.79
  Q 449.07 393.53 448.74 393.41
  A 0.42 0.41 30.7 0 1 448.57 392.75
  Q 455.00 385.36 462.05 378.54
  C 462.94 377.67 462.72 376.46 463.75 375.39
  C 466.76 372.22 469.05 370.12 472.95 367.23
  C 476.05 364.94 477.84 361.13 480.90 358.16
  Q 481.25 357.82 481.14 357.35
  Q 480.93 356.41 481.87 355.71
  Q 482.19 355.47 482.57 355.37
  Q 485.16 354.66 484.82 351.76
  A 3.33 3.06 84.6 0 1 487.62 348.06
  Q 488.67 347.99 489.11 347.06
  Q 489.32 346.62 489.79 346.52
  Q 491.49 346.16 492.00 344.49
  Q 492.14 344.03 492.59 343.89
  Q 494.20 343.38 495.11 341.92
  Q 495.43 341.40 495.07 340.90
  Q 494.10 339.58 495.64 338.78
  A 0.79 0.78 78.8 0 0 496.07 338.13
  Q 496.36 334.27 498.92 331.39
  A 1.82 1.82 0.0 0 0 499.34 330.56
  Q 499.72 328.65 501.41 327.67
  Q 501.49 327.62 501.43 327.55
  L 501.20 327.33
  Q 500.98 327.10 501.03 326.79
  Q 501.29 325.33 502.75 325.03
  A 1.53 1.53 0.0 0 0 503.63 324.52
  C 506.07 321.71 511.20 322.08 508.74 316.56
  A 0.92 0.92 0.0 0 1 509.46 315.27
  Q 512.43 314.89 512.61 311.76
  Q 512.65 311.20 513.18 311.04
  L 514.00 310.80
  Q 514.37 310.69 514.55 310.34
  L 517.10 305.40
  A 0.49 0.46 54.5 0 0 517.14 305.10
  Q 516.50 301.43 520.23 301.28
  A 2.27 1.64 -26.1 0 0 522.04 297.88
  Q 521.32 297.56 521.24 297.04
  A 0.55 0.54 -1.9 0 0 520.73 296.57
  Q 518.15 296.42 518.62 294.06
  A 1.06 1.04 88.3 0 1 519.36 293.26
  Q 520.04 293.08 520.08 292.99
  A 2.40 2.40 0.0 0 0 517.88 289.76
  Q 516.63 289.74 515.22 288.50"
/>
<path stroke="#772208" vector-effect="non-scaling-stroke" d="
  M 515.22 288.50
  Q 527.84 288.61 540.38 288.38
  C 551.24 288.18 557.31 280.66 557.23 269.75
  C 557.19 263.01 558.06 256.25 555.36 250.91
  C 550.17 240.64 539.82 241.78 529.99 241.73"
/>
<path stroke="#eb5d16" vector-effect="non-scaling-stroke" d="
  M 529.99 241.73
  L 533.76 241.53
  A 0.99 0.99 0.0 0 0 534.50 239.96
  C 532.62 237.38 534.16 234.00 534.80 231.23
  A 0.86 0.84 28.7 0 0 534.55 230.42
  Q 533.88 229.80 534.59 229.31
  Q 535.00 229.02 534.50 229.01
  L 532.31 228.98
  Q 532.31 228.98 532.31 228.92
  Q 532.31 228.90 532.31 228.87
  A 0.10 0.10 0.0 0 1 532.42 228.77
  Q 533.72 228.94 534.00 228.25"
/>
<path stroke="#772208" vector-effect="non-scaling-stroke" d="
  M 534.00 228.25
  Q 556.14 228.25 578.28 228.25
  C 588.29 228.25 595.69 226.98 599.40 217.49
  C 601.37 212.47 601.23 198.15 599.20 193.32
  C 594.21 181.45 583.12 183.37 572.24 183.23"
/>
<path stroke="#f07f1c" vector-effect="non-scaling-stroke" d="
  M 435.49 102.76
  Q 434.55 103.06 436.06 103.63
  Q 436.57 103.82 436.29 104.29
  L 435.78 105.13
  Q 435.52 105.56 435.54 106.06
  Q 435.79 111.33 434.74 116.50
  Q 434.50 117.71 435.21 120.00
  Q 435.38 120.53 435.00 120.94
  Q 433.23 122.84 433.88 125.29
  Q 434.02 125.82 433.91 126.35
  L 428.98 151.17
  Q 428.89 151.62 428.44 151.74
  L 426.92 152.15
  A 0.47 0.47 0.0 0 0 426.73 152.96
  C 428.30 154.31 428.68 155.29 427.70 157.28
  Q 424.86 163.11 423.67 169.50
  Q 423.58 170.01 423.15 170.31
  Q 422.24 170.93 422.58 171.91
  Q 422.75 172.40 422.56 172.88
  C 421.45 175.75 417.73 179.90 421.25 182.60
  Q 421.33 182.66 421.26 182.72
  L 421.04 182.90
  A 0.09 0.09 0.0 0 0 421.10 183.05
  L 431.01 183.22"
/>
<path stroke="#ee7219" vector-effect="non-scaling-stroke" d="
  M 381.24 288.51
  L 387.87 288.69
  Q 388.39 288.70 388.83 288.97
  L 391.19 290.39
  A 1.26 1.26 0.0 0 1 391.48 292.31
  C 388.79 295.29 386.87 299.33 383.61 301.74
  C 378.15 305.78 375.95 310.46 371.71 314.46
  C 368.89 317.13 367.15 319.28 364.67 321.52
  Q 364.22 321.93 364.08 321.33
  L 363.23 317.48"
/>
<path stroke="#7c440f" vector-effect="non-scaling-stroke" d="
  M 363.23 317.48
  C 363.08 308.65 360.79 301.46 351.98 298.42
  C 347.54 296.89 340.96 297.51 335.76 297.50
  C 327.54 297.50 321.09 299.71 317.89 307.37
  Q 316.46 310.80 316.48 318.32
  Q 316.53 343.29 316.49 368.25"
/>
<path stroke="#f07f1c" vector-effect="non-scaling-stroke" d="
  M 316.49 368.25
  Q 316.25 368.29 316.10 368.92
  Q 316.00 369.36 316.00 368.91
  L 316.00 367.76
  Q 316.00 367.37 315.83 367.73
  Q 315.73 367.96 315.70 368.01
  A 0.11 0.08 -35.2 0 1 315.51 368.00
  L 316.03 363.03
  Q 316.14 361.99 315.21 362.44
  C 313.84 363.10 312.80 363.18 311.67 364.28
  C 307.90 367.95 304.19 369.31 300.16 371.87
  C 296.95 373.91 293.28 374.58 290.30 377.74
  Q 289.94 378.13 289.42 378.26
  Q 287.47 378.77 286.07 380.23
  Q 285.76 380.55 285.31 380.63
  L 282.25 381.16
  Q 281.93 381.22 282.18 381.43
  Q 282.29 381.52 282.39 381.61
  Q 282.45 381.68 282.37 381.69
  Q 281.74 381.79 282.32 382.06
  Q 282.82 382.30 282.27 382.35
  L 276.43 382.90
  Q 276.00 382.94 275.67 383.20
  C 273.63 384.79 271.20 384.65 269.30 385.56
  Q 252.57 393.64 234.91 399.47
  Q 234.41 399.64 234.33 400.16
  Q 234.10 401.51 232.62 401.30
  A 0.54 0.53 -89.6 0 0 232.02 401.90
  Q 232.17 402.96 231.71 403.72"
/>
<path stroke="#ed6c18" vector-effect="non-scaling-stroke" d="
  M 312.06 436.18
  Q 322.17 431.03 327.08 427.58
  Q 328.85 426.35 330.47 423.36"
/>
<path stroke="#79310a" vector-effect="non-scaling-stroke" d="
  M 330.47 423.36
  C 344.87 423.79 362.94 425.65 363.07 405.83
  Q 363.36 361.68 363.23 317.48"
/>
<path stroke="#7b3d0e" vector-effect="non-scaling-stroke" d="
  M 330.47 423.36
  C 318.46 420.38 316.50 412.76 316.50 401.08
  Q 316.50 384.67 316.49 368.25"
/>
</g>
<path fill="#060200" d="
  M 591.69 295.94
  C 557.98 337.41 518.67 373.68 474.75 403.53
  C 441.94 425.83 405.00 444.85 366.29 453.55
  Q 331.75 461.32 297.50 452.27
  C 249.95 439.71 205.68 412.79 167.76 382.06
  C 134.45 355.06 104.63 324.96 78.31 290.69
  C 37.32 237.32 -2.40 162.59 16.79 93.08
  C 35.12 26.72 104.59 11.78 163.88 11.77
  Q 340.44 11.73 517.00 12.00
  C 582.34 12.10 651.82 33.06 662.74 108.37
  C 672.68 176.92 633.31 244.77 591.69 295.94
  Z
  M 58.88 59.35
  C 20.71 93.78 27.14 151.81 43.90 194.61
  Q 60.03 234.13 85.50 268.82
  Q 120.81 317.36 166.55 356.52
  Q 197.06 383.05 231.71 403.72
  Q 256.65 418.77 283.94 428.56
  Q 298.22 433.69 312.06 436.18
  C 357.86 444.41 404.21 424.69 442.78 401.50
  C 499.43 368.09 549.47 321.07 588.92 268.71
  C 623.81 222.40 655.56 161.88 642.38 101.83
  C 635.49 70.41 611.92 49.46 581.32 39.94
  C 559.97 33.20 537.54 30.99 515.24 30.53
  L 375.74 30.51
  L 284.75 30.51
  L 167.99 30.51
  C 130.67 30.49 88.69 34.63 58.88 59.35
  Z"
/>
<path fill="#ffedce" d="
  M 167.99 30.51
  L 168.77 30.82
  Q 169.23 30.99 168.79 31.22
  L 167.95 31.66
  Q 167.40 31.94 167.74 32.46
  C 170.13 36.13 174.00 39.16 176.11 41.85
  Q 181.17 48.30 184.43 56.02
  Q 155.08 55.97 125.57 56.02
  Q 112.73 56.04 108.76 67.12
  C 106.82 72.50 107.04 87.60 109.11 92.63
  C 112.83 101.68 120.05 102.78 129.68 102.77
  Q 155.59 102.73 181.52 102.76
  C 184.72 105.43 177.10 115.11 175.26 117.44
  A 0.98 0.98 0.0 0 0 175.05 118.10
  Q 175.10 119.23 174.07 119.66
  A 0.01 0.01 0.0 0 0 174.07 119.68
  Q 174.25 119.70 174.34 119.76
  Q 174.52 119.86 174.36 119.99
  Q 174.12 120.20 174.00 120.50
  Q 149.09 120.50 124.18 120.50
  C 107.97 120.50 97.27 122.14 86.82 133.63
  Q 84.54 131.20 82.35 128.80
  C 79.11 125.24 75.02 121.63 71.79 117.53
  C 71.02 116.56 70.87 115.35 69.97 114.25
  C 67.73 111.51 66.62 108.22 65.07 105.07
  Q 55.26 85.09 59.55 62.89
  Q 59.63 62.50 59.23 62.50
  L 58.77 62.50
  A 0.40 0.39 14.8 0 1 58.42 61.91
  Q 59.30 60.38 58.88 59.35
  C 88.69 34.63 130.67 30.49 167.99 30.51
  Z"
/>
<path fill="#fdd383" d="
  M 167.99 30.51
  L 284.75 30.51
  Q 284.88 30.86 285.36 31.05
  Q 285.86 31.25 285.32 31.25
  L 284.80 31.25
  Q 284.44 31.25 284.54 31.61
  Q 287.89 43.38 289.79 55.46
  Q 289.83 55.67 290.04 55.68
  Q 290.27 55.69 290.45 55.78
  Q 290.77 55.93 290.42 55.95
  L 288.24 56.09
  L 184.43 56.02
  Q 181.17 48.30 176.11 41.85
  C 174.00 39.16 170.13 36.13 167.74 32.46
  Q 167.40 31.94 167.95 31.66
  L 168.79 31.22
  Q 169.23 30.99 168.77 30.82
  L 167.99 30.51
  Z"
/>
<path fill="#f59c23" d="
  M 284.75 30.51
  L 375.74 30.51
  C 379.93 31.11 382.58 29.84 386.10 32.89
  Q 386.41 33.16 386.04 33.31
  C 382.15 34.95 379.37 38.32 383.00 42.07
  Q 383.31 42.39 383.73 42.52
  L 384.67 42.83
  A 1.14 1.13 86.0 0 1 385.33 43.41
  Q 386.70 46.14 386.21 49.14
  A 0.78 0.76 22.2 0 0 386.54 49.90
  L 388.80 51.46
  Q 389.19 51.73 389.67 51.79
  Q 392.70 52.16 393.36 55.40
  Q 393.48 55.99 394.09 55.99
  L 398.19 56.01
  Q 398.19 56.01 398.19 56.06
  Q 398.19 56.09 398.19 56.13
  A 0.15 0.15 0.0 0 1 398.04 56.28
  L 387.00 56.44
  C 369.31 56.67 353.64 68.90 349.03 85.63
  Q 347.49 91.24 347.49 104.97
  Q 347.49 144.52 347.52 184.05
  C 347.53 193.86 348.47 201.17 353.24 208.74
  C 367.30 231.06 387.57 228.22 410.50 228.25
  Q 410.62 228.70 411.22 228.81
  Q 411.35 228.84 411.22 228.88
  Q 409.51 229.42 408.18 230.26
  Q 407.71 230.55 407.56 231.09
  L 406.93 233.43
  Q 406.80 233.91 407.19 234.22
  L 408.47 235.21
  Q 408.86 235.52 408.80 236.01
  Q 408.32 240.18 412.27 241.73
  L 264.21 241.79
  Q 265.33 240.77 267.69 240.87
  Q 267.83 240.88 267.70 240.85
  Q 267.23 240.75 266.89 240.46
  Q 266.61 240.22 266.80 239.90
  L 266.95 239.63
  Q 267.16 239.28 266.98 238.91
  Q 265.36 235.79 267.57 231.75
  Q 268.69 229.69 270.52 229.10
  A 0.06 0.06 0.0 0 0 270.52 228.98
  Q 269.62 228.78 269.49 228.24
  Q 290.59 228.37 311.64 228.12
  C 322.65 227.99 329.25 221.53 329.32 210.46
  Q 329.70 154.94 329.33 99.43
  Q 329.26 89.58 327.80 84.73
  C 322.49 67.23 306.42 56.03 288.24 56.09
  L 290.42 55.95
  Q 290.77 55.93 290.45 55.78
  Q 290.27 55.69 290.04 55.68
  Q 289.83 55.67 289.79 55.46
  Q 287.89 43.38 284.54 31.61
  Q 284.44 31.25 284.80 31.25
  L 285.32 31.25
  Q 285.86 31.25 285.36 31.05
  Q 284.88 30.86 284.75 30.51
  Z"
/>
<path fill="#f1851d" d="
  M 375.74 30.51
  L 515.24 30.53
  Q 515.18 30.77 515.37 31.02
  Q 515.54 31.23 515.29 31.35
  L 514.92 31.53
  Q 514.51 31.73 514.91 31.94
  L 515.22 32.11
  Q 515.68 32.36 515.79 32.88
  C 516.36 35.77 517.98 46.55 516.47 49.43
  A 1.01 1.00 -47.7 0 0 516.51 50.42
  Q 517.62 52.18 516.89 53.95
  Q 516.73 54.33 516.39 54.57
  L 514.75 55.75
  Q 514.41 55.99 514.83 56.01
  L 519.01 56.21
  L 387.00 56.44
  L 398.04 56.28
  A 0.15 0.15 0.0 0 0 398.19 56.13
  Q 398.19 56.09 398.19 56.06
  Q 398.19 56.01 398.19 56.01
  L 394.09 55.99
  Q 393.48 55.99 393.36 55.40
  Q 392.70 52.16 389.67 51.79
  Q 389.19 51.73 388.80 51.46
  L 386.54 49.90
  A 0.78 0.76 22.2 0 1 386.21 49.14
  Q 386.70 46.14 385.33 43.41
  A 1.14 1.13 86.0 0 0 384.67 42.83
  L 383.73 42.52
  Q 383.31 42.39 383.00 42.07
  C 379.37 38.32 382.15 34.95 386.04 33.31
  Q 386.41 33.16 386.10 32.89
  C 382.58 29.84 379.93 31.11 375.74 30.51
  Z"
/>
<path fill="#eb5f14" d="
  M 515.24 30.53
  C 537.54 30.99 559.97 33.20 581.32 39.94
  L 579.42 41.49
  A 0.55 0.55 0.0 0 0 579.30 42.21
  L 581.19 45.32
  Q 581.48 45.80 581.46 46.36
  Q 581.38 48.37 583.34 48.38
  A 0.39 0.39 0.0 0 1 583.46 49.14
  L 582.60 49.41
  A 0.41 0.41 0.0 0 0 582.31 49.76
  Q 582.14 50.88 582.98 51.68
  Q 583.34 52.03 583.33 52.55
  Q 583.20 56.81 581.11 60.58
  Q 580.76 61.23 581.48 61.35
  L 582.58 61.54
  A 0.47 0.47 0.0 0 0 583.04 61.35
  Q 584.75 58.94 587.22 60.40
  A 0.74 0.74 0.0 0 1 587.59 61.06
  L 587.54 68.77
  Q 587.54 69.36 587.20 69.86
  Q 586.21 71.31 586.20 73.06
  Q 586.20 73.44 586.50 73.68
  Q 587.77 74.68 587.11 76.30
  A 1.17 1.14 47.9 0 0 587.08 77.12
  L 588.43 81.11
  A 0.88 0.80 42.4 0 1 588.47 81.55
  L 587.03 89.49
  Q 586.96 89.86 587.15 90.18
  Q 588.05 91.65 586.91 92.86
  A 1.35 1.32 -23.7 0 0 586.54 93.78
  Q 586.53 95.18 587.42 96.06
  Q 587.86 96.50 587.78 97.12
  L 587.32 100.23
  A 0.83 0.79 80.8 0 1 586.91 100.83
  Q 585.16 101.81 586.36 103.06
  A 0.81 0.81 0.0 0 1 586.42 104.11
  L 585.00 105.98
  Q 584.73 106.33 584.92 106.73
  Q 585.61 108.16 585.36 109.92
  Q 585.29 110.38 585.51 110.79
  Q 586.94 113.46 585.18 115.92
  A 1.11 1.07 60.6 0 0 584.98 116.69
  Q 585.47 120.48 585.21 124.30
  Q 585.11 125.88 584.03 125.75
  A 1.03 1.03 0.0 0 0 583.01 127.26
  Q 583.86 128.83 583.17 130.60
  A 1.49 1.42 -43.7 0 0 583.13 131.48
  C 585.23 139.10 577.53 142.29 580.43 149.44
  Q 580.60 149.87 580.45 150.30
  L 579.66 152.49
  Q 579.47 153.02 579.94 153.34
  C 581.50 154.40 580.74 155.45 580.75 156.74
  Q 580.81 160.94 580.55 165.17
  A 1.94 1.92 74.7 0 1 579.72 166.64
  C 575.85 169.34 578.56 174.45 573.75 175.62
  Q 573.37 175.71 573.33 176.10
  Q 573.15 177.67 574.42 178.62
  Q 574.75 178.87 574.75 179.29
  L 574.75 182.50
  Q 574.75 183.04 574.22 183.00
  Q 573.10 182.92 572.24 183.23
  L 496.01 183.23
  L 492.29 182.96
  Q 492.03 182.94 492.26 182.81
  Q 492.58 182.62 493.04 182.72
  A 0.02 0.02 0.0 0 0 493.06 182.68
  Q 492.91 182.55 492.80 182.41
  Q 492.60 182.15 492.91 182.04
  Q 493.07 181.98 493.24 181.92
  A 0.04 0.04 0.0 0 0 493.25 181.85
  Q 492.31 181.24 491.60 180.36
  A 2.00 1.99 50.6 0 1 491.87 177.57
  C 492.84 176.77 494.00 173.90 494.78 173.53
  Q 495.46 173.20 495.77 173.96
  A 0.41 0.41 0.0 0 0 496.54 173.95
  L 496.83 173.17
  Q 497.02 172.65 497.55 172.52
  Q 499.37 172.08 499.26 170.12
  A 0.90 0.85 -30.0 0 1 499.43 169.55
  L 502.25 165.72
  Q 502.33 165.60 502.41 165.73
  Q 502.50 165.89 502.64 165.94
  Q 502.92 166.05 502.82 165.76
  L 502.17 163.92
  A 0.87 0.86 -11.9 0 1 502.92 162.78
  L 503.84 162.71
  Q 504.34 162.67 504.60 162.23
  Q 505.01 161.54 505.03 160.78
  A 1.44 0.83 62.8 0 0 503.06 159.50
  Q 503.03 160.00 502.75 160.00
  Q 502.33 160.00 502.31 159.94
  Q 502.26 159.79 502.22 159.64
  Q 502.17 159.48 502.32 159.39
  Q 504.11 158.36 503.49 156.66
  Q 503.33 156.25 503.77 156.25
  L 504.28 156.25
  Q 504.79 156.25 504.96 155.77
  Q 505.51 154.23 504.55 152.92
  A 0.81 0.81 0.0 0 1 504.52 151.98
  C 505.37 150.69 505.69 149.96 505.67 148.31
  C 505.65 146.85 507.22 142.00 506.81 141.41
  Q 506.57 141.06 506.71 140.66
  Q 508.32 135.78 508.88 129.20
  Q 509.00 127.77 510.38 127.82
  Q 510.75 127.83 510.75 127.47
  L 510.75 123.50
  Q 510.75 122.65 511.19 123.32
  Q 511.35 123.57 511.79 123.45
  Q 512.64 123.23 511.95 122.67
  L 510.69 121.67
  A 0.77 0.75 -73.3 0 1 510.40 121.11
  Q 510.28 118.85 508.19 118.09
  Q 507.76 117.94 507.93 117.52
  C 508.82 115.27 510.51 113.27 510.69 110.91
  Q 510.91 108.07 510.68 105.18
  Q 510.64 104.63 510.11 104.75
  Q 508.85 105.03 508.22 104.10
  Q 507.95 103.71 508.42 103.65
  L 510.19 103.42
  Q 510.39 103.39 510.39 103.39
  Q 510.21 103.31 510.01 103.26
  Q 509.69 103.19 510.01 103.09
  Q 510.42 102.95 510.50 102.75
  Q 529.92 102.75 549.34 102.75
  Q 557.35 102.75 560.84 101.32
  C 568.46 98.18 570.80 91.85 570.77 83.69
  C 570.73 73.72 572.40 63.13 561.41 58.09
  Q 558.10 56.57 551.26 56.45
  C 540.50 56.27 529.74 56.79 519.01 56.21
  L 514.83 56.01
  Q 514.41 55.99 514.75 55.75
  L 516.39 54.57
  Q 516.73 54.33 516.89 53.95
  Q 517.62 52.18 516.51 50.42
  A 1.01 1.00 -47.7 0 1 516.47 49.43
  C 517.98 46.55 516.36 35.77 515.79 32.88
  Q 515.68 32.36 515.22 32.11
  L 514.91 31.94
  Q 514.51 31.73 514.92 31.53
  L 515.29 31.35
  Q 515.54 31.23 515.37 31.02
  Q 515.18 30.77 515.24 30.53
  Z"
/>
<path fill="#e74110" d="
  M 581.32 39.94
  C 611.92 49.46 635.49 70.41 642.38 101.83
  C 655.56 161.88 623.81 222.40 588.92 268.71
  C 549.47 321.07 499.43 368.09 442.78 401.50
  Q 442.54 401.21 442.49 400.78
  Q 442.45 400.51 442.18 400.58
  L 441.32 400.82
  Q 440.89 400.94 440.98 400.50
  L 441.32 398.66
  A 0.58 0.58 0.0 0 1 442.12 398.24
  L 443.22 398.71
  A 0.83 0.82 -56.6 0 0 444.15 398.51
  Q 446.16 396.33 448.10 394.08
  Q 448.19 393.60 448.50 393.85
  A 0.27 0.27 0.0 0 0 448.88 393.79
  Q 449.07 393.53 448.74 393.41
  A 0.42 0.41 30.7 0 1 448.57 392.75
  Q 455.00 385.36 462.05 378.54
  C 462.94 377.67 462.72 376.46 463.75 375.39
  C 466.76 372.22 469.05 370.12 472.95 367.23
  C 476.05 364.94 477.84 361.13 480.90 358.16
  Q 481.25 357.82 481.14 357.35
  Q 480.93 356.41 481.87 355.71
  Q 482.19 355.47 482.57 355.37
  Q 485.16 354.66 484.82 351.76
  A 3.33 3.06 84.6 0 1 487.62 348.06
  Q 488.67 347.99 489.11 347.06
  Q 489.32 346.62 489.79 346.52
  Q 491.49 346.16 492.00 344.49
  Q 492.14 344.03 492.59 343.89
  Q 494.20 343.38 495.11 341.92
  Q 495.43 341.40 495.07 340.90
  Q 494.10 339.58 495.64 338.78
  A 0.79 0.78 78.8 0 0 496.07 338.13
  Q 496.36 334.27 498.92 331.39
  A 1.82 1.82 0.0 0 0 499.34 330.56
  Q 499.72 328.65 501.41 327.67
  Q 501.49 327.62 501.43 327.55
  L 501.20 327.33
  Q 500.98 327.10 501.03 326.79
  Q 501.29 325.33 502.75 325.03
  A 1.53 1.53 0.0 0 0 503.63 324.52
  C 506.07 321.71 511.20 322.08 508.74 316.56
  A 0.92 0.92 0.0 0 1 509.46 315.27
  Q 512.43 314.89 512.61 311.76
  Q 512.65 311.20 513.18 311.04
  L 514.00 310.80
  Q 514.37 310.69 514.55 310.34
  L 517.10 305.40
  A 0.49 0.46 54.5 0 0 517.14 305.10
  Q 516.50 301.43 520.23 301.28
  A 2.27 1.64 -26.1 0 0 522.04 297.88
  Q 521.32 297.56 521.24 297.04
  A 0.55 0.54 -1.9 0 0 520.73 296.57
  Q 518.15 296.42 518.62 294.06
  A 1.06 1.04 88.3 0 1 519.36 293.26
  Q 520.04 293.08 520.08 292.99
  A 2.40 2.40 0.0 0 0 517.88 289.76
  Q 516.63 289.74 515.22 288.50
  Q 527.84 288.61 540.38 288.38
  C 551.24 288.18 557.31 280.66 557.23 269.75
  C 557.19 263.01 558.06 256.25 555.36 250.91
  C 550.17 240.64 539.82 241.78 529.99 241.73
  L 533.76 241.53
  A 0.99 0.99 0.0 0 0 534.50 239.96
  C 532.62 237.38 534.16 234.00 534.80 231.23
  A 0.86 0.84 28.7 0 0 534.55 230.42
  Q 533.88 229.80 534.59 229.31
  Q 535.00 229.02 534.50 229.01
  L 532.31 228.98
  Q 532.31 228.98 532.31 228.92
  Q 532.31 228.90 532.31 228.87
  A 0.10 0.10 0.0 0 1 532.42 228.77
  Q 533.72 228.94 534.00 228.25
  Q 556.14 228.25 578.28 228.25
  C 588.29 228.25 595.69 226.98 599.40 217.49
  C 601.37 212.47 601.23 198.15 599.20 193.32
  C 594.21 181.45 583.12 183.37 572.24 183.23
  Q 573.10 182.92 574.22 183.00
  Q 574.75 183.04 574.75 182.50
  L 574.75 179.29
  Q 574.75 178.87 574.42 178.62
  Q 573.15 177.67 573.33 176.10
  Q 573.37 175.71 573.75 175.62
  C 578.56 174.45 575.85 169.34 579.72 166.64
  A 1.94 1.92 74.7 0 0 580.55 165.17
  Q 580.81 160.94 580.75 156.74
  C 580.74 155.45 581.50 154.40 579.94 153.34
  Q 579.47 153.02 579.66 152.49
  L 580.45 150.30
  Q 580.60 149.87 580.43 149.44
  C 577.53 142.29 585.23 139.10 583.13 131.48
  A 1.49 1.42 -43.7 0 1 583.17 130.60
  Q 583.86 128.83 583.01 127.26
  A 1.03 1.03 0.0 0 1 584.03 125.75
  Q 585.11 125.88 585.21 124.30
  Q 585.47 120.48 584.98 116.69
  A 1.11 1.07 60.6 0 1 585.18 115.92
  Q 586.94 113.46 585.51 110.79
  Q 585.29 110.38 585.36 109.92
  Q 585.61 108.16 584.92 106.73
  Q 584.73 106.33 585.00 105.98
  L 586.42 104.11
  A 0.81 0.81 0.0 0 0 586.36 103.06
  Q 585.16 101.81 586.91 100.83
  A 0.83 0.79 80.8 0 0 587.32 100.23
  L 587.78 97.12
  Q 587.86 96.50 587.42 96.06
  Q 586.53 95.18 586.54 93.78
  A 1.35 1.32 -23.7 0 1 586.91 92.86
  Q 588.05 91.65 587.15 90.18
  Q 586.96 89.86 587.03 89.49
  L 588.47 81.55
  A 0.88 0.80 42.4 0 0 588.43 81.11
  L 587.08 77.12
  A 1.17 1.14 47.9 0 1 587.11 76.30
  Q 587.77 74.68 586.50 73.68
  Q 586.20 73.44 586.20 73.06
  Q 586.21 71.31 587.20 69.86
  Q 587.54 69.36 587.54 68.77
  L 587.59 61.06
  A 0.74 0.74 0.0 0 0 587.22 60.40
  Q 584.75 58.94 583.04 61.35
  A 0.47 0.47 0.0 0 1 582.58 61.54
  L 581.48 61.35
  Q 580.76 61.23 581.11 60.58
  Q 583.20 56.81 583.33 52.55
  Q 583.34 52.03 582.98 51.68
  Q 582.14 50.88 582.31 49.76
  A 0.41 0.41 0.0 0 1 582.60 49.41
  L 583.46 49.14
  A 0.39 0.39 0.0 0 0 583.34 48.38
  Q 581.38 48.37 581.46 46.36
  Q 581.48 45.80 581.19 45.32
  L 579.30 42.21
  A 0.55 0.55 0.0 0 1 579.42 41.49
  L 581.32 39.94
  Z"
/>
<path fill="#060200" d="
  M 184.43 56.02
  L 288.24 56.09
  C 306.42 56.03 322.49 67.23 327.80 84.73
  Q 329.26 89.58 329.33 99.43
  Q 329.70 154.94 329.32 210.46
  C 329.25 221.53 322.65 227.99 311.64 228.12
  Q 290.59 228.37 269.49 228.24
  Q 193.38 228.26 117.25 228.26
  Q 98.69 228.26 86.55 214.78
  C 73.61 200.56 76.20 183.86 76.26 166.27
  C 76.31 152.10 77.83 143.39 86.82 133.63
  C 97.27 122.14 107.97 120.50 124.18 120.50
  Q 149.09 120.50 174.00 120.50
  Q 210.71 120.50 247.42 120.50
  C 255.67 120.50 261.38 121.31 265.70 128.08
  C 269.46 134.00 268.64 141.84 268.26 148.42
  Q 267.47 162.17 255.19 165.06
  C 251.50 165.92 246.45 165.43 242.26 165.51
  L 123.40 165.51
  Q 122.82 165.51 122.81 166.09
  L 122.72 182.71
  Q 122.72 183.24 123.25 183.24
  L 233.25 183.24
  L 282.24 183.24
  A 0.51 0.51 0.0 0 0 282.75 182.73
  L 282.75 103.26
  Q 282.75 102.77 282.26 102.77
  L 273.56 102.76
  L 181.52 102.76
  Q 155.59 102.73 129.68 102.77
  C 120.05 102.78 112.83 101.68 109.11 92.63
  C 107.04 87.60 106.82 72.50 108.76 67.12
  Q 112.73 56.04 125.57 56.02
  Q 155.08 55.97 184.43 56.02
  Z"
/>
<path fill="#060200" d="
  M 519.01 56.21
  C 529.74 56.79 540.50 56.27 551.26 56.45
  Q 558.10 56.57 561.41 58.09
  C 572.40 63.13 570.73 73.72 570.77 83.69
  C 570.80 91.85 568.46 98.18 560.84 101.32
  Q 557.35 102.75 549.34 102.75
  Q 529.92 102.75 510.50 102.75
  L 435.49 102.76
  L 395.24 102.76
  Q 394.25 102.76 394.25 103.74
  L 394.24 182.79
  Q 394.24 183.23 394.68 183.23
  L 431.01 183.22
  L 496.01 183.23
  L 572.24 183.23
  C 583.12 183.37 594.21 181.45 599.20 193.32
  C 601.23 198.15 601.37 212.47 599.40 217.49
  C 595.69 226.98 588.29 228.25 578.28 228.25
  Q 556.14 228.25 534.00 228.25
  L 410.50 228.25
  C 387.57 228.22 367.30 231.06 353.24 208.74
  C 348.47 201.17 347.53 193.86 347.52 184.05
  Q 347.49 144.52 347.49 104.97
  Q 347.49 91.24 349.03 85.63
  C 353.64 68.90 369.31 56.67 387.00 56.44
  L 519.01 56.21
  Z"
/>
<path fill="#fdd383" d="
  M 58.88 59.35
  Q 59.30 60.38 58.42 61.91
  A 0.40 0.39 14.8 0 0 58.77 62.50
  L 59.23 62.50
  Q 59.63 62.50 59.55 62.89
  Q 55.26 85.09 65.07 105.07
  C 66.62 108.22 67.73 111.51 69.97 114.25
  C 70.87 115.35 71.02 116.56 71.79 117.53
  C 75.02 121.63 79.11 125.24 82.35 128.80
  Q 84.54 131.20 86.82 133.63
  C 77.83 143.39 76.31 152.10 76.26 166.27
  C 76.20 183.86 73.61 200.56 86.55 214.78
  L 86.47 216.02
  A 0.99 0.98 -56.4 0 1 84.60 216.40
  Q 83.60 214.31 81.43 213.40
  A 0.76 0.76 0.0 0 1 80.98 212.55
  Q 81.02 212.34 81.01 212.14
  Q 80.97 211.68 80.51 211.70
  Q 79.93 211.73 79.95 212.20
  A 0.19 0.19 0.0 0 1 79.67 212.37
  L 76.02 210.39
  Q 75.64 210.18 75.20 210.20
  Q 72.36 210.35 70.70 208.09
  A 1.44 1.43 -12.0 0 0 69.81 207.52
  Q 66.47 206.84 64.29 204.15
  A 0.28 0.28 0.0 0 0 63.80 204.29
  L 63.74 204.78
  Q 63.70 205.02 63.47 204.95
  C 61.53 204.33 60.14 203.02 58.34 202.38
  C 56.03 201.55 50.39 198.60 48.83 196.44
  A 0.62 0.61 57.0 0 0 48.02 196.26
  L 47.16 196.75
  Q 46.53 197.12 46.41 196.40
  Q 46.10 194.53 43.90 194.61
  C 27.14 151.81 20.71 93.78 58.88 59.35
  Z"
/>
<path fill="#fdd383" d="
  M 181.52 102.76
  L 273.56 102.76
  Q 273.23 104.58 272.50 106.48
  Q 271.76 108.43 271.53 110.18
  Q 270.30 119.72 265.70 128.08
  C 261.38 121.31 255.67 120.50 247.42 120.50
  Q 210.71 120.50 174.00 120.50
  Q 174.12 120.20 174.36 119.99
  Q 174.52 119.86 174.34 119.76
  Q 174.25 119.70 174.07 119.68
  A 0.01 0.01 0.0 0 1 174.07 119.66
  Q 175.10 119.23 175.05 118.10
  A 0.98 0.98 0.0 0 1 175.26 117.44
  C 177.10 115.11 184.72 105.43 181.52 102.76
  Z"
/>
<path fill="#fbb930" d="
  M 273.56 102.76
  L 282.26 102.77
  Q 282.75 102.77 282.75 103.26
  L 282.75 182.73
  A 0.51 0.51 0.0 0 1 282.24 183.24
  L 233.25 183.24
  Q 231.27 183.08 231.00 181.19
  Q 230.93 180.68 231.27 180.28
  C 235.30 175.59 239.05 171.82 241.86 166.17
  A 0.12 0.11 -76.8 0 0 241.76 166.00
  Q 241.61 166.00 241.46 166.03
  A 0.07 0.07 0.0 0 1 241.42 165.89
  L 242.26 165.51
  C 246.45 165.43 251.50 165.92 255.19 165.06
  Q 267.47 162.17 268.26 148.42
  C 268.64 141.84 269.46 134.00 265.70 128.08
  Q 270.30 119.72 271.53 110.18
  Q 271.76 108.43 272.50 106.48
  Q 273.23 104.58 273.56 102.76
  Z"
/>
<path fill="#f1851d" d="
  M 435.49 102.76
  Q 434.55 103.06 436.06 103.63
  Q 436.57 103.82 436.29 104.29
  L 435.78 105.13
  Q 435.52 105.56 435.54 106.06
  Q 435.79 111.33 434.74 116.50
  Q 434.50 117.71 435.21 120.00
  Q 435.38 120.53 435.00 120.94
  Q 433.23 122.84 433.88 125.29
  Q 434.02 125.82 433.91 126.35
  L 428.98 151.17
  Q 428.89 151.62 428.44 151.74
  L 426.92 152.15
  A 0.47 0.47 0.0 0 0 426.73 152.96
  C 428.30 154.31 428.68 155.29 427.70 157.28
  Q 424.86 163.11 423.67 169.50
  Q 423.58 170.01 423.15 170.31
  Q 422.24 170.93 422.58 171.91
  Q 422.75 172.40 422.56 172.88
  C 421.45 175.75 417.73 179.90 421.25 182.60
  Q 421.33 182.66 421.26 182.72
  L 421.04 182.90
  A 0.09 0.09 0.0 0 0 421.10 183.05
  L 431.01 183.22
  L 394.68 183.23
  Q 394.24 183.23 394.24 182.79
  L 394.25 103.74
  Q 394.25 102.76 395.24 102.76
  L 435.49 102.76
  Z"
/>
<path fill="#ef781b" d="
  M 435.49 102.76
  L 510.50 102.75
  Q 510.42 102.95 510.01 103.09
  Q 509.69 103.19 510.01 103.26
  Q 510.21 103.31 510.39 103.39
  Q 510.39 103.39 510.19 103.42
  L 508.42 103.65
  Q 507.95 103.71 508.22 104.10
  Q 508.85 105.03 510.11 104.75
  Q 510.64 104.63 510.68 105.18
  Q 510.91 108.07 510.69 110.91
  C 510.51 113.27 508.82 115.27 507.93 117.52
  Q 507.76 117.94 508.19 118.09
  Q 510.28 118.85 510.40 121.11
  A 0.77 0.75 -73.3 0 0 510.69 121.67
  L 511.95 122.67
  Q 512.64 123.23 511.79 123.45
  Q 511.35 123.57 511.19 123.32
  Q 510.75 122.65 510.75 123.50
  L 510.75 127.47
  Q 510.75 127.83 510.38 127.82
  Q 509.00 127.77 508.88 129.20
  Q 508.32 135.78 506.71 140.66
  Q 506.57 141.06 506.81 141.41
  C 507.22 142.00 505.65 146.85 505.67 148.31
  C 505.69 149.96 505.37 150.69 504.52 151.98
  A 0.81 0.81 0.0 0 0 504.55 152.92
  Q 505.51 154.23 504.96 155.77
  Q 504.79 156.25 504.28 156.25
  L 503.77 156.25
  Q 503.33 156.25 503.49 156.66
  Q 504.11 158.36 502.32 159.39
  Q 502.17 159.48 502.22 159.64
  Q 502.26 159.79 502.31 159.94
  Q 502.33 160.00 502.75 160.00
  Q 503.03 160.00 503.06 159.50
  A 1.44 0.83 62.8 0 1 505.03 160.78
  Q 505.01 161.54 504.60 162.23
  Q 504.34 162.67 503.84 162.71
  L 502.92 162.78
  A 0.87 0.86 -11.9 0 0 502.17 163.92
  L 502.82 165.76
  Q 502.92 166.05 502.64 165.94
  Q 502.50 165.89 502.41 165.73
  Q 502.33 165.60 502.25 165.72
  L 499.43 169.55
  A 0.90 0.85 -30.0 0 0 499.26 170.12
  Q 499.37 172.08 497.55 172.52
  Q 497.02 172.65 496.83 173.17
  L 496.54 173.95
  A 0.41 0.41 0.0 0 1 495.77 173.96
  Q 495.46 173.20 494.78 173.53
  C 494.00 173.90 492.84 176.77 491.87 177.57
  A 2.00 1.99 50.6 0 0 491.60 180.36
  Q 492.31 181.24 493.25 181.85
  A 0.04 0.04 0.0 0 1 493.24 181.92
  Q 493.07 181.98 492.91 182.04
  Q 492.60 182.15 492.80 182.41
  Q 492.91 182.55 493.06 182.68
  A 0.02 0.02 0.0 0 1 493.04 182.72
  Q 492.58 182.62 492.26 182.81
  Q 492.03 182.94 492.29 182.96
  L 496.01 183.23
  L 431.01 183.22
  L 421.10 183.05
  A 0.09 0.09 0.0 0 1 421.04 182.90
  L 421.26 182.72
  Q 421.33 182.66 421.25 182.60
  C 417.73 179.90 421.45 175.75 422.56 172.88
  Q 422.75 172.40 422.58 171.91
  Q 422.24 170.93 423.15 170.31
  Q 423.58 170.01 423.67 169.50
  Q 424.86 163.11 427.70 157.28
  C 428.68 155.29 428.30 154.31 426.73 152.96
  A 0.47 0.47 0.0 0 1 426.92 152.15
  L 428.44 151.74
  Q 428.89 151.62 428.98 151.17
  L 433.91 126.35
  Q 434.02 125.82 433.88 125.29
  Q 433.23 122.84 435.00 120.94
  Q 435.38 120.53 435.21 120.00
  Q 434.50 117.71 434.74 116.50
  Q 435.79 111.33 435.54 106.06
  Q 435.52 105.56 435.78 105.13
  L 436.29 104.29
  Q 436.57 103.82 436.06 103.63
  Q 434.55 103.06 435.49 102.76
  Z"
/>
<path fill="#12100c" d="
  M 1555.95 322.40
  Q 1555.84 322.69 1555.73 322.77
  C 1529.97 343.29 1495.04 347.50 1463.48 341.30
  C 1401.01 329.03 1387.64 267.19 1393.49 213.24
  C 1398.31 168.82 1421.01 136.33 1466.49 127.48
  C 1519.98 117.07 1576.01 136.45 1581.28 198.51
  Q 1581.35 199.25 1580.60 199.26
  Q 1567.84 199.28 1554.75 199.14
  C 1544.10 199.03 1539.34 194.15 1534.55 185.63
  C 1530.51 178.44 1525.32 172.01 1517.66 168.49
  C 1507.55 163.84 1495.60 162.81 1484.52 164.03
  C 1444.05 168.48 1433.50 205.08 1435.12 240.10
  C 1436.55 271.06 1447.75 300.64 1482.59 305.47
  C 1511.11 309.42 1533.03 296.45 1539.60 267.96
  Q 1539.77 267.23 1540.51 267.23
  L 1580.75 267.26
  Q 1581.32 267.26 1581.28 267.83
  C 1579.84 288.13 1571.75 308.13 1556.38 321.78
  Q 1556.09 322.04 1555.95 322.40
  Z"
/>
<path fill="#12100c" d="
  M 1836.78 197.88
  A 0.46 0.46 0.0 0 0 1837.62 198.13
  C 1846.26 185.06 1858.31 177.45 1874.01 175.27
  Q 1907.21 170.66 1928.63 197.36
  C 1949.13 222.91 1951.31 263.58 1942.76 293.75
  C 1937.16 313.52 1923.66 331.69 1903.51 337.57
  Q 1860.56 350.12 1822.70 328.10
  C 1798.61 314.09 1795.80 289.31 1795.78 264.10
  Q 1795.72 197.55 1795.76 131.02
  A 0.53 0.52 0.0 0 1 1796.29 130.50
  C 1810.27 130.52 1829.31 126.89 1835.41 144.13
  Q 1836.79 148.03 1836.76 156.04
  Q 1836.69 177.07 1836.78 197.88
  Z
  M 1852.43 300.07
  C 1860.97 307.85 1874.22 308.87 1884.78 305.31
  C 1898.57 300.66 1904.93 286.19 1906.93 272.26
  C 1909.81 252.11 1908.07 220.87 1884.65 212.58
  C 1871.19 207.82 1854.55 211.90 1846.66 224.67
  C 1838.78 237.43 1837.67 254.16 1839.22 268.74
  C 1840.60 281.71 1843.17 291.62 1852.43 300.07
  Z"
/>
<path fill="#12100c" d="
  M 818.67 342.52
  A 0.39 0.39 0.0 0 1 818.30 342.00
  Q 850.74 248.95 883.23 155.74
  C 887.57 143.27 890.53 131.63 906.19 131.13
  Q 920.44 130.67 940.66 131.13
  Q 941.27 131.15 941.47 131.72
  L 1016.59 341.98
  Q 1016.79 342.53 1016.20 342.53
  L 972.20 342.48
  A 0.74 0.74 0.0 0 1 971.49 341.96
  L 957.88 296.51
  A 0.72 0.71 -8.1 0 0 957.19 296.00
  L 877.22 296.00
  A 0.86 0.85 -81.8 0 0 876.40 296.62
  L 863.53 341.73
  A 1.05 1.05 0.0 0 1 862.52 342.49
  L 818.67 342.52
  Z
  M 888.21 260.21
  Q 887.87 261.25 888.97 261.25
  L 945.83 261.25
  Q 946.46 261.25 946.26 260.66
  L 918.31 175.73
  Q 918.20 175.40 918.25 175.05
  Q 918.33 174.44 917.65 174.07
  A 0.89 0.88 -66.9 0 0 916.39 174.58
  L 888.21 260.21
  Z"
/>
<path fill="#12100c" d="
  M 1205.91 208.30
  C 1206.21 241.36 1205.53 270.84 1205.95 299.30
  C 1206.16 313.84 1219.94 310.89 1229.72 310.73
  A 1.01 1.01 0.0 0 1 1230.75 311.74
  L 1230.75 340.99
  A 1.04 1.03 88.6 0 1 1229.77 342.03
  Q 1213.57 342.96 1197.24 342.04
  Q 1183.57 341.27 1179.90 340.01
  C 1167.07 335.60 1164.27 323.17 1164.26 310.20
  Q 1164.24 220.84 1164.25 131.51
  A 0.55 0.54 0.0 0 1 1164.80 130.97
  C 1173.11 131.07 1184.68 129.87 1191.68 132.17
  C 1201.23 135.32 1205.83 143.41 1205.76 153.27
  Q 1205.67 165.82 1205.85 178.37
  Q 1205.86 179.00 1206.49 179.00
  L 1229.80 179.00
  A 0.93 0.93 0.0 0 1 1230.73 179.96
  C 1230.63 184.38 1230.87 189.72 1229.75 193.61
  C 1226.62 204.38 1217.26 208.23 1206.54 207.69
  Q 1205.90 207.66 1205.91 208.30
  Z"
/>
<path fill="#12100c" d="
  M 1591.73 131.03
  C 1605.54 130.92 1625.48 127.33 1632.35 144.30
  Q 1633.48 147.09 1633.48 152.99
  Q 1633.52 247.62 1633.49 342.25
  A 0.50 0.50 0.0 0 1 1632.99 342.75
  L 1592.25 342.75
  A 1.00 1.00 0.0 0 1 1591.25 341.75
  L 1591.25 131.51
  A 0.48 0.48 0.0 0 1 1591.73 131.03
  Z"
/>
<path fill="#fdd383" d="
  M 242.26 165.51
  L 241.42 165.89
  A 0.07 0.07 0.0 0 0 241.46 166.03
  Q 241.61 166.00 241.76 166.00
  A 0.12 0.11 -76.8 0 1 241.86 166.17
  C 239.05 171.82 235.30 175.59 231.27 180.28
  Q 230.93 180.68 231.00 181.19
  Q 231.27 183.08 233.25 183.24
  L 123.25 183.24
  Q 122.72 183.24 122.72 182.71
  L 122.81 166.09
  Q 122.82 165.51 123.40 165.51
  L 242.26 165.51
  Z"
/>
<path fill="#12100c" d="
  M 1289.87 339.16
  C 1256.50 330.60 1242.85 310.13 1237.91 277.18
  C 1231.93 237.30 1242.36 188.03 1287.99 177.24
  Q 1307.69 172.58 1329.16 176.38
  C 1388.00 186.82 1396.24 269.23 1371.44 310.92
  C 1355.08 338.43 1319.64 346.79 1289.87 339.16
  Z
  M 1294.82 304.00
  C 1305.62 310.39 1319.03 309.86 1328.67 301.42
  C 1338.81 292.53 1341.77 280.48 1343.10 266.57
  C 1344.87 248.01 1342.02 220.60 1321.90 211.90
  C 1312.88 208.00 1302.74 210.01 1293.92 214.43
  C 1283.66 219.57 1278.76 234.57 1277.78 245.26
  Q 1276.05 264.20 1280.27 281.99
  C 1282.49 291.40 1286.43 299.04 1294.82 304.00
  Z"
/>
<path fill="#12100c" d="
  M 1038.44 329.31
  C 1016.37 317.12 1014.28 291.54 1014.14 269.28
  Q 1013.85 223.94 1014.05 178.69
  A 0.44 0.44 0.0 0 1 1014.49 178.25
  L 1055.74 178.25
  A 0.51 0.51 0.0 0 1 1056.25 178.76
  Q 1056.25 228.89 1056.25 279.25
  C 1056.25 289.89 1058.58 299.25 1068.61 304.72
  C 1086.53 314.50 1112.72 306.02 1112.73 283.00
  Q 1112.76 244.31 1112.75 205.62
  C 1112.74 193.75 1113.76 184.34 1125.08 179.89
  C 1132.44 177.01 1145.00 178.18 1153.65 178.28
  Q 1154.22 178.29 1154.22 178.85
  Q 1154.30 227.58 1154.28 276.24
  C 1154.27 290.93 1151.16 308.83 1141.51 320.44
  C 1130.89 333.21 1109.10 339.90 1093.23 341.50
  C 1074.18 343.42 1055.22 338.58 1038.44 329.31
  Z"
/>
<path fill="#12100c" d="
  M 1664.57 327.45
  C 1648.31 317.58 1643.88 294.75 1643.77 277.43
  Q 1643.44 228.09 1643.48 178.77
  A 0.52 0.52 0.0 0 1 1644.00 178.25
  L 1685.24 178.25
  A 0.52 0.52 0.0 0 1 1685.76 178.77
  Q 1685.73 228.02 1685.77 277.47
  Q 1685.78 287.82 1687.29 292.25
  C 1693.49 310.55 1718.50 313.17 1732.40 302.72
  C 1739.41 297.45 1741.96 290.51 1741.97 282.02
  Q 1742.02 244.16 1742.00 206.30
  C 1742.00 194.19 1742.86 184.31 1754.49 179.88
  C 1761.79 177.09 1774.20 178.22 1783.10 178.27
  Q 1783.65 178.27 1783.65 178.82
  Q 1784.02 246.36 1783.58 279.49
  Q 1783.39 293.86 1777.71 308.92
  C 1769.51 330.64 1742.44 339.49 1721.74 341.55
  C 1701.99 343.51 1681.47 337.69 1664.57 327.45
  Z"
/>
<path fill="#fbb930" d="
  M 86.55 214.78
  Q 98.69 228.26 117.25 228.26
  Q 193.38 228.26 269.49 228.24
  Q 269.62 228.78 270.52 228.98
  A 0.06 0.06 0.0 0 1 270.52 229.10
  Q 268.69 229.69 267.57 231.75
  Q 265.36 235.79 266.98 238.91
  Q 267.16 239.28 266.95 239.63
  L 266.80 239.90
  Q 266.61 240.22 266.89 240.46
  Q 267.23 240.75 267.70 240.85
  Q 267.83 240.88 267.69 240.87
  Q 265.33 240.77 264.21 241.79
  Q 203.84 241.65 143.38 241.85
  C 122.40 241.92 123.87 260.05 124.87 274.79
  Q 122.38 275.15 120.38 272.51
  Q 120.12 272.17 119.71 272.29
  Q 115.53 273.49 111.54 271.79
  A 1.27 1.23 -39.0 0 0 110.77 271.72
  Q 108.20 272.29 105.97 270.93
  Q 105.47 270.63 104.88 270.65
  Q 102.97 270.71 101.47 269.69
  Q 101.04 269.40 100.53 269.47
  Q 99.09 269.65 97.76 269.26
  Q 97.29 269.13 96.83 269.26
  Q 92.98 270.39 90.21 269.02
  Q 87.15 267.51 85.50 268.82
  Q 60.03 234.13 43.90 194.61
  Q 46.10 194.53 46.41 196.40
  Q 46.53 197.12 47.16 196.75
  L 48.02 196.26
  A 0.62 0.61 57.0 0 1 48.83 196.44
  C 50.39 198.60 56.03 201.55 58.34 202.38
  C 60.14 203.02 61.53 204.33 63.47 204.95
  Q 63.70 205.02 63.74 204.78
  L 63.80 204.29
  A 0.28 0.28 0.0 0 1 64.29 204.15
  Q 66.47 206.84 69.81 207.52
  A 1.44 1.43 -12.0 0 1 70.70 208.09
  Q 72.36 210.35 75.20 210.20
  Q 75.64 210.18 76.02 210.39
  L 79.67 212.37
  A 0.19 0.19 0.0 0 0 79.95 212.20
  Q 79.93 211.73 80.51 211.70
  Q 80.97 211.68 81.01 212.14
  Q 81.02 212.34 80.98 212.55
  A 0.76 0.76 0.0 0 0 81.43 213.40
  Q 83.60 214.31 84.60 216.40
  A 0.99 0.98 -56.4 0 0 86.47 216.02
  L 86.55 214.78
  Z"
/>
<path fill="#ef781b" d="
  M 410.50 228.25
  L 534.00 228.25
  Q 533.72 228.94 532.42 228.77
  A 0.10 0.10 0.0 0 0 532.31 228.87
  Q 532.31 228.90 532.31 228.92
  Q 532.31 228.98 532.31 228.98
  L 534.50 229.01
  Q 535.00 229.02 534.59 229.31
  Q 533.88 229.80 534.55 230.42
  A 0.86 0.84 28.7 0 1 534.80 231.23
  C 534.16 234.00 532.62 237.38 534.50 239.96
  A 0.99 0.99 0.0 0 1 533.76 241.53
  L 529.99 241.73
  L 412.27 241.73
  Q 408.32 240.18 408.80 236.01
  Q 408.86 235.52 408.47 235.21
  L 407.19 234.22
  Q 406.80 233.91 406.93 233.43
  L 407.56 231.09
  Q 407.71 230.55 408.18 230.26
  Q 409.51 229.42 411.22 228.88
  Q 411.35 228.84 411.22 228.81
  Q 410.62 228.70 410.50 228.25
  Z"
/>
<path fill="#060200" d="
  M 264.21 241.79
  L 412.27 241.73
  L 529.99 241.73
  C 539.82 241.78 550.17 240.64 555.36 250.91
  C 558.06 256.25 557.19 263.01 557.23 269.75
  C 557.31 280.66 551.24 288.18 540.38 288.38
  Q 527.84 288.61 515.22 288.50
  L 381.24 288.51
  L 316.75 288.50
  Q 231.55 288.50 146.35 288.50
  C 135.13 288.50 127.66 286.37 124.87 274.79
  C 123.87 260.05 122.40 241.92 143.38 241.85
  Q 203.84 241.65 264.21 241.79
  Z"
/>
<path fill="#f59c23" d="
  M 124.87 274.79
  C 127.66 286.37 135.13 288.50 146.35 288.50
  Q 231.55 288.50 316.75 288.50
  Q 318.06 289.15 317.22 289.90
  C 316.31 290.72 314.82 290.14 313.75 290.91
  Q 311.39 292.63 309.54 294.89
  Q 309.22 295.29 308.73 295.41
  C 307.22 295.79 306.24 297.40 305.42 298.02
  Q 299.50 302.55 293.56 307.06
  Q 293.24 307.31 292.64 307.42
  Q 292.20 307.51 291.89 307.83
  L 287.65 312.09
  Q 287.29 312.45 286.78 312.49
  Q 285.99 312.56 285.73 313.18
  Q 285.55 313.61 285.25 313.98
  Q 284.51 314.89 283.75 314.21
  Q 283.29 313.79 282.77 314.14
  L 280.03 315.98
  A 0.89 0.88 60.7 0 0 279.72 317.09
  Q 280.37 318.47 278.70 319.15
  A 0.64 0.60 44.2 0 1 278.21 319.14
  C 274.90 317.69 268.20 323.56 264.54 324.78
  A 1.25 1.22 -85.3 0 0 263.84 325.39
  Q 263.04 326.95 260.70 327.42
  C 258.23 327.92 254.47 330.54 251.54 331.60
  Q 249.71 332.26 247.82 332.81
  A 1.68 1.67 12.0 0 0 247.03 333.32
  Q 246.02 334.50 244.43 334.49
  A 1.31 1.30 -67.1 0 0 243.52 334.86
  C 241.60 336.77 239.27 336.82 237.23 337.94
  Q 233.54 339.97 229.73 340.72
  Q 227.55 341.15 226.22 342.59
  A 1.68 1.64 -74.0 0 1 225.38 343.07
  C 223.34 343.52 217.67 344.70 216.14 345.93
  A 1.37 1.36 24.7 0 1 215.26 346.25
  C 211.46 346.24 207.65 348.48 204.12 349.71
  C 202.65 350.22 201.83 351.36 200.28 351.91
  Q 199.74 352.10 199.27 351.79
  Q 197.31 350.48 195.38 351.63
  A 1.78 1.77 29.5 0 1 194.47 351.88
  Q 192.01 351.87 189.81 353.13
  A 1.39 1.38 -55.4 0 1 188.89 353.30
  Q 187.30 353.05 185.84 353.56
  Q 185.35 353.74 184.85 353.62
  C 181.92 352.92 180.63 356.37 178.67 354.78
  Q 178.22 354.42 177.70 354.65
  L 174.53 356.06
  A 0.55 0.54 -49.1 0 1 174.14 356.09
  Q 171.81 355.33 169.88 356.65
  Q 169.45 356.94 169.07 356.60
  Q 168.14 355.78 166.55 356.52
  Q 120.81 317.36 85.50 268.82
  Q 87.15 267.51 90.21 269.02
  Q 92.98 270.39 96.83 269.26
  Q 97.29 269.13 97.76 269.26
  Q 99.09 269.65 100.53 269.47
  Q 101.04 269.40 101.47 269.69
  Q 102.97 270.71 104.88 270.65
  Q 105.47 270.63 105.97 270.93
  Q 108.20 272.29 110.77 271.72
  A 1.27 1.23 -39.0 0 1 111.54 271.79
  Q 115.53 273.49 119.71 272.29
  Q 120.12 272.17 120.38 272.51
  Q 122.38 275.15 124.87 274.79
  Z"
/>
<path fill="#f1851d" d="
  M 316.75 288.50
  L 381.24 288.51
  L 387.87 288.69
  Q 388.39 288.70 388.83 288.97
  L 391.19 290.39
  A 1.26 1.26 0.0 0 1 391.48 292.31
  C 388.79 295.29 386.87 299.33 383.61 301.74
  C 378.15 305.78 375.95 310.46 371.71 314.46
  C 368.89 317.13 367.15 319.28 364.67 321.52
  Q 364.22 321.93 364.08 321.33
  L 363.23 317.48
  C 363.08 308.65 360.79 301.46 351.98 298.42
  C 347.54 296.89 340.96 297.51 335.76 297.50
  C 327.54 297.50 321.09 299.71 317.89 307.37
  Q 316.46 310.80 316.48 318.32
  Q 316.53 343.29 316.49 368.25
  Q 316.25 368.29 316.10 368.92
  Q 316.00 369.36 316.00 368.91
  L 316.00 367.76
  Q 316.00 367.37 315.83 367.73
  Q 315.73 367.96 315.70 368.01
  A 0.11 0.08 -35.2 0 1 315.51 368.00
  L 316.03 363.03
  Q 316.14 361.99 315.21 362.44
  C 313.84 363.10 312.80 363.18 311.67 364.28
  C 307.90 367.95 304.19 369.31 300.16 371.87
  C 296.95 373.91 293.28 374.58 290.30 377.74
  Q 289.94 378.13 289.42 378.26
  Q 287.47 378.77 286.07 380.23
  Q 285.76 380.55 285.31 380.63
  L 282.25 381.16
  Q 281.93 381.22 282.18 381.43
  Q 282.29 381.52 282.39 381.61
  Q 282.45 381.68 282.37 381.69
  Q 281.74 381.79 282.32 382.06
  Q 282.82 382.30 282.27 382.35
  L 276.43 382.90
  Q 276.00 382.94 275.67 383.20
  C 273.63 384.79 271.20 384.65 269.30 385.56
  Q 252.57 393.64 234.91 399.47
  Q 234.41 399.64 234.33 400.16
  Q 234.10 401.51 232.62 401.30
  A 0.54 0.53 -89.6 0 0 232.02 401.90
  Q 232.17 402.96 231.71 403.72
  Q 197.06 383.05 166.55 356.52
  Q 168.14 355.78 169.07 356.60
  Q 169.45 356.94 169.88 356.65
  Q 171.81 355.33 174.14 356.09
  A 0.55 0.54 -49.1 0 0 174.53 356.06
  L 177.70 354.65
  Q 178.22 354.42 178.67 354.78
  C 180.63 356.37 181.92 352.92 184.85 353.62
  Q 185.35 353.74 185.84 353.56
  Q 187.30 353.05 188.89 353.30
  A 1.39 1.38 -55.4 0 0 189.81 353.13
  Q 192.01 351.87 194.47 351.88
  A 1.78 1.77 29.5 0 0 195.38 351.63
  Q 197.31 350.48 199.27 351.79
  Q 199.74 352.10 200.28 351.91
  C 201.83 351.36 202.65 350.22 204.12 349.71
  C 207.65 348.48 211.46 346.24 215.26 346.25
  A 1.37 1.36 24.7 0 0 216.14 345.93
  C 217.67 344.70 223.34 343.52 225.38 343.07
  A 1.68 1.64 -74.0 0 0 226.22 342.59
  Q 227.55 341.15 229.73 340.72
  Q 233.54 339.97 237.23 337.94
  C 239.27 336.82 241.60 336.77 243.52 334.86
  A 1.31 1.30 -67.1 0 1 244.43 334.49
  Q 246.02 334.50 247.03 333.32
  A 1.68 1.67 12.0 0 1 247.82 332.81
  Q 249.71 332.26 251.54 331.60
  C 254.47 330.54 258.23 327.92 260.70 327.42
  Q 263.04 326.95 263.84 325.39
  A 1.25 1.22 -85.3 0 1 264.54 324.78
  C 268.20 323.56 274.90 317.69 278.21 319.14
  A 0.64 0.60 44.2 0 0 278.70 319.15
  Q 280.37 318.47 279.72 317.09
  A 0.89 0.88 60.7 0 1 280.03 315.98
  L 282.77 314.14
  Q 283.29 313.79 283.75 314.21
  Q 284.51 314.89 285.25 313.98
  Q 285.55 313.61 285.73 313.18
  Q 285.99 312.56 286.78 312.49
  Q 287.29 312.45 287.65 312.09
  L 291.89 307.83
  Q 292.20 307.51 292.64 307.42
  Q 293.24 307.31 293.56 307.06
  Q 299.50 302.55 305.42 298.02
  C 306.24 297.40 307.22 295.79 308.73 295.41
  Q 309.22 295.29 309.54 294.89
  Q 311.39 292.63 313.75 290.91
  C 314.82 290.14 316.31 290.72 317.22 289.90
  Q 318.06 289.15 316.75 288.50
  Z"
/>
<path fill="#eb5f14" d="
  M 381.24 288.51
  L 515.22 288.50
  Q 516.63 289.74 517.88 289.76
  A 2.40 2.40 0.0 0 1 520.08 292.99
  Q 520.04 293.08 519.36 293.26
  A 1.06 1.04 88.3 0 0 518.62 294.06
  Q 518.15 296.42 520.73 296.57
  A 0.55 0.54 -1.9 0 1 521.24 297.04
  Q 521.32 297.56 522.04 297.88
  A 2.27 1.64 -26.1 0 1 520.23 301.28
  Q 516.50 301.43 517.14 305.10
  A 0.49 0.46 54.5 0 1 517.10 305.40
  L 514.55 310.34
  Q 514.37 310.69 514.00 310.80
  L 513.18 311.04
  Q 512.65 311.20 512.61 311.76
  Q 512.43 314.89 509.46 315.27
  A 0.92 0.92 0.0 0 0 508.74 316.56
  C 511.20 322.08 506.07 321.71 503.63 324.52
  A 1.53 1.53 0.0 0 1 502.75 325.03
  Q 501.29 325.33 501.03 326.79
  Q 500.98 327.10 501.20 327.33
  L 501.43 327.55
  Q 501.49 327.62 501.41 327.67
  Q 499.72 328.65 499.34 330.56
  A 1.82 1.82 0.0 0 1 498.92 331.39
  Q 496.36 334.27 496.07 338.13
  A 0.79 0.78 78.8 0 1 495.64 338.78
  Q 494.10 339.58 495.07 340.90
  Q 495.43 341.40 495.11 341.92
  Q 494.20 343.38 492.59 343.89
  Q 492.14 344.03 492.00 344.49
  Q 491.49 346.16 489.79 346.52
  Q 489.32 346.62 489.11 347.06
  Q 488.67 347.99 487.62 348.06
  A 3.33 3.06 84.6 0 0 484.82 351.76
  Q 485.16 354.66 482.57 355.37
  Q 482.19 355.47 481.87 355.71
  Q 480.93 356.41 481.14 357.35
  Q 481.25 357.82 480.90 358.16
  C 477.84 361.13 476.05 364.94 472.95 367.23
  C 469.05 370.12 466.76 372.22 463.75 375.39
  C 462.72 376.46 462.94 377.67 462.05 378.54
  Q 455.00 385.36 448.57 392.75
  A 0.42 0.41 30.7 0 0 448.74 393.41
  Q 449.07 393.53 448.88 393.79
  A 0.27 0.27 0.0 0 1 448.50 393.85
  Q 448.19 393.60 448.10 394.08
  Q 446.16 396.33 444.15 398.51
  A 0.83 0.82 -56.6 0 1 443.22 398.71
  L 442.12 398.24
  A 0.58 0.58 0.0 0 0 441.32 398.66
  L 440.98 400.50
  Q 440.89 400.94 441.32 400.82
  L 442.18 400.58
  Q 442.45 400.51 442.49 400.78
  Q 442.54 401.21 442.78 401.50
  C 404.21 424.69 357.86 444.41 312.06 436.18
  Q 322.17 431.03 327.08 427.58
  Q 328.85 426.35 330.47 423.36
  C 344.87 423.79 362.94 425.65 363.07 405.83
  Q 363.36 361.68 363.23 317.48
  L 364.08 321.33
  Q 364.22 321.93 364.67 321.52
  C 367.15 319.28 368.89 317.13 371.71 314.46
  C 375.95 310.46 378.15 305.78 383.61 301.74
  C 386.87 299.33 388.79 295.29 391.48 292.31
  A 1.26 1.26 0.0 0 0 391.19 290.39
  L 388.83 288.97
  Q 388.39 288.70 387.87 288.69
  L 381.24 288.51
  Z"
/>
<path fill="#060200" d="
  M 363.23 317.48
  Q 363.36 361.68 363.07 405.83
  C 362.94 425.65 344.87 423.79 330.47 423.36
  C 318.46 420.38 316.50 412.76 316.50 401.08
  Q 316.50 384.67 316.49 368.25
  Q 316.53 343.29 316.48 318.32
  Q 316.46 310.80 317.89 307.37
  C 321.09 299.71 327.54 297.50 335.76 297.50
  C 340.96 297.51 347.54 296.89 351.98 298.42
  C 360.79 301.46 363.08 308.65 363.23 317.48
  Z"
/>
<path fill="#060200" d="
  M 1706.07 435.33
  C 1656.07 444.77 1649.89 364.89 1696.12 362.11
  C 1741.67 359.37 1746.42 427.71 1706.07 435.33
  Z
  M 1675.57 408.21
  C 1679.04 426.82 1701.89 435.06 1715.63 421.40
  C 1723.55 413.53 1724.83 399.63 1722.26 389.00
  C 1718.80 374.69 1705.95 367.10 1691.94 371.04
  C 1675.58 375.64 1672.88 393.80 1675.57 408.21
  Z"
/>
<path fill="#ef781b" d="
  M 316.49 368.25
  Q 316.50 384.67 316.50 401.08
  C 316.50 412.76 318.46 420.38 330.47 423.36
  Q 328.85 426.35 327.08 427.58
  Q 322.17 431.03 312.06 436.18
  Q 298.22 433.69 283.94 428.56
  Q 256.65 418.77 231.71 403.72
  Q 232.17 402.96 232.02 401.90
  A 0.54 0.53 -89.6 0 1 232.62 401.30
  Q 234.10 401.51 234.33 400.16
  Q 234.41 399.64 234.91 399.47
  Q 252.57 393.64 269.30 385.56
  C 271.20 384.65 273.63 384.79 275.67 383.20
  Q 276.00 382.94 276.43 382.90
  L 282.27 382.35
  Q 282.82 382.30 282.32 382.06
  Q 281.74 381.79 282.37 381.69
  Q 282.45 381.68 282.39 381.61
  Q 282.29 381.52 282.18 381.43
  Q 281.93 381.22 282.25 381.16
  L 285.31 380.63
  Q 285.76 380.55 286.07 380.23
  Q 287.47 378.77 289.42 378.26
  Q 289.94 378.13 290.30 377.74
  C 293.28 374.58 296.95 373.91 300.16 371.87
  C 304.19 369.31 307.90 367.95 311.67 364.28
  C 312.80 363.18 313.84 363.10 315.21 362.44
  Q 316.14 361.99 316.03 363.03
  L 315.51 368.00
  A 0.11 0.08 -35.2 0 0 315.70 368.01
  Q 315.73 367.96 315.83 367.73
  Q 316.00 367.37 316.00 367.76
  L 316.00 368.91
  Q 316.00 369.36 316.10 368.92
  Q 316.25 368.29 316.49 368.25
  Z"
/>
<path fill="#060200" d="
  M 1754.46 403.44
  L 1754.52 433.99
  A 1.01 1.01 0.0 0 1 1753.51 435.00
  L 1745.38 435.00
  Q 1744.75 435.00 1744.75 434.37
  L 1744.75 363.34
  A 0.33 0.33 0.0 0 1 1745.08 363.01
  Q 1762.87 362.99 1780.74 363.01
  C 1807.79 363.03 1809.88 398.05 1783.49 401.71
  Q 1781.99 401.91 1783.29 402.69
  C 1793.24 408.58 1800.99 423.93 1807.52 434.47
  Q 1807.85 435.00 1807.22 435.00
  L 1796.50 435.00
  A 0.96 0.93 73.7 0 1 1795.70 434.55
  Q 1790.01 425.14 1784.19 415.89
  Q 1779.75 408.82 1775.22 405.29
  C 1770.80 401.85 1760.42 402.97 1754.92 402.98
  A 0.47 0.46 -0.6 0 0 1754.46 403.44
  Z
  M 1754.48 371.34
  L 1754.44 394.54
  A 0.42 0.42 0.0 0 0 1754.86 394.96
  L 1778.53 395.00
  A 13.71 11.64 0.1 0 0 1792.26 383.38
  L 1792.26 382.62
  A 13.71 11.64 0.1 0 0 1778.57 370.96
  L 1754.90 370.92
  A 0.42 0.42 0.0 0 0 1754.48 371.34
  Z"
/>
<path fill="#060200" d="
  M 1857.24 413.00
  L 1828.20 413.00
  A 0.55 0.55 0.0 0 0 1827.68 413.36
  L 1819.96 434.64
  A 0.55 0.55 0.0 0 1 1819.44 435.00
  L 1810.60 435.00
  A 0.55 0.55 0.0 0 1 1810.09 434.25
  L 1837.41 363.35
  A 0.55 0.55 0.0 0 1 1837.93 363.00
  L 1847.06 363.00
  A 0.55 0.55 0.0 0 1 1847.57 363.34
  L 1876.60 434.24
  A 0.55 0.55 0.0 0 1 1876.09 435.00
  L 1866.50 435.00
  A 0.55 0.55 0.0 0 1 1865.98 434.65
  L 1857.76 413.35
  A 0.55 0.55 0.0 0 0 1857.24 413.00
  Z
  M 1842.27 371.78
  Q 1837.49 388.37 1830.79 404.31
  A 0.50 0.50 0.0 0 0 1831.25 405.00
  L 1853.72 405.00
  A 0.56 0.56 0.0 0 0 1854.24 404.25
  L 1842.98 374.04
  Q 1842.80 373.55 1842.96 373.06
  Q 1843.27 372.08 1842.39 371.72
  A 0.09 0.09 0.0 0 0 1842.27 371.78
  Z"
/>
<path fill="#060200" d="
  M 1892.18 434.99
  L 1883.83 435.00
  A 0.33 0.33 0.0 0 1 1883.50 434.67
  L 1883.50 363.33
  A 0.33 0.33 0.0 0 1 1883.83 363.00
  L 1893.14 363.00
  A 0.33 0.33 0.0 0 1 1893.42 363.15
  L 1930.40 418.79
  A 0.33 0.33 0.0 0 0 1931.00 418.61
  L 1931.00 363.33
  A 0.33 0.33 0.0 0 1 1931.33 363.00
  L 1939.67 363.00
  A 0.33 0.33 0.0 0 1 1940.00 363.33
  L 1940.00 434.67
  A 0.33 0.33 0.0 0 1 1939.67 435.00
  L 1930.49 435.00
  A 0.33 0.33 0.0 0 1 1930.21 434.85
  L 1893.10 378.97
  A 0.33 0.33 0.0 0 0 1892.49 379.15
  L 1892.51 434.66
  A 0.33 0.33 0.0 0 1 1892.18 434.99
  Z"
/>
</svg>
