<?xml version="1.0" encoding="UTF-8" standalone="no"?>
<!DOCTYPE svg PUBLIC "-//W3C//DTD SVG 1.1//EN" "http://www.w3.org/Graphics/SVG/1.1/DTD/svg11.dtd">
<svg xmlns="http://www.w3.org/2000/svg" version="1.1" viewBox="0.00 0.00 393.00 240.00">
<path fill="#d39b61" d="
  M 137.81 9.96
  A 0.76 0.75 86.4 0 0 137.06 10.82
  Q 141.20 40.37 159.38 62.61
  C 179.74 87.52 211.86 82.41 230.28 58.77
  Q 245.70 38.97 249.30 12.34
  A 0.07 0.06 44.0 0 1 249.43 12.34
  C 249.67 13.74 249.41 15.16 249.32 16.46
  Q 247.21 46.36 228.07 70.66
  A 0.74 0.74 0.0 0 0 228.50 71.85
  Q 228.90 71.94 229.51 71.82
  C 251.96 67.72 280.31 71.65 297.27 88.47
  A 0.66 0.66 0.0 0 1 296.46 89.51
  Q 286.01 83.16 274.41 80.39
  C 245.71 73.52 214.34 87.87 187.79 97.11
  C 155.79 108.26 118.89 116.02 88.78 94.82
  A 0.28 0.27 74.7 0 1 89.05 94.34
  C 116.65 107.20 149.61 96.84 175.89 86.57
  A 0.54 0.54 0.0 0 0 175.89 85.56
  C 157.97 78.65 145.94 65.03 138.03 47.72
  A 0.74 0.74 0.0 0 0 136.75 47.60
  C 129.67 57.54 117.95 60.29 108.01 53.26
  C 95.96 44.73 96.96 27.07 109.08 19.23
  Q 117.05 14.08 127.67 17.30
  A 0.76 0.76 0.0 0 0 128.65 16.51
  L 127.45 1.75
  Q 127.40 1.20 127.95 1.13
  Q 131.71 0.61 132.75 0.65
  Q 180.59 2.38 206.75 4.76
  Q 232.63 7.11 243.03 7.74
  Q 243.29 7.76 243.16 7.98
  Q 243.08 8.12 242.94 8.13
  Q 232.26 8.48 221.58 8.65
  C 209.66 8.84 196.07 9.74 183.25 9.81
  C 164.54 9.92 152.89 10.13 137.81 9.96
  Z
  M 106.51 36.21
  C 106.15 51.68 126.18 57.40 135.24 45.63
  A 2.16 2.16 0.0 0 0 135.54 43.52
  Q 131.73 33.82 129.54 23.75
  C 129.27 22.53 128.46 21.68 127.33 21.42
  C 116.43 18.95 106.77 24.95 106.51 36.21
  Z"
/>
<path fill="#d39b61" d="
  M 124.33 111.36
  C 140.61 119.17 158.90 117.71 175.82 112.08
  C 198.93 104.40 221.04 94.86 245.65 94.71
  C 246.98 94.71 249.23 95.48 250.97 95.20
  C 258.02 94.04 276.32 102.39 280.82 108.04
  A 0.63 0.63 0.0 0 1 279.99 108.97
  C 265.13 99.73 246.34 98.72 229.92 103.66
  C 206.60 110.68 184.82 120.48 160.20 122.45
  Q 140.00 124.07 124.00 111.90
  A 0.32 0.32 0.0 0 1 124.33 111.36
  Z"
/>
<path fill="#6c3d14" d="
  M 270.20 156.47
  A 0.39 0.39 0.0 0 0 269.51 156.73
  Q 269.48 174.28 269.51 191.98
  C 269.52 193.53 270.45 194.54 271.96 194.45
  A 0.61 0.61 0.0 0 1 272.58 195.25
  L 272.45 195.64
  Q 272.33 196.02 271.92 196.01
  Q 265.15 195.87 258.39 196.19
  Q 257.68 196.23 257.36 195.89
  Q 257.10 195.62 257.01 195.25
  A 0.58 0.58 0.0 0 1 257.39 194.56
  L 259.64 193.80
  Q 260.19 193.62 260.23 193.03
  Q 261.51 173.35 262.66 153.69
  C 262.81 151.10 263.56 148.59 260.26 147.93
  A 0.74 0.74 0.0 0 1 260.41 146.46
  L 276.04 146.48
  Q 276.50 146.48 276.50 146.95
  Q 276.50 147.12 276.50 147.28
  Q 276.50 147.81 275.99 147.94
  L 274.05 148.43
  Q 273.10 148.67 273.75 149.41
  L 304.37 184.67
  A 0.69 0.69 0.0 0 0 305.58 184.21
  L 305.24 149.58
  Q 305.23 149.01 304.71 148.76
  L 302.45 147.68
  A 0.62 0.62 0.0 0 1 302.71 146.50
  L 314.75 146.50
  A 0.50 0.50 0.0 0 1 315.25 147.01
  Q 315.25 147.14 315.25 147.28
  A 0.45 0.44 -6.0 0 1 314.88 147.73
  C 312.65 148.10 311.70 149.27 311.86 151.61
  C 313.06 169.25 313.18 180.39 314.68 193.20
  Q 314.75 193.79 315.32 193.96
  L 317.61 194.62
  A 0.44 0.44 0.0 0 1 317.93 195.08
  Q 317.86 196.35 316.74 196.30
  Q 310.59 196.03 304.42 195.98
  C 302.99 195.97 301.22 196.79 299.47 195.72
  A 0.59 0.58 -35.2 0 1 299.66 194.65
  L 302.11 194.12
  A 0.47 0.46 -16.7 0 0 302.45 193.50
  Q 301.98 192.25 300.92 191.08
  Q 285.37 173.84 270.20 156.47
  Z"
/>
<path fill="#6c3d14" d="
  M 14.84 194.34
  Q 15.71 193.99 16.29 194.62
  A 0.70 0.70 0.0 0 1 15.77 195.79
  L 1.68 195.83
  A 0.74 0.73 27.8 0 1 1.26 194.49
  Q 1.76 194.14 2.45 194.28
  A 1.40 1.40 0.0 0 0 4.13 193.01
  Q 5.61 171.90 6.93 150.74
  Q 7.09 148.20 4.31 147.88
  Q 3.73 147.82 3.81 147.25
  Q 3.91 146.48 4.76 146.49
  Q 11.69 146.59 18.65 146.51
  Q 19.52 146.50 19.08 147.32
  Q 19.02 147.43 19.01 147.59
  A 0.19 0.18 -7.4 0 1 18.88 147.75
  L 16.64 148.45
  A 0.62 0.62 0.0 0 0 16.29 149.34
  L 33.67 180.52
  A 0.47 0.47 0.0 0 0 34.49 180.52
  L 51.70 149.43
  Q 52.02 148.85 51.42 148.57
  L 49.36 147.62
  A 0.59 0.59 0.0 0 1 49.61 146.50
  L 64.30 146.50
  A 0.49 0.49 0.0 0 1 64.52 147.43
  L 62.18 148.62
  Q 61.69 148.86 61.73 149.41
  L 64.78 193.40
  Q 64.82 193.97 65.38 194.12
  L 67.18 194.60
  A 0.66 0.66 0.0 0 1 67.00 195.90
  L 52.16 195.69
  A 0.17 0.17 0.0 0 1 52.00 195.52
  Q 52.00 195.38 52.00 195.24
  Q 52.00 195.03 52.20 194.98
  C 53.87 194.59 54.75 193.71 54.75 191.88
  Q 54.73 174.52 54.79 157.27
  A 0.40 0.40 0.0 0 0 54.04 157.07
  L 34.36 192.94
  Q 34.07 193.46 33.78 192.94
  L 14.18 157.24
  A 0.53 0.53 0.0 0 0 13.36 157.11
  Q 12.78 157.64 13.08 158.38
  Q 13.24 158.79 13.24 159.23
  L 13.26 193.27
  A 1.16 1.15 79.0 0 0 14.84 194.34
  Z"
/>
<path fill="#6c3d14" d="
  M 92.26 194.18
  L 94.03 194.47
  Q 94.58 194.56 94.51 195.12
  Q 94.45 195.54 94.06 195.78
  Q 93.78 195.96 93.27 195.93
  Q 86.20 195.46 79.14 196.06
  A 0.59 0.59 0.0 0 1 78.50 195.47
  L 78.50 194.76
  A 0.52 0.51 -85.7 0 1 79.09 194.25
  Q 81.25 194.59 82.19 192.69
  Q 94.68 167.55 103.19 151.18
  Q 104.73 148.21 101.12 147.83
  A 0.53 0.53 0.0 0 1 100.71 147.06
  Q 100.99 146.50 101.75 146.51
  Q 112.42 146.55 118.64 146.83
  A 0.41 0.41 0.0 0 1 118.80 147.61
  L 117.19 148.36
  A 1.26 1.26 0.0 0 0 116.61 150.10
  Q 127.99 171.31 139.12 191.61
  C 139.93 193.10 141.24 194.25 142.70 194.85
  A 0.57 0.56 56.6 0 1 142.48 195.94
  L 126.24 195.67
  Q 125.74 195.66 125.99 195.23
  L 126.17 194.94
  A 0.39 0.37 -81.5 0 1 126.40 194.76
  L 129.27 193.92
  A 0.70 0.70 0.0 0 0 129.70 192.95
  L 124.31 181.51
  A 0.89 0.88 77.3 0 0 123.51 181.00
  L 97.59 181.00
  A 1.60 1.59 11.9 0 0 96.13 181.94
  L 91.38 192.55
  A 1.17 1.17 0.0 0 0 92.26 194.18
  Z
  M 99.32 174.48
  A 0.58 0.58 0.0 0 0 99.85 175.30
  L 120.26 175.05
  A 0.58 0.58 0.0 0 0 120.77 174.22
  L 110.31 152.52
  A 0.58 0.58 0.0 0 0 109.25 152.53
  L 99.32 174.48
  Z"
/>
<path fill="#6c3d14" d="
  M 189.88 173.34
  A 0.61 0.61 0.0 0 0 189.43 174.33
  C 194.94 181.16 200.44 189.63 207.05 195.19
  A 0.48 0.48 0.0 0 1 206.74 196.04
  L 192.86 195.87
  A 0.44 0.44 0.0 0 1 192.54 195.14
  L 193.97 193.55
  Q 194.39 193.08 194.05 192.54
  L 182.52 174.57
  A 2.34 2.33 73.5 0 0 180.56 173.50
  L 164.26 173.50
  A 0.50 0.50 0.0 0 0 163.76 174.00
  C 163.73 177.75 162.58 188.59 164.30 193.83
  Q 164.48 194.38 165.05 194.26
  Q 165.81 194.10 166.44 194.47
  A 0.73 0.73 0.0 0 1 166.07 195.82
  L 153.78 195.82
  A 0.54 0.53 90.0 0 1 153.25 195.28
  L 153.25 195.03
  Q 153.25 194.61 153.67 194.56
  Q 156.32 194.27 156.37 191.06
  Q 156.84 162.72 156.77 149.20
  A 0.78 0.77 -77.3 0 0 156.33 148.50
  L 154.69 147.69
  A 0.61 0.61 0.0 0 1 154.67 146.61
  Q 154.97 146.45 155.31 146.53
  A 1.02 0.01 14.8 0 0 156.26 146.77
  Q 181.87 146.70 189.98 146.78
  C 208.93 146.97 209.28 172.55 189.88 173.34
  Z
  M 163.47 152.99
  L 163.51 166.95
  A 0.64 0.64 0.0 0 0 164.16 167.58
  L 188.39 167.50
  A 7.41 6.32 -0.2 0 0 195.77 161.15
  L 195.77 158.55
  A 7.41 6.32 -0.2 0 0 188.33 152.26
  L 164.10 152.34
  A 0.64 0.64 0.0 0 0 163.47 152.99
  Z"
/>
<path fill="#6c3d14" d="
  M 226.02 148.36
  L 224.63 147.81
  A 0.67 0.67 0.0 0 1 224.88 146.51
  L 236.54 146.50
  A 0.49 0.49 0.0 0 1 236.82 147.40
  L 234.91 148.67
  A 0.92 0.91 -17.6 0 0 234.50 149.45
  C 234.55 153.48 234.20 157.59 234.33 161.40
  Q 234.86 177.40 235.40 193.39
  Q 235.43 194.12 236.17 194.18
  L 237.55 194.29
  Q 238.03 194.33 238.15 194.80
  Q 238.53 196.25 237.44 196.21
  Q 230.14 195.97 223.11 196.19
  A 0.71 0.71 0.0 0 1 222.47 195.13
  L 222.80 194.56
  Q 223.08 194.08 223.62 194.20
  Q 225.58 194.63 225.66 192.68
  C 226.28 178.20 227.24 163.66 226.58 149.16
  Q 226.55 148.58 226.02 148.36
  Z"
/>
<path fill="#6c3d14" d="
  M 393.00 194.76
  L 393.00 195.86
  L 376.11 195.99
  A 0.73 0.73 0.0 0 1 375.82 194.59
  Q 376.87 194.15 378.09 194.24
  A 1.10 1.10 0.0 0 0 379.16 192.67
  L 373.96 181.78
  A 1.38 1.36 -12.6 0 0 372.72 181.00
  L 347.10 181.00
  A 1.46 1.45 -77.6 0 0 345.78 181.85
  L 340.86 192.69
  A 1.06 1.06 0.0 0 0 341.67 194.18
  L 343.12 194.40
  A 0.82 0.82 0.0 0 1 342.91 196.02
  Q 336.42 195.29 329.74 196.23
  Q 328.96 196.34 328.30 195.91
  A 0.78 0.78 0.0 0 1 328.57 194.49
  C 330.23 194.16 331.47 193.23 332.28 191.63
  Q 342.88 170.68 353.39 149.68
  A 0.79 0.78 25.6 0 0 353.01 148.61
  L 350.52 147.47
  A 0.44 0.43 17.4 0 1 350.27 147.00
  Q 350.36 146.53 350.81 146.53
  Q 359.57 146.47 368.55 146.51
  A 0.51 0.50 -58.8 0 1 368.78 147.46
  L 366.80 148.53
  A 1.21 1.21 0.0 0 0 366.30 150.17
  Q 377.72 171.34 389.25 192.51
  Q 390.15 194.16 393.00 194.76
  Z
  M 348.81 174.59
  A 0.51 0.51 0.0 0 0 349.28 175.31
  L 370.00 175.02
  A 0.51 0.51 0.0 0 0 370.45 174.29
  L 359.78 152.53
  A 0.51 0.51 0.0 0 0 358.86 152.54
  L 348.81 174.59
  Z"
/>
<path fill="#6c3d14" d="
  M 69.19 218.52
  Q 69.32 218.85 69.22 219.11
  Q 69.05 219.52 68.66 219.34
  C 52.84 212.10 50.37 240.73 68.51 234.45
  A 0.57 0.56 80.8 0 1 69.25 234.99
  L 69.25 237.78
  Q 69.25 238.50 68.55 238.65
  C 42.86 244.18 46.70 208.22 68.65 215.27
  Q 69.14 215.42 69.21 215.93
  Q 69.36 216.90 69.15 217.77
  Q 69.05 218.15 69.19 218.52
  Z"
/>
<path fill="#6c3d14" d="
  M 99.6260 228.5498
  A 10.52 10.52 0.0 0 1 89.1428 239.1065
  L 87.1628 239.1134
  A 10.52 10.52 0.0 0 1 76.6061 228.6302
  L 76.5940 225.1502
  A 10.52 10.52 0.0 0 1 87.0772 214.5935
  L 89.0572 214.5866
  A 10.52 10.52 0.0 0 1 99.6139 225.0698
  L 99.6260 228.5498
  Z
  M 88.2045 235.2997
  A 8.54 6.75 89.5 0 0 94.8797 226.7011
  A 8.54 6.75 89.5 0 0 88.0555 218.2203
  A 8.54 6.75 89.5 0 0 81.3803 226.8189
  A 8.54 6.75 89.5 0 0 88.2045 235.2997
  Z"
/>
<path fill="#6c3d14" d="
  M 254.4364 239.5177
  A 12.69 12.05 91.1 0 1 242.6322 226.5987
  A 12.69 12.05 91.1 0 1 254.9236 214.1423
  A 12.69 12.05 91.1 0 1 266.7278 227.0613
  A 12.69 12.05 91.1 0 1 254.4364 239.5177
  Z
  M 254.5947 235.6097
  A 8.56 6.70 89.5 0 0 261.2197 226.9915
  A 8.56 6.70 89.5 0 0 254.4453 218.4903
  A 8.56 6.70 89.5 0 0 247.8203 227.1085
  A 8.56 6.70 89.5 0 0 254.5947 235.6097
  Z"
/>
<path fill="#6c3d14" d="
  M 305.03 225.27
  C 302.91 222.01 304.38 217.24 307.88 215.31
  C 310.30 213.98 314.13 214.46 317.02 214.64
  A 1.32 1.32 0.0 0 1 318.27 215.97
  L 318.24 219.00
  Q 318.24 219.77 317.56 219.42
  C 315.39 218.32 310.46 217.50 309.46 220.65
  C 307.91 225.49 322.85 224.39 319.55 234.30
  C 317.60 240.18 310.04 239.81 305.13 238.65
  A 0.88 0.88 0.0 0 1 304.46 237.70
  L 304.81 234.50
  Q 304.88 233.88 305.48 234.04
  C 308.75 234.96 310.33 236.10 313.81 234.08
  A 1.89 1.89 0.0 0 0 313.86 230.84
  C 311.03 229.09 306.74 227.90 305.03 225.27
  Z"
/>
<path fill="#6c3d14" d="
  M 295.23 215.67
  C 295.33 221.42 295.50 227.49 294.59 233.10
  C 293.64 239.01 287.20 240.00 282.17 239.02
  C 276.43 237.90 275.34 234.76 275.26 229.13
  Q 275.16 222.27 275.29 215.41
  A 0.68 0.67 -89.1 0 1 275.96 214.75
  L 279.77 214.75
  A 0.66 0.66 0.0 0 1 280.43 215.40
  C 280.53 220.78 279.92 226.97 280.86 232.13
  C 281.82 237.39 289.92 235.61 289.96 230.18
  Q 290.02 222.83 290.00 215.47
  A 0.72 0.71 -0.4 0 1 290.72 214.75
  L 294.29 214.75
  A 0.94 0.94 0.0 0 1 295.23 215.67
  Z"
/>
<path fill="#6c3d14" d="
  M 334.21 224.50
  L 341.79 224.50
  A 0.46 0.46 0.0 0 1 342.25 224.96
  L 342.25 227.79
  A 0.46 0.46 0.0 0 1 341.79 228.25
  L 334.21 228.25
  A 0.46 0.46 0.0 0 0 333.75 228.71
  L 333.75 234.54
  A 0.46 0.46 0.0 0 0 334.21 235.00
  L 342.63 235.00
  A 0.46 0.46 0.0 0 1 343.09 235.47
  L 343.01 238.35
  A 0.46 0.46 0.0 0 1 342.55 238.80
  L 329.21 238.80
  A 0.46 0.46 0.0 0 1 328.75 238.34
  L 328.75 215.49
  A 0.46 0.46 0.0 0 1 329.21 215.03
  L 342.54 214.95
  A 0.46 0.46 0.0 0 1 343.00 215.41
  L 343.00 218.29
  A 0.46 0.46 0.0 0 1 342.54 218.75
  L 334.21 218.75
  A 0.46 0.46 0.0 0 0 333.75 219.21
  L 333.75 224.04
  A 0.46 0.46 0.0 0 0 334.21 224.50
  Z"
/>
<path fill="#6c3d14" d="
  M 114.39 224.50
  L 121.37 224.50
  A 0.58 0.58 0.0 0 1 121.95 225.14
  L 121.66 227.73
  A 0.58 0.58 0.0 0 1 121.08 228.25
  L 114.25 228.25
  A 0.58 0.58 0.0 0 0 113.67 228.85
  L 113.93 237.86
  A 0.58 0.58 0.0 0 1 113.39 238.45
  L 109.86 238.65
  A 0.58 0.58 0.0 0 1 109.25 238.07
  L 109.25 215.83
  A 0.58 0.58 0.0 0 1 109.83 215.25
  L 121.67 215.25
  A 0.58 0.58 0.0 0 1 122.25 215.83
  L 122.25 217.92
  A 0.58 0.58 0.0 0 1 121.67 218.50
  L 114.35 218.50
  A 0.58 0.58 0.0 0 0 113.77 219.08
  L 113.81 223.92
  A 0.58 0.58 0.0 0 0 114.39 224.50
  Z"
/>
<path fill="#6c3d14" d="
  M 135.75 219.00
  L 135.75 223.93
  Q 135.75 224.54 136.36 224.54
  L 142.19 224.48
  Q 144.04 224.47 143.88 226.31
  C 143.61 229.48 138.99 228.04 136.23 228.38
  A 0.67 0.66 86.6 0 0 135.65 229.04
  L 135.74 237.81
  A 0.67 0.67 0.0 0 1 135.07 238.49
  L 131.90 238.49
  A 0.65 0.65 0.0 0 1 131.25 237.84
  L 131.25 215.75
  Q 131.25 215.25 131.75 215.25
  L 143.53 215.25
  A 0.68 0.68 0.0 0 1 144.20 216.02
  L 143.92 218.06
  Q 143.87 218.50 143.43 218.50
  L 136.25 218.50
  Q 135.75 218.50 135.75 219.00
  Z"
/>
<path fill="#6c3d14" d="
  M 158.12 235.25
  L 166.35 235.25
  A 0.64 0.64 0.0 0 1 166.99 235.89
  L 166.99 238.17
  A 0.64 0.64 0.0 0 1 166.34 238.81
  L 153.66 238.60
  A 0.64 0.64 0.0 0 1 153.03 237.96
  L 152.95 215.89
  A 0.64 0.64 0.0 0 1 153.59 215.25
  L 166.38 215.25
  A 0.64 0.64 0.0 0 1 167.01 215.98
  L 166.74 217.95
  A 0.64 0.64 0.0 0 1 166.10 218.50
  L 158.42 218.50
  A 0.64 0.64 0.0 0 0 157.78 219.12
  L 157.67 223.84
  A 0.64 0.64 0.0 0 0 158.31 224.50
  L 165.61 224.50
  A 0.64 0.64 0.0 0 1 166.25 225.14
  L 166.25 227.61
  A 0.64 0.64 0.0 0 1 165.61 228.25
  L 158.20 228.25
  A 0.64 0.64 0.0 0 0 157.56 228.88
  L 157.48 234.60
  A 0.64 0.64 0.0 0 0 158.12 235.25
  Z"
/>
<path fill="#6c3d14" d="
  M 181.76 235.13
  Q 185.58 235.83 189.39 235.17
  Q 190.00 235.07 190.35 235.59
  Q 191.09 236.71 190.52 238.00
  Q 190.30 238.50 189.75 238.50
  L 177.50 238.50
  Q 176.75 238.50 176.75 237.75
  L 176.75 216.00
  Q 176.75 215.25 177.50 215.25
  L 190.01 215.25
  A 0.65 0.65 0.0 0 1 190.66 215.96
  L 190.45 218.04
  Q 190.41 218.50 189.95 218.50
  L 182.06 218.50
  Q 181.61 218.50 181.58 218.95
  L 181.27 224.00
  Q 181.24 224.50 181.75 224.50
  L 189.13 224.50
  Q 189.75 224.50 189.75 225.13
  L 189.75 227.50
  Q 189.75 228.25 189.00 228.25
  L 181.94 228.25
  Q 181.44 228.25 181.42 228.75
  L 181.21 234.44
  Q 181.19 235.02 181.76 235.13
  Z"
/>
<path fill="#6c3d14" d="
  M 219.77 224.50
  L 228.60 224.50
  A 0.52 0.52 0.0 0 0 229.12 223.96
  L 228.82 215.79
  A 0.52 0.52 0.0 0 1 229.34 215.25
  L 233.00 215.25
  A 0.52 0.52 0.0 0 1 233.52 215.77
  L 233.49 238.10
  A 0.52 0.52 0.0 0 1 232.94 238.62
  L 229.43 238.45
  A 0.52 0.52 0.0 0 1 228.94 237.92
  L 229.03 228.78
  A 0.52 0.52 0.0 0 0 228.51 228.25
  L 219.74 228.25
  A 0.52 0.52 0.0 0 0 219.22 228.77
  L 219.30 237.98
  A 0.52 0.52 0.0 0 1 218.78 238.50
  L 215.27 238.50
  A 0.52 0.52 0.0 0 1 214.75 237.98
  L 214.75 215.77
  A 0.52 0.52 0.0 0 1 215.27 215.25
  L 218.74 215.25
  A 0.52 0.52 0.0 0 1 219.26 215.77
  L 219.25 223.98
  A 0.52 0.52 0.0 0 0 219.77 224.50
  Z"
/>
<rect fill="#6c3d14" x="0.85" y="224.76" width="36.56" height="4.24" rx="0.54"/>
<path fill="#6c3d14" d="
  M 393.00 224.85
  L 393.00 228.95
  L 356.96 228.97
  Q 356.25 228.97 356.25 228.26
  L 356.25 225.49
  A 0.72 0.72 0.0 0 1 356.97 224.77
  L 393.00 224.85
  Z"
/>
</svg>
