<?xml version="1.0" encoding="UTF-8" standalone="no"?>
<!DOCTYPE svg PUBLIC "-//W3C//DTD SVG 1.1//EN" "http://www.w3.org/Graphics/SVG/1.1/DTD/svg11.dtd">
<svg xmlns="http://www.w3.org/2000/svg" version="1.1" viewBox="0.00 0.00 540.00 320.00">
<g stroke-width="2.00" fill="none" stroke-linecap="butt">
<path stroke="#e0a58e" vector-effect="non-scaling-stroke" d="
  M 530.00 10.58
  A 0.58 0.58 0.0 0 0 529.42 10.00
  L 10.58 10.00
  A 0.58 0.58 0.0 0 0 10.00 10.58
  L 10.00 309.42
  A 0.58 0.58 0.0 0 0 10.58 310.00
  L 529.42 310.00
  A 0.58 0.58 0.0 0 0 530.00 309.42
  L 530.00 10.58"
/>
<path stroke="#e0a58e" vector-effect="non-scaling-stroke" d="
  M 185.1406 80.0600
  A 6.08 4.02 89.9 0 0 189.1500 73.9730
  A 6.08 4.02 89.9 0 0 185.1194 67.9000
  A 6.08 4.02 89.9 0 0 181.1100 73.9870
  A 6.08 4.02 89.9 0 0 185.1406 80.0600"
/>
<path stroke="#e0a58e" vector-effect="non-scaling-stroke" d="
  M 62.66 116.55
  A 0.55 0.55 0.0 0 1 63.21 116.00
  L 114.45 116.00
  A 0.55 0.55 0.0 0 1 115.00 116.55
  L 115.00 158.45
  A 0.55 0.55 0.0 0 0 115.55 159.00
  L 120.70 159.00
  A 0.55 0.55 0.0 0 0 121.25 158.45
  L 121.25 70.65
  A 0.55 0.55 0.0 0 0 120.72 70.10
  L 115.57 69.96
  A 0.55 0.55 0.0 0 0 115.00 70.51
  L 115.00 109.45
  A 0.55 0.55 0.0 0 1 114.45 110.00
  L 63.33 110.00
  A 0.55 0.55 0.0 0 1 62.78 109.45
  L 62.85 70.55
  A 0.55 0.55 0.0 0 0 62.30 70.00
  L 57.15 70.00
  A 0.55 0.55 0.0 0 0 56.60 70.55
  L 56.67 158.45
  A 0.55 0.55 0.0 0 0 57.22 159.00
  L 62.45 159.00
  A 0.55 0.55 0.0 0 0 63.00 158.45
  L 62.66 116.55"
/>
<path stroke="#e0a58e" vector-effect="non-scaling-stroke" d="
  M 273.23 152.77
  C 262.42 155.17 252.76 153.77 242.56 149.16
  Q 242.00 148.90 242.00 149.52
  L 242.00 155.24
  A 0.77 0.77 0.0 0 0 242.43 155.93
  C 253.47 161.17 275.99 162.68 284.95 152.96
  C 293.01 144.22 289.34 131.28 278.93 126.55
  Q 274.09 124.35 258.20 117.81
  C 253.59 115.92 249.60 111.69 249.89 106.49
  C 250.20 100.65 256.55 98.20 261.49 97.53
  Q 273.72 95.87 285.15 100.98
  Q 285.61 101.19 285.80 100.72
  L 287.73 95.97
  Q 287.95 95.41 287.40 95.17
  C 275.52 90.06 244.06 86.38 243.75 107.27
  C 243.43 128.99 280.25 123.84 283.04 140.55
  C 284.11 147.00 279.15 151.45 273.23 152.77"
/>
<path stroke="#e0a58e" vector-effect="non-scaling-stroke" d="
  M 453.84 103.70
  L 453.28 93.62
  Q 453.25 93.00 452.62 93.00
  L 448.75 93.00
  Q 448.00 93.00 448.00 93.75
  L 448.00 158.38
  Q 448.00 159.00 448.63 159.00
  L 453.70 159.00
  Q 454.28 159.00 454.28 158.42
  Q 454.17 138.86 454.33 119.33
  Q 454.40 109.27 461.97 101.69
  C 467.24 96.41 474.57 96.37 481.52 97.98
  A 0.58 0.57 11.7 0 0 482.21 97.53
  L 483.09 92.63
  Q 483.17 92.18 482.73 92.06
  Q 463.48 87.05 454.54 103.85
  A 0.37 0.37 0.0 0 1 453.84 103.70"
/>
<path stroke="#e0a58e" vector-effect="non-scaling-stroke" d="
  M 382.39 120.98
  C 368.53 121.20 338.62 120.41 339.00 141.74
  C 339.23 154.82 348.65 160.23 360.66 160.01
  Q 373.63 159.77 382.13 148.87
  A 0.44 0.44 0.0 0 1 382.92 149.08
  L 384.29 158.44
  Q 384.37 159.00 384.94 159.00
  L 388.26 159.00
  Q 388.84 159.00 388.83 158.42
  C 388.59 142.76 389.20 127.10 388.54 111.46
  C 387.52 87.16 360.70 89.55 346.03 97.67
  Q 345.56 97.93 345.76 98.43
  L 347.41 102.45
  A 0.88 0.87 64.6 0 0 348.64 102.89
  C 355.80 98.93 367.79 96.00 375.32 99.74
  C 382.58 103.35 383.53 113.03 382.90 120.50
  Q 382.86 120.97 382.39 120.98"
/>
<path stroke="#e0a58e" vector-effect="non-scaling-stroke" d="
  M 188.26 93.52
  A 0.52 0.52 0.0 0 0 187.74 93.00
  L 182.52 93.00
  A 0.52 0.52 0.0 0 0 182.00 93.52
  L 182.00 158.48
  A 0.52 0.52 0.0 0 0 182.52 159.00
  L 187.74 159.00
  A 0.52 0.52 0.0 0 0 188.26 158.48
  L 188.26 93.52"
/>
<path stroke="#e0a58e" vector-effect="non-scaling-stroke" d="
  M 342.8995 186.9900
  A 1.50 1.10 90.4 0 0 344.0100 185.4977
  A 1.50 1.10 90.4 0 0 342.9205 183.9900
  A 1.50 1.10 90.4 0 0 341.8100 185.4823
  A 1.50 1.10 90.4 0 0 342.8995 186.9900"
/>
<path stroke="#e0a58e" vector-effect="non-scaling-stroke" d="
  M 96.51 188.60
  A 0.60 0.60 0.0 0 0 95.91 188.00
  L 95.35 188.00
  A 0.60 0.60 0.0 0 0 94.75 188.60
  L 94.75 212.40
  A 0.60 0.60 0.0 0 0 95.35 213.00
  L 95.91 213.00
  A 0.60 0.60 0.0 0 0 96.51 212.40
  L 96.51 188.60"
/>
<path stroke="#e0a58e" vector-effect="non-scaling-stroke" d="
  M 67.57 205.00
  L 76.01 205.00
  Q 76.56 205.00 76.78 205.49
  Q 78.26 208.72 79.46 212.07
  Q 79.69 212.70 80.11 212.89
  Q 80.64 213.14 81.23 212.92
  Q 81.73 212.73 81.54 212.23
  L 72.79 189.56
  A 0.86 0.86 0.0 0 0 71.19 189.55
  L 62.21 212.30
  Q 61.93 213.00 62.68 213.00
  L 63.31 213.00
  Q 63.88 213.00 64.09 212.47
  L 67.00 205.38
  Q 67.16 205.00 67.57 205.00"
/>
<path stroke="#e0a58e" vector-effect="non-scaling-stroke" d="
  M 116.3436 192.0290
  A 1.54 1.17 92.1 0 0 117.5692 190.5329
  A 1.54 1.17 92.1 0 0 116.4564 188.9510
  A 1.54 1.17 92.1 0 0 115.2308 190.4471
  A 1.54 1.17 92.1 0 0 116.3436 192.0290"
/>
<path stroke="#e0a58e" vector-effect="non-scaling-stroke" d="
  M 123.5066 189.8638
  A 0.86 0.86 0.0 0 0 122.6157 189.0359
  L 122.3359 189.0461
  A 0.86 0.86 0.0 0 0 121.5080 189.9371
  L 121.5534 191.1762
  A 0.86 0.86 0.0 0 0 122.4443 192.0041
  L 122.7241 191.9939
  A 0.86 0.86 0.0 0 0 123.5520 191.1029
  L 123.5066 189.8638"
/>
<path stroke="#e0a58e" vector-effect="non-scaling-stroke" d="
  M 183.7006 189.7783
  A 0.82 0.82 0.0 0 0 182.8470 188.9934
  L 182.4674 189.0093
  A 0.82 0.82 0.0 0 0 181.6824 189.8629
  L 181.7394 191.2217
  A 0.82 0.82 0.0 0 0 182.5930 192.0066
  L 182.9726 191.9907
  A 0.82 0.82 0.0 0 0 183.7576 191.1371
  L 183.7006 189.7783"
/>
<path stroke="#e0a58e" vector-effect="non-scaling-stroke" d="
  M 344.00 189.57
  A 0.54 0.54 0.0 0 0 343.46 189.03
  L 342.80 189.03
  A 0.54 0.54 0.0 0 0 342.26 189.57
  L 342.26 212.47
  A 0.54 0.54 0.0 0 0 342.80 213.01
  L 343.46 213.01
  A 0.54 0.54 0.0 0 0 344.00 212.47
  L 344.00 189.57"
/>
<path stroke="#e0a58e" vector-effect="non-scaling-stroke" d="
  M 474.45 210.91
  A 1.76 1.76 0.0 0 1 472.76 209.15
  L 472.75 197.63
  Q 472.75 197.00 473.37 197.00
  L 476.58 197.00
  Q 477.12 197.00 477.54 196.67
  Q 478.46 195.96 477.41 195.23
  Q 477.08 195.00 476.69 195.00
  L 473.30 195.00
  A 0.62 0.62 0.0 0 1 472.68 194.37
  L 472.72 191.42
  A 0.53 0.53 0.0 0 0 471.67 191.30
  L 471.00 194.45
  A 0.67 0.66 -3.2 0 1 470.56 194.94
  L 468.42 195.65
  A 0.58 0.58 0.0 0 0 468.51 196.78
  L 470.42 197.09
  A 0.81 0.81 0.0 0 1 471.09 197.93
  C 470.70 203.61 468.95 214.87 477.26 212.76
  Q 478.33 212.49 478.35 211.55
  Q 478.35 211.07 477.87 211.05
  L 474.45 210.91"
/>
<path stroke="#e0a58e" vector-effect="non-scaling-stroke" d="
  M 124.98 211.76
  Q 124.85 212.80 125.84 213.02
  A 0.76 0.76 0.0 0 0 126.75 212.28
  L 126.75 195.75
  Q 126.75 195.00 126.00 195.00
  L 125.53 195.00
  A 0.62 0.62 0.0 0 0 124.91 195.66
  C 125.12 198.93 125.82 207.32 123.08 209.67
  C 120.74 211.66 114.47 211.70 114.49 207.50
  Q 114.52 201.55 114.49 195.57
  Q 114.49 194.96 113.89 194.99
  L 113.24 195.03
  Q 112.59 195.06 112.62 195.70
  Q 112.95 203.56 112.74 206.48
  C 112.25 213.39 119.77 214.77 124.15 211.30
  Q 125.13 210.52 124.98 211.76"
/>
<path stroke="#e0a58e" vector-effect="non-scaling-stroke" d="
  M 143.48 196.72
  Q 143.73 195.69 143.01 195.12
  A 0.78 0.78 0.0 0 0 141.75 195.73
  L 141.75 212.25
  Q 141.75 213.00 142.50 213.00
  L 143.01 213.00
  Q 143.71 213.00 143.66 212.30
  C 143.28 206.50 142.38 197.88 147.74 197.05
  C 155.06 195.91 152.72 208.16 152.77 212.32
  Q 152.78 213.00 153.46 213.00
  L 153.99 213.00
  Q 154.52 213.00 154.51 212.47
  C 154.47 209.20 153.80 202.41 155.17 199.58
  C 156.96 195.90 163.50 195.84 163.68 200.81
  Q 163.89 206.61 163.64 212.42
  Q 163.62 213.00 164.20 213.00
  L 164.80 213.00
  Q 165.50 213.00 165.50 212.30
  C 165.49 208.28 166.34 200.29 164.41 197.25
  C 162.32 193.98 157.46 194.27 154.72 197.28
  Q 154.29 197.75 153.83 197.30
  Q 149.06 192.63 144.02 197.04
  Q 143.25 197.71 143.48 196.72"
/>
<path stroke="#e0a58e" vector-effect="non-scaling-stroke" d="
  M 183.5247 195.5915
  A 0.56 0.56 0.0 0 0 182.9657 195.0306
  L 182.3257 195.0295
  A 0.56 0.56 0.0 0 0 181.7647 195.5885
  L 181.7353 212.4085
  A 0.56 0.56 0.0 0 0 182.2943 212.9694
  L 182.9343 212.9705
  A 0.56 0.56 0.0 0 0 183.4953 212.4115
  L 183.5247 195.5915"
/>
<path stroke="#e0a58e" vector-effect="non-scaling-stroke" d="
  M 200.50 196.74
  L 200.50 195.75
  Q 200.50 195.00 199.75 195.00
  L 199.37 195.00
  Q 198.75 195.00 198.75 195.63
  L 198.75 212.50
  Q 198.75 213.00 199.25 213.00
  L 199.96 213.00
  A 0.58 0.58 0.0 0 0 200.54 212.40
  C 200.37 207.18 198.50 195.06 208.09 197.25
  C 212.55 198.26 211.02 208.63 210.99 212.23
  Q 210.99 212.72 211.44 212.93
  Q 212.06 213.21 212.47 212.93
  Q 212.86 212.65 212.84 211.82
  C 212.76 208.38 213.54 200.03 211.79 197.34
  C 209.42 193.68 203.95 194.72 201.02 196.99
  Q 200.50 197.40 200.50 196.74"
/>
<path stroke="#e0a58e" vector-effect="non-scaling-stroke" d="
  M 233.27 210.52
  Q 230.80 203.19 228.02 195.89
  Q 227.81 195.35 227.45 195.13
  Q 226.96 194.84 226.52 194.99
  Q 225.98 195.19 226.18 195.72
  L 232.42 212.49
  Q 232.57 212.90 232.47 213.32
  C 231.74 216.25 230.26 219.36 226.65 218.99
  Q 226.19 218.94 226.06 219.39
  Q 225.67 220.76 227.02 220.98
  C 230.43 221.54 231.84 219.48 233.02 216.47
  Q 237.04 206.23 240.85 195.92
  Q 241.08 195.31 240.45 195.11
  L 240.09 194.99
  Q 239.47 194.80 239.25 195.41
  L 233.75 210.52
  A 0.26 0.25 -44.6 0 1 233.27 210.52"
/>
<path stroke="#e0a58e" vector-effect="non-scaling-stroke" d="
  M 266.00 211.50
  L 266.00 212.37
  A 0.63 0.63 0.0 0 0 266.63 213.00
  L 267.00 213.00
  Q 267.50 213.00 267.50 212.50
  L 267.50 195.73
  Q 267.50 195.00 266.77 195.00
  Q 266.60 195.00 266.42 195.00
  Q 265.76 195.00 265.76 195.65
  C 265.76 198.96 266.61 206.51 264.54 209.04
  C 262.33 211.74 255.47 211.97 255.49 207.50
  Q 255.52 201.55 255.49 195.57
  Q 255.49 194.96 254.89 194.99
  L 254.23 195.03
  Q 253.67 195.06 253.68 195.62
  C 253.78 199.52 252.81 208.21 255.05 211.04
  C 257.27 213.84 262.57 213.68 265.29 211.19
  Q 266.00 210.55 266.00 211.50"
/>
<path stroke="#e0a58e" vector-effect="non-scaling-stroke" d="
  M 285.48 196.72
  Q 285.73 195.69 285.01 195.12
  A 0.78 0.78 0.0 0 0 283.75 195.73
  L 283.75 212.25
  Q 283.75 213.00 284.50 213.00
  L 284.96 213.00
  Q 285.54 213.00 285.52 212.42
  C 285.40 207.94 283.65 193.61 293.26 197.64
  Q 293.73 197.84 293.98 198.27
  C 295.53 200.93 294.75 208.98 294.77 212.31
  Q 294.77 213.00 295.46 213.00
  L 295.99 213.00
  Q 296.52 213.00 296.51 212.47
  C 296.47 209.14 295.83 202.61 297.14 199.70
  C 298.89 195.81 305.65 195.83 305.76 201.00
  Q 305.89 206.68 305.67 212.35
  Q 305.64 212.94 306.23 212.97
  L 306.89 213.01
  Q 307.47 213.03 307.48 212.45
  C 307.54 208.14 309.01 197.10 304.18 195.35
  Q 299.70 193.73 296.63 197.40
  Q 296.28 197.82 295.89 197.43
  Q 291.14 192.55 286.01 197.04
  Q 285.25 197.70 285.48 196.72"
/>
<path stroke="#e0a58e" vector-effect="non-scaling-stroke" d="
  M 361.50 196.74
  L 361.50 195.75
  Q 361.50 195.00 360.75 195.00
  L 360.38 195.00
  Q 359.75 195.00 359.75 195.63
  L 359.75 212.37
  Q 359.75 213.00 360.38 213.00
  L 361.00 213.00
  Q 361.67 213.00 361.62 212.34
  C 361.24 207.43 359.73 197.11 367.26 197.02
  Q 371.74 196.96 371.83 201.23
  Q 371.96 206.78 372.05 212.34
  Q 372.06 213.00 372.72 213.00
  L 373.24 213.00
  Q 373.87 213.00 373.84 212.37
  Q 373.57 204.93 373.75 201.99
  C 374.21 194.47 366.95 193.19 362.04 197.01
  Q 361.50 197.43 361.50 196.74"
/>
<path stroke="#e0a58e" vector-effect="non-scaling-stroke" d="
  M 393.75 213.78
  L 392.88 215.03
  A 0.44 0.43 34.6 0 0 393.00 215.64
  L 395.46 217.23
  A 0.88 0.88 0.0 0 1 395.53 218.66
  Q 394.06 219.82 392.25 219.45
  A 0.69 0.69 0.0 0 0 391.87 220.77
  C 396.07 222.34 399.84 217.11 395.66 215.36
  A 1.14 1.13 -48.4 0 1 395.54 213.33
  C 396.85 212.58 398.60 212.30 399.55 211.22
  C 404.48 205.57 395.15 203.02 391.92 201.63
  A 2.31 2.31 0.0 0 1 391.00 198.12
  C 392.40 196.27 397.35 197.10 399.25 197.83
  Q 399.68 197.99 399.97 197.65
  Q 400.83 196.65 399.75 196.07
  C 396.54 194.37 389.31 194.23 388.70 199.13
  C 387.98 204.89 401.69 204.10 398.79 209.54
  A 1.63 1.62 4.1 0 1 397.94 210.27
  Q 393.35 212.00 388.89 209.85
  Q 388.47 209.65 388.31 210.09
  C 387.47 212.47 391.98 213.03 393.38 213.05
  Q 394.25 213.06 393.75 213.78"
/>
<path stroke="#e0a58e" vector-effect="non-scaling-stroke" d="
  M 424.46 203.05
  C 421.09 202.70 415.94 203.04 414.05 206.24
  C 412.35 209.14 414.42 212.17 417.47 212.85
  Q 421.44 213.74 424.59 210.72
  A 0.37 0.37 0.0 0 1 425.21 210.96
  L 425.32 212.41
  A 0.72 0.71 -47.3 0 0 426.75 212.35
  C 426.75 208.66 427.63 199.98 425.69 197.12
  C 423.60 194.04 417.99 194.51 415.49 197.15
  A 0.55 0.54 14.3 0 0 416.03 198.05
  C 420.46 196.88 425.10 195.45 425.27 202.30
  A 0.74 0.73 -87.6 0 1 424.46 203.05"
/>
<path stroke="#e0a58e" vector-effect="non-scaling-stroke" d="
  M 453.28 211.05
  Q 452.89 212.30 453.89 212.85
  A 0.58 0.58 0.0 0 0 454.75 212.33
  C 454.74 208.56 455.59 200.19 453.77 197.26
  C 451.75 194.04 446.10 194.55 443.50 197.14
  A 0.54 0.54 0.0 0 0 444.02 198.04
  C 448.12 196.95 453.98 195.56 453.12 202.52
  Q 453.06 203.01 452.57 203.00
  Q 448.05 202.91 445.78 203.54
  C 437.64 205.78 442.14 215.46 449.99 212.53
  C 451.11 212.11 451.69 211.27 452.71 210.62
  A 0.38 0.38 0.0 0 1 453.28 211.05"
/>
<path stroke="#e0a58e" vector-effect="non-scaling-stroke" d="
  M 382.15 126.33
  C 371.20 126.08 341.89 125.37 345.76 144.26
  C 347.72 153.86 357.95 154.90 366.23 153.23
  C 380.05 150.44 383.58 139.54 382.61 126.76
  Q 382.57 126.34 382.15 126.33"
/>
<path stroke="#e0a58e" vector-effect="non-scaling-stroke" d="
  M 67.93 202.52
  A 0.33 0.33 0.0 0 0 68.24 202.97
  L 75.59 203.03
  A 0.33 0.33 0.0 0 0 75.90 202.58
  L 72.29 192.92
  A 0.33 0.33 0.0 0 0 71.68 192.92
  L 67.93 202.52"
/>
<path stroke="#e0a58e" vector-effect="non-scaling-stroke" d="
  M 415.75 206.95
  C 412.99 212.81 426.30 212.25 424.95 205.60
  Q 424.84 205.06 424.28 205.02
  Q 420.38 204.76 416.70 206.08
  Q 416.04 206.32 415.75 206.95"
/>
<path stroke="#e0a58e" vector-effect="non-scaling-stroke" d="
  M 445.50 205.69
  C 442.67 206.45 442.57 210.04 445.52 210.80
  C 448.82 211.64 453.83 209.84 452.93 205.56
  Q 452.83 205.09 452.34 205.05
  Q 448.84 204.78 445.50 205.69"
/>
</g>
<path fill="#c04a1c" d="
  M 0.00 0.00
  L 540.00 0.00
  L 540.00 320.00
  L 0.00 320.00
  L 0.00 0.00
  Z
  M 530.00 10.58
  A 0.58 0.58 0.0 0 0 529.42 10.00
  L 10.58 10.00
  A 0.58 0.58 0.0 0 0 10.00 10.58
  L 10.00 309.42
  A 0.58 0.58 0.0 0 0 10.58 310.00
  L 529.42 310.00
  A 0.58 0.58 0.0 0 0 530.00 309.42
  L 530.00 10.58
  Z"
/>
<path fill="#ffffff" d="
  M 530.00 309.42
  A 0.58 0.58 0.0 0 1 529.42 310.00
  L 10.58 310.00
  A 0.58 0.58 0.0 0 1 10.00 309.42
  L 10.00 10.58
  A 0.58 0.58 0.0 0 1 10.58 10.00
  L 529.42 10.00
  A 0.58 0.58 0.0 0 1 530.00 10.58
  L 530.00 309.42
  Z
  M 185.1406 80.0600
  A 6.08 4.02 89.9 0 0 189.1500 73.9730
  A 6.08 4.02 89.9 0 0 185.1194 67.9000
  A 6.08 4.02 89.9 0 0 181.1100 73.9870
  A 6.08 4.02 89.9 0 0 185.1406 80.0600
  Z
  M 62.66 116.55
  A 0.55 0.55 0.0 0 1 63.21 116.00
  L 114.45 116.00
  A 0.55 0.55 0.0 0 1 115.00 116.55
  L 115.00 158.45
  A 0.55 0.55 0.0 0 0 115.55 159.00
  L 120.70 159.00
  A 0.55 0.55 0.0 0 0 121.25 158.45
  L 121.25 70.65
  A 0.55 0.55 0.0 0 0 120.72 70.10
  L 115.57 69.96
  A 0.55 0.55 0.0 0 0 115.00 70.51
  L 115.00 109.45
  A 0.55 0.55 0.0 0 1 114.45 110.00
  L 63.33 110.00
  A 0.55 0.55 0.0 0 1 62.78 109.45
  L 62.85 70.55
  A 0.55 0.55 0.0 0 0 62.30 70.00
  L 57.15 70.00
  A 0.55 0.55 0.0 0 0 56.60 70.55
  L 56.67 158.45
  A 0.55 0.55 0.0 0 0 57.22 159.00
  L 62.45 159.00
  A 0.55 0.55 0.0 0 0 63.00 158.45
  L 62.66 116.55
  Z
  M 273.23 152.77
  C 262.42 155.17 252.76 153.77 242.56 149.16
  Q 242.00 148.90 242.00 149.52
  L 242.00 155.24
  A 0.77 0.77 0.0 0 0 242.43 155.93
  C 253.47 161.17 275.99 162.68 284.95 152.96
  C 293.01 144.22 289.34 131.28 278.93 126.55
  Q 274.09 124.35 258.20 117.81
  C 253.59 115.92 249.60 111.69 249.89 106.49
  C 250.20 100.65 256.55 98.20 261.49 97.53
  Q 273.72 95.87 285.15 100.98
  Q 285.61 101.19 285.80 100.72
  L 287.73 95.97
  Q 287.95 95.41 287.40 95.17
  C 275.52 90.06 244.06 86.38 243.75 107.27
  C 243.43 128.99 280.25 123.84 283.04 140.55
  C 284.11 147.00 279.15 151.45 273.23 152.77
  Z
  M 453.84 103.70
  L 453.28 93.62
  Q 453.25 93.00 452.62 93.00
  L 448.75 93.00
  Q 448.00 93.00 448.00 93.75
  L 448.00 158.38
  Q 448.00 159.00 448.63 159.00
  L 453.70 159.00
  Q 454.28 159.00 454.28 158.42
  Q 454.17 138.86 454.33 119.33
  Q 454.40 109.27 461.97 101.69
  C 467.24 96.41 474.57 96.37 481.52 97.98
  A 0.58 0.57 11.7 0 0 482.21 97.53
  L 483.09 92.63
  Q 483.17 92.18 482.73 92.06
  Q 463.48 87.05 454.54 103.85
  A 0.37 0.37 0.0 0 1 453.84 103.70
  Z
  M 382.39 120.98
  C 368.53 121.20 338.62 120.41 339.00 141.74
  C 339.23 154.82 348.65 160.23 360.66 160.01
  Q 373.63 159.77 382.13 148.87
  A 0.44 0.44 0.0 0 1 382.92 149.08
  L 384.29 158.44
  Q 384.37 159.00 384.94 159.00
  L 388.26 159.00
  Q 388.84 159.00 388.83 158.42
  C 388.59 142.76 389.20 127.10 388.54 111.46
  C 387.52 87.16 360.70 89.55 346.03 97.67
  Q 345.56 97.93 345.76 98.43
  L 347.41 102.45
  A 0.88 0.87 64.6 0 0 348.64 102.89
  C 355.80 98.93 367.79 96.00 375.32 99.74
  C 382.58 103.35 383.53 113.03 382.90 120.50
  Q 382.86 120.97 382.39 120.98
  Z
  M 188.26 93.52
  A 0.52 0.52 0.0 0 0 187.74 93.00
  L 182.52 93.00
  A 0.52 0.52 0.0 0 0 182.00 93.52
  L 182.00 158.48
  A 0.52 0.52 0.0 0 0 182.52 159.00
  L 187.74 159.00
  A 0.52 0.52 0.0 0 0 188.26 158.48
  L 188.26 93.52
  Z
  M 342.8995 186.9900
  A 1.50 1.10 90.4 0 0 344.0100 185.4977
  A 1.50 1.10 90.4 0 0 342.9205 183.9900
  A 1.50 1.10 90.4 0 0 341.8100 185.4823
  A 1.50 1.10 90.4 0 0 342.8995 186.9900
  Z
  M 96.51 188.60
  A 0.60 0.60 0.0 0 0 95.91 188.00
  L 95.35 188.00
  A 0.60 0.60 0.0 0 0 94.75 188.60
  L 94.75 212.40
  A 0.60 0.60 0.0 0 0 95.35 213.00
  L 95.91 213.00
  A 0.60 0.60 0.0 0 0 96.51 212.40
  L 96.51 188.60
  Z
  M 67.57 205.00
  L 76.01 205.00
  Q 76.56 205.00 76.78 205.49
  Q 78.26 208.72 79.46 212.07
  Q 79.69 212.70 80.11 212.89
  Q 80.64 213.14 81.23 212.92
  Q 81.73 212.73 81.54 212.23
  L 72.79 189.56
  A 0.86 0.86 0.0 0 0 71.19 189.55
  L 62.21 212.30
  Q 61.93 213.00 62.68 213.00
  L 63.31 213.00
  Q 63.88 213.00 64.09 212.47
  L 67.00 205.38
  Q 67.16 205.00 67.57 205.00
  Z
  M 116.3436 192.0290
  A 1.54 1.17 92.1 0 0 117.5692 190.5329
  A 1.54 1.17 92.1 0 0 116.4564 188.9510
  A 1.54 1.17 92.1 0 0 115.2308 190.4471
  A 1.54 1.17 92.1 0 0 116.3436 192.0290
  Z
  M 123.5066 189.8638
  A 0.86 0.86 0.0 0 0 122.6157 189.0359
  L 122.3359 189.0461
  A 0.86 0.86 0.0 0 0 121.5080 189.9371
  L 121.5534 191.1762
  A 0.86 0.86 0.0 0 0 122.4443 192.0041
  L 122.7241 191.9939
  A 0.86 0.86 0.0 0 0 123.5520 191.1029
  L 123.5066 189.8638
  Z
  M 183.7006 189.7783
  A 0.82 0.82 0.0 0 0 182.8470 188.9934
  L 182.4674 189.0093
  A 0.82 0.82 0.0 0 0 181.6824 189.8629
  L 181.7394 191.2217
  A 0.82 0.82 0.0 0 0 182.5930 192.0066
  L 182.9726 191.9907
  A 0.82 0.82 0.0 0 0 183.7576 191.1371
  L 183.7006 189.7783
  Z
  M 344.00 189.57
  A 0.54 0.54 0.0 0 0 343.46 189.03
  L 342.80 189.03
  A 0.54 0.54 0.0 0 0 342.26 189.57
  L 342.26 212.47
  A 0.54 0.54 0.0 0 0 342.80 213.01
  L 343.46 213.01
  A 0.54 0.54 0.0 0 0 344.00 212.47
  L 344.00 189.57
  Z
  M 474.45 210.91
  A 1.76 1.76 0.0 0 1 472.76 209.15
  L 472.75 197.63
  Q 472.75 197.00 473.37 197.00
  L 476.58 197.00
  Q 477.12 197.00 477.54 196.67
  Q 478.46 195.96 477.41 195.23
  Q 477.08 195.00 476.69 195.00
  L 473.30 195.00
  A 0.62 0.62 0.0 0 1 472.68 194.37
  L 472.72 191.42
  A 0.53 0.53 0.0 0 0 471.67 191.30
  L 471.00 194.45
  A 0.67 0.66 -3.2 0 1 470.56 194.94
  L 468.42 195.65
  A 0.58 0.58 0.0 0 0 468.51 196.78
  L 470.42 197.09
  A 0.81 0.81 0.0 0 1 471.09 197.93
  C 470.70 203.61 468.95 214.87 477.26 212.76
  Q 478.33 212.49 478.35 211.55
  Q 478.35 211.07 477.87 211.05
  L 474.45 210.91
  Z
  M 124.98 211.76
  Q 124.85 212.80 125.84 213.02
  A 0.76 0.76 0.0 0 0 126.75 212.28
  L 126.75 195.75
  Q 126.75 195.00 126.00 195.00
  L 125.53 195.00
  A 0.62 0.62 0.0 0 0 124.91 195.66
  C 125.12 198.93 125.82 207.32 123.08 209.67
  C 120.74 211.66 114.47 211.70 114.49 207.50
  Q 114.52 201.55 114.49 195.57
  Q 114.49 194.96 113.89 194.99
  L 113.24 195.03
  Q 112.59 195.06 112.62 195.70
  Q 112.95 203.56 112.74 206.48
  C 112.25 213.39 119.77 214.77 124.15 211.30
  Q 125.13 210.52 124.98 211.76
  Z
  M 143.48 196.72
  Q 143.73 195.69 143.01 195.12
  A 0.78 0.78 0.0 0 0 141.75 195.73
  L 141.75 212.25
  Q 141.75 213.00 142.50 213.00
  L 143.01 213.00
  Q 143.71 213.00 143.66 212.30
  C 143.28 206.50 142.38 197.88 147.74 197.05
  C 155.06 195.91 152.72 208.16 152.77 212.32
  Q 152.78 213.00 153.46 213.00
  L 153.99 213.00
  Q 154.52 213.00 154.51 212.47
  C 154.47 209.20 153.80 202.41 155.17 199.58
  C 156.96 195.90 163.50 195.84 163.68 200.81
  Q 163.89 206.61 163.64 212.42
  Q 163.62 213.00 164.20 213.00
  L 164.80 213.00
  Q 165.50 213.00 165.50 212.30
  C 165.49 208.28 166.34 200.29 164.41 197.25
  C 162.32 193.98 157.46 194.27 154.72 197.28
  Q 154.29 197.75 153.83 197.30
  Q 149.06 192.63 144.02 197.04
  Q 143.25 197.71 143.48 196.72
  Z
  M 183.5247 195.5915
  A 0.56 0.56 0.0 0 0 182.9657 195.0306
  L 182.3257 195.0295
  A 0.56 0.56 0.0 0 0 181.7647 195.5885
  L 181.7353 212.4085
  A 0.56 0.56 0.0 0 0 182.2943 212.9694
  L 182.9343 212.9705
  A 0.56 0.56 0.0 0 0 183.4953 212.4115
  L 183.5247 195.5915
  Z
  M 200.50 196.74
  L 200.50 195.75
  Q 200.50 195.00 199.75 195.00
  L 199.37 195.00
  Q 198.75 195.00 198.75 195.63
  L 198.75 212.50
  Q 198.75 213.00 199.25 213.00
  L 199.96 213.00
  A 0.58 0.58 0.0 0 0 200.54 212.40
  C 200.37 207.18 198.50 195.06 208.09 197.25
  C 212.55 198.26 211.02 208.63 210.99 212.23
  Q 210.99 212.72 211.44 212.93
  Q 212.06 213.21 212.47 212.93
  Q 212.86 212.65 212.84 211.82
  C 212.76 208.38 213.54 200.03 211.79 197.34
  C 209.42 193.68 203.95 194.72 201.02 196.99
  Q 200.50 197.40 200.50 196.74
  Z
  M 233.27 210.52
  Q 230.80 203.19 228.02 195.89
  Q 227.81 195.35 227.45 195.13
  Q 226.96 194.84 226.52 194.99
  Q 225.98 195.19 226.18 195.72
  L 232.42 212.49
  Q 232.57 212.90 232.47 213.32
  C 231.74 216.25 230.26 219.36 226.65 218.99
  Q 226.19 218.94 226.06 219.39
  Q 225.67 220.76 227.02 220.98
  C 230.43 221.54 231.84 219.48 233.02 216.47
  Q 237.04 206.23 240.85 195.92
  Q 241.08 195.31 240.45 195.11
  L 240.09 194.99
  Q 239.47 194.80 239.25 195.41
  L 233.75 210.52
  A 0.26 0.25 -44.6 0 1 233.27 210.52
  Z
  M 266.00 211.50
  L 266.00 212.37
  A 0.63 0.63 0.0 0 0 266.63 213.00
  L 267.00 213.00
  Q 267.50 213.00 267.50 212.50
  L 267.50 195.73
  Q 267.50 195.00 266.77 195.00
  Q 266.60 195.00 266.42 195.00
  Q 265.76 195.00 265.76 195.65
  C 265.76 198.96 266.61 206.51 264.54 209.04
  C 262.33 211.74 255.47 211.97 255.49 207.50
  Q 255.52 201.55 255.49 195.57
  Q 255.49 194.96 254.89 194.99
  L 254.23 195.03
  Q 253.67 195.06 253.68 195.62
  C 253.78 199.52 252.81 208.21 255.05 211.04
  C 257.27 213.84 262.57 213.68 265.29 211.19
  Q 266.00 210.55 266.00 211.50
  Z
  M 285.48 196.72
  Q 285.73 195.69 285.01 195.12
  A 0.78 0.78 0.0 0 0 283.75 195.73
  L 283.75 212.25
  Q 283.75 213.00 284.50 213.00
  L 284.96 213.00
  Q 285.54 213.00 285.52 212.42
  C 285.40 207.94 283.65 193.61 293.26 197.64
  Q 293.73 197.84 293.98 198.27
  C 295.53 200.93 294.75 208.98 294.77 212.31
  Q 294.77 213.00 295.46 213.00
  L 295.99 213.00
  Q 296.52 213.00 296.51 212.47
  C 296.47 209.14 295.83 202.61 297.14 199.70
  C 298.89 195.81 305.65 195.83 305.76 201.00
  Q 305.89 206.68 305.67 212.35
  Q 305.64 212.94 306.23 212.97
  L 306.89 213.01
  Q 307.47 213.03 307.48 212.45
  C 307.54 208.14 309.01 197.10 304.18 195.35
  Q 299.70 193.73 296.63 197.40
  Q 296.28 197.82 295.89 197.43
  Q 291.14 192.55 286.01 197.04
  Q 285.25 197.70 285.48 196.72
  Z
  M 361.50 196.74
  L 361.50 195.75
  Q 361.50 195.00 360.75 195.00
  L 360.38 195.00
  Q 359.75 195.00 359.75 195.63
  L 359.75 212.37
  Q 359.75 213.00 360.38 213.00
  L 361.00 213.00
  Q 361.67 213.00 361.62 212.34
  C 361.24 207.43 359.73 197.11 367.26 197.02
  Q 371.74 196.96 371.83 201.23
  Q 371.96 206.78 372.05 212.34
  Q 372.06 213.00 372.72 213.00
  L 373.24 213.00
  Q 373.87 213.00 373.84 212.37
  Q 373.57 204.93 373.75 201.99
  C 374.21 194.47 366.95 193.19 362.04 197.01
  Q 361.50 197.43 361.50 196.74
  Z
  M 393.75 213.78
  L 392.88 215.03
  A 0.44 0.43 34.6 0 0 393.00 215.64
  L 395.46 217.23
  A 0.88 0.88 0.0 0 1 395.53 218.66
  Q 394.06 219.82 392.25 219.45
  A 0.69 0.69 0.0 0 0 391.87 220.77
  C 396.07 222.34 399.84 217.11 395.66 215.36
  A 1.14 1.13 -48.4 0 1 395.54 213.33
  C 396.85 212.58 398.60 212.30 399.55 211.22
  C 404.48 205.57 395.15 203.02 391.92 201.63
  A 2.31 2.31 0.0 0 1 391.00 198.12
  C 392.40 196.27 397.35 197.10 399.25 197.83
  Q 399.68 197.99 399.97 197.65
  Q 400.83 196.65 399.75 196.07
  C 396.54 194.37 389.31 194.23 388.70 199.13
  C 387.98 204.89 401.69 204.10 398.79 209.54
  A 1.63 1.62 4.1 0 1 397.94 210.27
  Q 393.35 212.00 388.89 209.85
  Q 388.47 209.65 388.31 210.09
  C 387.47 212.47 391.98 213.03 393.38 213.05
  Q 394.25 213.06 393.75 213.78
  Z
  M 424.46 203.05
  C 421.09 202.70 415.94 203.04 414.05 206.24
  C 412.35 209.14 414.42 212.17 417.47 212.85
  Q 421.44 213.74 424.59 210.72
  A 0.37 0.37 0.0 0 1 425.21 210.96
  L 425.32 212.41
  A 0.72 0.71 -47.3 0 0 426.75 212.35
  C 426.75 208.66 427.63 199.98 425.69 197.12
  C 423.60 194.04 417.99 194.51 415.49 197.15
  A 0.55 0.54 14.3 0 0 416.03 198.05
  C 420.46 196.88 425.10 195.45 425.27 202.30
  A 0.74 0.73 -87.6 0 1 424.46 203.05
  Z
  M 453.28 211.05
  Q 452.89 212.30 453.89 212.85
  A 0.58 0.58 0.0 0 0 454.75 212.33
  C 454.74 208.56 455.59 200.19 453.77 197.26
  C 451.75 194.04 446.10 194.55 443.50 197.14
  A 0.54 0.54 0.0 0 0 444.02 198.04
  C 448.12 196.95 453.98 195.56 453.12 202.52
  Q 453.06 203.01 452.57 203.00
  Q 448.05 202.91 445.78 203.54
  C 437.64 205.78 442.14 215.46 449.99 212.53
  C 451.11 212.11 451.69 211.27 452.71 210.62
  A 0.38 0.38 0.0 0 1 453.28 211.05
  Z"
/>
<ellipse fill="#c04a1c" cx="0.00" cy="0.00" transform="translate(185.13,73.98) rotate(89.9)" rx="6.08" ry="4.02"/>
<path fill="#c04a1c" d="
  M 62.66 116.55
  L 63.00 158.45
  A 0.55 0.55 0.0 0 1 62.45 159.00
  L 57.22 159.00
  A 0.55 0.55 0.0 0 1 56.67 158.45
  L 56.60 70.55
  A 0.55 0.55 0.0 0 1 57.15 70.00
  L 62.30 70.00
  A 0.55 0.55 0.0 0 1 62.85 70.55
  L 62.78 109.45
  A 0.55 0.55 0.0 0 0 63.33 110.00
  L 114.45 110.00
  A 0.55 0.55 0.0 0 0 115.00 109.45
  L 115.00 70.51
  A 0.55 0.55 0.0 0 1 115.57 69.96
  L 120.72 70.10
  A 0.55 0.55 0.0 0 1 121.25 70.65
  L 121.25 158.45
  A 0.55 0.55 0.0 0 1 120.70 159.00
  L 115.55 159.00
  A 0.55 0.55 0.0 0 1 115.00 158.45
  L 115.00 116.55
  A 0.55 0.55 0.0 0 0 114.45 116.00
  L 63.21 116.00
  A 0.55 0.55 0.0 0 0 62.66 116.55
  Z"
/>
<path fill="#c04a1c" d="
  M 242.56 149.16
  C 252.76 153.77 262.42 155.17 273.23 152.77
  C 279.15 151.45 284.11 147.00 283.04 140.55
  C 280.25 123.84 243.43 128.99 243.75 107.27
  C 244.06 86.38 275.52 90.06 287.40 95.17
  Q 287.95 95.41 287.73 95.97
  L 285.80 100.72
  Q 285.61 101.19 285.15 100.98
  Q 273.72 95.87 261.49 97.53
  C 256.55 98.20 250.20 100.65 249.89 106.49
  C 249.60 111.69 253.59 115.92 258.20 117.81
  Q 274.09 124.35 278.93 126.55
  C 289.34 131.28 293.01 144.22 284.95 152.96
  C 275.99 162.68 253.47 161.17 242.43 155.93
  A 0.77 0.77 0.0 0 1 242.00 155.24
  L 242.00 149.52
  Q 242.00 148.90 242.56 149.16
  Z"
/>
<path fill="#c04a1c" d="
  M 453.84 103.70
  A 0.37 0.37 0.0 0 0 454.54 103.85
  Q 463.48 87.05 482.73 92.06
  Q 483.17 92.18 483.09 92.63
  L 482.21 97.53
  A 0.58 0.57 11.7 0 1 481.52 97.98
  C 474.57 96.37 467.24 96.41 461.97 101.69
  Q 454.40 109.27 454.33 119.33
  Q 454.17 138.86 454.28 158.42
  Q 454.28 159.00 453.70 159.00
  L 448.63 159.00
  Q 448.00 159.00 448.00 158.38
  L 448.00 93.75
  Q 448.00 93.00 448.75 93.00
  L 452.62 93.00
  Q 453.25 93.00 453.28 93.62
  L 453.84 103.70
  Z"
/>
<path fill="#c04a1c" d="
  M 382.90 120.50
  C 383.53 113.03 382.58 103.35 375.32 99.74
  C 367.79 96.00 355.80 98.93 348.64 102.89
  A 0.88 0.87 64.6 0 1 347.41 102.45
  L 345.76 98.43
  Q 345.56 97.93 346.03 97.67
  C 360.70 89.55 387.52 87.16 388.54 111.46
  C 389.20 127.10 388.59 142.76 388.83 158.42
  Q 388.84 159.00 388.26 159.00
  L 384.94 159.00
  Q 384.37 159.00 384.29 158.44
  L 382.92 149.08
  A 0.44 0.44 0.0 0 0 382.13 148.87
  Q 373.63 159.77 360.66 160.01
  C 348.65 160.23 339.23 154.82 339.00 141.74
  C 338.62 120.41 368.53 121.20 382.39 120.98
  Q 382.86 120.97 382.90 120.50
  Z
  M 382.15 126.33
  C 371.20 126.08 341.89 125.37 345.76 144.26
  C 347.72 153.86 357.95 154.90 366.23 153.23
  C 380.05 150.44 383.58 139.54 382.61 126.76
  Q 382.57 126.34 382.15 126.33
  Z"
/>
<rect fill="#c04a1c" x="182.00" y="93.00" width="6.26" height="66.00" rx="0.52"/>
<path fill="#ffffff" d="
  M 345.76 144.26
  C 341.89 125.37 371.20 126.08 382.15 126.33
  Q 382.57 126.34 382.61 126.76
  C 383.58 139.54 380.05 150.44 366.23 153.23
  C 357.95 154.90 347.72 153.86 345.76 144.26
  Z"
/>
<ellipse fill="#c04a1c" cx="0.00" cy="0.00" transform="translate(342.91,185.49) rotate(90.4)" rx="1.50" ry="1.10"/>
<rect fill="#c04a1c" x="94.75" y="188.00" width="1.76" height="25.00" rx="0.60"/>
<path fill="#c04a1c" d="
  M 67.00 205.38
  L 64.09 212.47
  Q 63.88 213.00 63.31 213.00
  L 62.68 213.00
  Q 61.93 213.00 62.21 212.30
  L 71.19 189.55
  A 0.86 0.86 0.0 0 1 72.79 189.56
  L 81.54 212.23
  Q 81.73 212.73 81.23 212.92
  Q 80.64 213.14 80.11 212.89
  Q 79.69 212.70 79.46 212.07
  Q 78.26 208.72 76.78 205.49
  Q 76.56 205.00 76.01 205.00
  L 67.57 205.00
  Q 67.16 205.00 67.00 205.38
  Z
  M 67.93 202.52
  A 0.33 0.33 0.0 0 0 68.24 202.97
  L 75.59 203.03
  A 0.33 0.33 0.0 0 0 75.90 202.58
  L 72.29 192.92
  A 0.33 0.33 0.0 0 0 71.68 192.92
  L 67.93 202.52
  Z"
/>
<ellipse fill="#c04a1c" cx="0.00" cy="0.00" transform="translate(116.40,190.49) rotate(92.1)" rx="1.54" ry="1.17"/>
<rect fill="#c04a1c" x="-1.00" y="-1.48" transform="translate(122.53,190.52) rotate(-2.1)" width="2.00" height="2.96" rx="0.86"/>
<rect fill="#c04a1c" x="-1.01" y="-1.50" transform="translate(182.72,190.50) rotate(-2.4)" width="2.02" height="3.00" rx="0.82"/>
<rect fill="#c04a1c" x="342.26" y="189.03" width="1.74" height="23.98" rx="0.54"/>
<path fill="#c04a1c" d="
  M 474.45 210.91
  L 477.87 211.05
  Q 478.35 211.07 478.35 211.55
  Q 478.33 212.49 477.26 212.76
  C 468.95 214.87 470.70 203.61 471.09 197.93
  A 0.81 0.81 0.0 0 0 470.42 197.09
  L 468.51 196.78
  A 0.58 0.58 0.0 0 1 468.42 195.65
  L 470.56 194.94
  A 0.67 0.66 -3.2 0 0 471.00 194.45
  L 471.67 191.30
  A 0.53 0.53 0.0 0 1 472.72 191.42
  L 472.68 194.37
  A 0.62 0.62 0.0 0 0 473.30 195.00
  L 476.69 195.00
  Q 477.08 195.00 477.41 195.23
  Q 478.46 195.96 477.54 196.67
  Q 477.12 197.00 476.58 197.00
  L 473.37 197.00
  Q 472.75 197.00 472.75 197.63
  L 472.76 209.15
  A 1.76 1.76 0.0 0 0 474.45 210.91
  Z"
/>
<path fill="#ffffff" d="
  M 67.93 202.52
  L 71.68 192.92
  A 0.33 0.33 0.0 0 1 72.29 192.92
  L 75.90 202.58
  A 0.33 0.33 0.0 0 1 75.59 203.03
  L 68.24 202.97
  A 0.33 0.33 0.0 0 1 67.93 202.52
  Z"
/>
<path fill="#c04a1c" d="
  M 124.15 211.30
  C 119.77 214.77 112.25 213.39 112.74 206.48
  Q 112.95 203.56 112.62 195.70
  Q 112.59 195.06 113.24 195.03
  L 113.89 194.99
  Q 114.49 194.96 114.49 195.57
  Q 114.52 201.55 114.49 207.50
  C 114.47 211.70 120.74 211.66 123.08 209.67
  C 125.82 207.32 125.12 198.93 124.91 195.66
  A 0.62 0.62 0.0 0 1 125.53 195.00
  L 126.00 195.00
  Q 126.75 195.00 126.75 195.75
  L 126.75 212.28
  A 0.76 0.76 0.0 0 1 125.84 213.02
  Q 124.85 212.80 124.98 211.76
  Q 125.13 210.52 124.15 211.30
  Z"
/>
<path fill="#c04a1c" d="
  M 144.02 197.04
  Q 149.06 192.63 153.83 197.30
  Q 154.29 197.75 154.72 197.28
  C 157.46 194.27 162.32 193.98 164.41 197.25
  C 166.34 200.29 165.49 208.28 165.50 212.30
  Q 165.50 213.00 164.80 213.00
  L 164.20 213.00
  Q 163.62 213.00 163.64 212.42
  Q 163.89 206.61 163.68 200.81
  C 163.50 195.84 156.96 195.90 155.17 199.58
  C 153.80 202.41 154.47 209.20 154.51 212.47
  Q 154.52 213.00 153.99 213.00
  L 153.46 213.00
  Q 152.78 213.00 152.77 212.32
  C 152.72 208.16 155.06 195.91 147.74 197.05
  C 142.38 197.88 143.28 206.50 143.66 212.30
  Q 143.71 213.00 143.01 213.00
  L 142.50 213.00
  Q 141.75 213.00 141.75 212.25
  L 141.75 195.73
  A 0.78 0.78 0.0 0 1 143.01 195.12
  Q 143.73 195.69 143.48 196.72
  Q 143.25 197.71 144.02 197.04
  Z"
/>
<rect fill="#c04a1c" x="-0.88" y="-8.97" transform="translate(182.63,204.00) rotate(0.1)" width="1.76" height="17.94" rx="0.56"/>
<path fill="#c04a1c" d="
  M 201.02 196.99
  C 203.95 194.72 209.42 193.68 211.79 197.34
  C 213.54 200.03 212.76 208.38 212.84 211.82
  Q 212.86 212.65 212.47 212.93
  Q 212.06 213.21 211.44 212.93
  Q 210.99 212.72 210.99 212.23
  C 211.02 208.63 212.55 198.26 208.09 197.25
  C 198.50 195.06 200.37 207.18 200.54 212.40
  A 0.58 0.58 0.0 0 1 199.96 213.00
  L 199.25 213.00
  Q 198.75 213.00 198.75 212.50
  L 198.75 195.63
  Q 198.75 195.00 199.37 195.00
  L 199.75 195.00
  Q 200.50 195.00 200.50 195.75
  L 200.50 196.74
  Q 200.50 197.40 201.02 196.99
  Z"
/>
<path fill="#c04a1c" d="
  M 233.27 210.52
  A 0.26 0.25 -44.6 0 0 233.75 210.52
  L 239.25 195.41
  Q 239.47 194.80 240.09 194.99
  L 240.45 195.11
  Q 241.08 195.31 240.85 195.92
  Q 237.04 206.23 233.02 216.47
  C 231.84 219.48 230.43 221.54 227.02 220.98
  Q 225.67 220.76 226.06 219.39
  Q 226.19 218.94 226.65 218.99
  C 230.26 219.36 231.74 216.25 232.47 213.32
  Q 232.57 212.90 232.42 212.49
  L 226.18 195.72
  Q 225.98 195.19 226.52 194.99
  Q 226.96 194.84 227.45 195.13
  Q 227.81 195.35 228.02 195.89
  Q 230.80 203.19 233.27 210.52
  Z"
/>
<path fill="#c04a1c" d="
  M 265.29 211.19
  C 262.57 213.68 257.27 213.84 255.05 211.04
  C 252.81 208.21 253.78 199.52 253.68 195.62
  Q 253.67 195.06 254.23 195.03
  L 254.89 194.99
  Q 255.49 194.96 255.49 195.57
  Q 255.52 201.55 255.49 207.50
  C 255.47 211.97 262.33 211.74 264.54 209.04
  C 266.61 206.51 265.76 198.96 265.76 195.65
  Q 265.76 195.00 266.42 195.00
  Q 266.60 195.00 266.77 195.00
  Q 267.50 195.00 267.50 195.73
  L 267.50 212.50
  Q 267.50 213.00 267.00 213.00
  L 266.63 213.00
  A 0.63 0.63 0.0 0 1 266.00 212.37
  L 266.00 211.50
  Q 266.00 210.55 265.29 211.19
  Z"
/>
<path fill="#c04a1c" d="
  M 286.01 197.04
  Q 291.14 192.55 295.89 197.43
  Q 296.28 197.82 296.63 197.40
  Q 299.70 193.73 304.18 195.35
  C 309.01 197.10 307.54 208.14 307.48 212.45
  Q 307.47 213.03 306.89 213.01
  L 306.23 212.97
  Q 305.64 212.94 305.67 212.35
  Q 305.89 206.68 305.76 201.00
  C 305.65 195.83 298.89 195.81 297.14 199.70
  C 295.83 202.61 296.47 209.14 296.51 212.47
  Q 296.52 213.00 295.99 213.00
  L 295.46 213.00
  Q 294.77 213.00 294.77 212.31
  C 294.75 208.98 295.53 200.93 293.98 198.27
  Q 293.73 197.84 293.26 197.64
  C 283.65 193.61 285.40 207.94 285.52 212.42
  Q 285.54 213.00 284.96 213.00
  L 284.50 213.00
  Q 283.75 213.00 283.75 212.25
  L 283.75 195.73
  A 0.78 0.78 0.0 0 1 285.01 195.12
  Q 285.73 195.69 285.48 196.72
  Q 285.25 197.70 286.01 197.04
  Z"
/>
<path fill="#c04a1c" d="
  M 362.04 197.01
  C 366.95 193.19 374.21 194.47 373.75 201.99
  Q 373.57 204.93 373.84 212.37
  Q 373.87 213.00 373.24 213.00
  L 372.72 213.00
  Q 372.06 213.00 372.05 212.34
  Q 371.96 206.78 371.83 201.23
  Q 371.74 196.96 367.26 197.02
  C 359.73 197.11 361.24 207.43 361.62 212.34
  Q 361.67 213.00 361.00 213.00
  L 360.38 213.00
  Q 359.75 213.00 359.75 212.37
  L 359.75 195.63
  Q 359.75 195.00 360.38 195.00
  L 360.75 195.00
  Q 361.50 195.00 361.50 195.75
  L 361.50 196.74
  Q 361.50 197.43 362.04 197.01
  Z"
/>
<path fill="#c04a1c" d="
  M 393.38 213.05
  C 391.98 213.03 387.47 212.47 388.31 210.09
  Q 388.47 209.65 388.89 209.85
  Q 393.35 212.00 397.94 210.27
  A 1.63 1.62 4.1 0 0 398.79 209.54
  C 401.69 204.10 387.98 204.89 388.70 199.13
  C 389.31 194.23 396.54 194.37 399.75 196.07
  Q 400.83 196.65 399.97 197.65
  Q 399.68 197.99 399.25 197.83
  C 397.35 197.10 392.40 196.27 391.00 198.12
  A 2.31 2.31 0.0 0 0 391.92 201.63
  C 395.15 203.02 404.48 205.57 399.55 211.22
  C 398.60 212.30 396.85 212.58 395.54 213.33
  A 1.14 1.13 -48.4 0 0 395.66 215.36
  C 399.84 217.11 396.07 222.34 391.87 220.77
  A 0.69 0.69 0.0 0 1 392.25 219.45
  Q 394.06 219.82 395.53 218.66
  A 0.88 0.88 0.0 0 0 395.46 217.23
  L 393.00 215.64
  A 0.44 0.43 34.6 0 1 392.88 215.03
  L 393.75 213.78
  Q 394.25 213.06 393.38 213.05
  Z"
/>
<path fill="#c04a1c" d="
  M 424.46 203.05
  A 0.74 0.73 -87.6 0 0 425.27 202.30
  C 425.10 195.45 420.46 196.88 416.03 198.05
  A 0.55 0.54 14.3 0 1 415.49 197.15
  C 417.99 194.51 423.60 194.04 425.69 197.12
  C 427.63 199.98 426.75 208.66 426.75 212.35
  A 0.72 0.71 -47.3 0 1 425.32 212.41
  L 425.21 210.96
  A 0.37 0.37 0.0 0 0 424.59 210.72
  Q 421.44 213.74 417.47 212.85
  C 414.42 212.17 412.35 209.14 414.05 206.24
  C 415.94 203.04 421.09 202.70 424.46 203.05
  Z
  M 415.75 206.95
  C 412.99 212.81 426.30 212.25 424.95 205.60
  Q 424.84 205.06 424.28 205.02
  Q 420.38 204.76 416.70 206.08
  Q 416.04 206.32 415.75 206.95
  Z"
/>
<path fill="#c04a1c" d="
  M 452.71 210.62
  C 451.69 211.27 451.11 212.11 449.99 212.53
  C 442.14 215.46 437.64 205.78 445.78 203.54
  Q 448.05 202.91 452.57 203.00
  Q 453.06 203.01 453.12 202.52
  C 453.98 195.56 448.12 196.95 444.02 198.04
  A 0.54 0.54 0.0 0 1 443.50 197.14
  C 446.10 194.55 451.75 194.04 453.77 197.26
  C 455.59 200.19 454.74 208.56 454.75 212.33
  A 0.58 0.58 0.0 0 1 453.89 212.85
  Q 452.89 212.30 453.28 211.05
  A 0.38 0.38 0.0 0 0 452.71 210.62
  Z
  M 445.50 205.69
  C 442.67 206.45 442.57 210.04 445.52 210.80
  C 448.82 211.64 453.83 209.84 452.93 205.56
  Q 452.83 205.09 452.34 205.05
  Q 448.84 204.78 445.50 205.69
  Z"
/>
<path fill="#ffffff" d="
  M 415.75 206.95
  Q 416.04 206.32 416.70 206.08
  Q 420.38 204.76 424.28 205.02
  Q 424.84 205.06 424.95 205.60
  C 426.30 212.25 412.99 212.81 415.75 206.95
  Z"
/>
<path fill="#ffffff" d="
  M 445.52 210.80
  C 442.57 210.04 442.67 206.45 445.50 205.69
  Q 448.84 204.78 452.34 205.05
  Q 452.83 205.09 452.93 205.56
  C 453.83 209.84 448.82 211.64 445.52 210.80
  Z"
/>
</svg>
