<?xml version="1.0" encoding="UTF-8" standalone="no"?>
<!DOCTYPE svg PUBLIC "-//W3C//DTD SVG 1.1//EN" "http://www.w3.org/Graphics/SVG/1.1/DTD/svg11.dtd">
<svg xmlns="http://www.w3.org/2000/svg" version="1.1" viewBox="0.00 0.00 1280.00 390.00">
<path fill="#000000" d="
  M 434.52 0.00
  L 440.75 0.00
  L 440.76 390.00
  L 434.51 390.00
  L 434.52 0.00
  Z"
/>
<path fill="#fcd615" d="
  M 1062.31 0.00
  L 1083.80 0.00
  Q 1086.99 0.38 1090.22 0.30
  C 1112.89 -0.21 1134.65 12.40 1141.80 34.50
  Q 1143.48 39.68 1144.06 48.66
  Q 1145.79 75.14 1143.79 98.24
  C 1142.66 111.19 1135.70 121.12 1126.29 129.78
  Q 1124.34 131.58 1123.11 133.89
  Q 1122.84 134.39 1123.29 134.73
  Q 1144.33 150.97 1144.60 177.86
  C 1144.62 180.64 1145.19 183.11 1141.32 183.23
  Q 1135.80 183.40 1130.44 183.00
  A 1.04 1.03 1.5 0 1 1129.48 181.99
  C 1129.14 163.01 1123.42 150.68 1105.46 143.13
  Q 1102.85 142.03 1099.72 141.98
  Q 1080.55 141.71 1061.58 141.46
  A 0.53 0.53 0.0 0 0 1061.05 141.98
  L 1060.58 182.34
  Q 1060.57 183.00 1059.91 183.00
  L 1046.44 183.00
  Q 1045.84 183.00 1045.83 182.39
  Q 1045.35 97.19 1045.54 12.00
  Q 1045.55 6.59 1045.83 2.22
  Q 1045.93 0.70 1047.45 0.64
  L 1062.31 0.00
  Z
  M 1099.82 125.04
  C 1112.74 124.48 1122.68 113.99 1127.53 102.94
  Q 1128.59 100.51 1128.58 97.53
  Q 1128.44 73.54 1128.49 49.56
  C 1128.51 35.25 1120.45 24.34 1107.75 18.31
  C 1105.10 17.05 1101.09 16.51 1098.14 16.42
  Q 1079.72 15.82 1061.47 15.55
  A 0.46 0.46 0.0 0 0 1061.00 16.01
  L 1061.00 125.23
  A 0.51 0.50 90.0 0 0 1061.50 125.74
  Q 1080.86 125.86 1099.82 125.04
  Z"
/>
<path fill="#fcd615" d="
  M 603.70 56.03
  C 604.45 98.17 604.05 140.37 603.66 182.54
  Q 603.66 183.03 603.17 183.04
  L 589.31 183.57
  Q 588.81 183.59 588.77 183.09
  C 588.39 177.70 588.19 171.55 586.86 166.74
  C 579.63 140.58 545.46 132.74 527.85 153.99
  C 521.10 162.13 520.79 171.93 520.03 182.31
  Q 519.98 183.00 519.29 183.00
  L 505.75 183.00
  A 0.95 0.94 89.7 0 1 504.81 182.06
  Q 504.35 121.06 504.52 59.71
  C 504.54 52.52 504.73 43.55 506.70 36.71
  C 513.30 13.71 538.22 -3.57 562.51 1.42
  C 582.58 5.55 597.06 19.12 601.96 38.63
  Q 603.50 44.76 603.70 56.03
  Z
  M 541.58 18.53
  C 532.87 21.88 523.07 30.84 521.78 40.77
  Q 520.56 50.14 520.48 61.75
  Q 520.22 99.75 520.93 137.69
  A 0.49 0.49 0.0 0 0 521.73 138.06
  C 541.59 122.04 568.44 121.74 587.69 138.99
  Q 588.57 139.78 588.56 138.60
  C 588.47 109.34 588.69 80.24 587.76 51.35
  C 587.50 43.24 587.56 39.14 583.81 33.23
  C 574.42 18.43 557.80 12.31 541.58 18.53
  Z"
/>
<path fill="#fcd615" d="
  M 723.63 36.78
  L 724.18 1.26
  Q 724.19 0.59 724.85 0.52
  Q 731.83 -0.23 738.80 0.74
  A 0.79 0.78 4.3 0 1 739.47 1.51
  L 738.96 182.52
  A 0.48 0.48 0.0 0 1 738.48 183.00
  L 724.78 183.00
  A 0.57 0.56 0.0 0 1 724.21 182.44
  Q 723.74 138.44 723.14 94.50
  C 722.98 82.56 723.03 71.75 718.56 61.60
  Q 704.25 29.09 670.26 18.77
  Q 663.37 16.68 656.25 16.74
  Q 655.58 16.74 655.58 17.41
  L 655.19 182.40
  Q 655.19 183.00 654.60 183.00
  L 640.91 183.00
  A 0.66 0.66 0.0 0 1 640.25 182.34
  L 640.05 1.86
  A 1.69 1.68 89.8 0 1 641.72 0.17
  C 664.54 0.01 689.13 5.46 706.29 20.47
  Q 714.92 28.03 722.82 37.08
  A 0.46 0.46 0.0 0 0 723.63 36.78
  Z"
/>
<path fill="#fcd615" d="
  M 858.79 170.26
  A 0.35 0.35 0.0 0 0 858.21 170.01
  C 829.69 193.94 788.36 182.64 777.20 146.89
  C 776.28 143.93 776.17 141.01 776.02 137.93
  Q 773.76 91.97 775.76 46.00
  C 776.41 30.89 785.58 16.82 797.70 8.87
  Q 818.96 -5.07 841.46 3.65
  C 863.37 12.14 875.03 32.17 874.32 55.90
  Q 874.28 57.13 873.05 57.19
  L 859.81 57.79
  A 0.80 0.79 -2.6 0 1 858.98 57.04
  C 858.68 50.70 858.20 43.37 855.99 37.69
  C 844.99 9.46 805.78 8.88 793.36 36.62
  C 790.76 42.45 791.06 49.10 791.05 55.50
  Q 790.98 97.79 791.30 140.08
  Q 791.32 142.88 792.41 145.17
  C 797.60 156.07 806.60 164.66 818.52 166.76
  C 837.16 170.06 858.03 156.63 858.19 136.32
  Q 858.35 116.05 858.21 95.78
  Q 858.21 95.26 857.70 95.26
  Q 842.45 95.22 827.25 95.25
  Q 822.67 95.26 817.28 94.16
  Q 816.80 94.06 816.82 93.58
  L 817.37 80.16
  Q 817.41 79.16 818.41 79.14
  Q 842.33 78.61 865.25 78.80
  Q 870.34 78.84 873.99 79.52
  Q 874.60 79.63 874.59 80.25
  L 874.13 182.19
  A 0.82 0.81 -0.0 0 1 873.31 183.00
  L 859.93 183.00
  Q 859.35 183.00 859.33 182.43
  L 858.79 170.26
  Z"
/>
<path fill="#fcd615" d="
  M 911.52 41.27
  C 913.90 18.15 939.62 -1.08 962.18 0.50
  C 983.85 2.02 1001.18 16.64 1007.03 36.84
  C 1009.25 44.48 1009.38 53.89 1009.43 62.06
  Q 1009.74 117.39 1009.14 182.42
  Q 1009.13 183.00 1008.55 183.00
  L 995.04 183.00
  A 0.74 0.73 -1.2 0 1 994.30 182.30
  C 994.07 176.44 993.47 170.06 991.66 164.73
  C 987.33 151.92 975.91 142.03 961.76 142.25
  C 958.44 142.30 954.88 141.95 951.78 142.78
  C 930.82 148.38 926.53 163.00 925.46 182.35
  A 0.69 0.68 1.3 0 1 924.77 183.00
  L 911.26 183.00
  A 0.61 0.61 0.0 0 1 910.65 182.39
  C 910.45 139.19 910.13 95.95 910.68 52.68
  C 910.73 48.81 911.13 45.06 911.52 41.27
  Z
  M 930.91 31.92
  C 926.71 37.92 926.79 42.72 926.68 50.76
  Q 926.10 94.83 925.73 138.94
  Q 925.72 139.58 926.20 139.16
  C 946.41 121.58 973.40 121.66 993.58 139.23
  Q 994.01 139.60 994.01 139.03
  Q 993.86 93.13 993.33 47.26
  Q 993.24 39.20 988.94 32.57
  C 974.84 10.85 945.88 10.51 930.91 31.92
  Z"
/>
<path fill="#fcd615" d="
  M 1181.15 46.79
  C 1181.74 24.00 1200.40 5.70 1221.80 1.31
  C 1247.05 -3.86 1273.44 15.02 1278.56 40.02
  C 1279.64 45.32 1279.44 51.34 1279.49 57.06
  Q 1279.96 119.79 1279.46 182.52
  Q 1279.45 183.00 1278.97 183.00
  L 1265.52 183.00
  A 0.79 0.79 0.0 0 1 1264.73 182.28
  C 1264.24 176.85 1264.00 170.55 1262.48 165.68
  Q 1257.16 148.58 1239.91 143.25
  C 1235.37 141.85 1226.78 141.55 1222.02 142.85
  Q 1202.67 148.11 1197.60 167.09
  C 1196.43 171.49 1196.27 177.35 1195.67 182.41
  Q 1195.60 183.00 1195.01 183.00
  L 1181.49 183.00
  A 0.62 0.62 0.0 0 1 1180.87 182.38
  C 1180.69 137.29 1179.98 91.93 1181.15 46.79
  Z
  M 1235.61 16.64
  C 1218.64 13.73 1204.39 23.18 1197.90 38.96
  Q 1196.78 41.71 1196.74 45.25
  Q 1196.29 91.49 1196.54 137.78
  Q 1196.54 138.44 1197.11 138.11
  Q 1200.21 136.34 1204.60 133.36
  C 1218.49 123.90 1241.27 123.86 1255.39 133.13
  Q 1259.41 135.78 1263.41 138.14
  A 0.38 0.38 0.0 0 0 1263.99 137.81
  C 1263.83 106.53 1263.94 75.25 1263.68 43.96
  Q 1263.66 41.18 1262.56 38.92
  C 1256.92 27.26 1248.85 18.92 1235.61 16.64
  Z"
/>
<path fill="#000000" d="
  M 0.00 198.42
  L 0.00 191.71
  C 2.67 91.37 78.63 9.84 178.91 0.91
  C 185.04 0.36 191.81 0.58 198.36 0.64
  C 304.79 1.65 392.52 93.58 389.02 200.25
  C 385.32 313.08 286.69 401.09 173.26 388.18
  C 75.05 377.01 2.64 296.51 0.00 198.42
  Z
  M 219.04 193.01
  Q 222.52 194.18 225.59 195.89
  Q 239.43 203.62 251.97 213.31
  Q 253.18 214.26 254.00 215.11
  A 1.19 1.18 49.1 0 1 253.88 216.85
  C 246.78 222.49 239.69 228.23 233.60 234.60
  Q 199.05 270.81 186.33 320.01
  A 0.51 0.51 0.0 0 0 186.81 320.65
  L 213.91 321.41
  A 1.01 1.00 10.2 0 0 214.89 320.74
  Q 226.19 288.46 245.45 264.45
  Q 254.38 253.32 270.15 238.73
  C 272.16 236.87 273.97 237.08 275.34 239.42
  Q 280.95 249.03 284.72 258.36
  C 289.56 270.38 289.60 282.25 289.77 294.97
  Q 289.80 297.21 290.84 299.15
  Q 296.34 309.45 301.92 319.14
  A 2.52 2.51 -14.1 0 0 304.03 320.40
  L 334.71 321.28
  A 1.02 1.00 -67.0 0 0 335.46 320.97
  C 357.04 298.04 371.80 266.62 379.08 236.41
  C 383.65 217.42 382.77 196.71 382.38 177.31
  Q 382.21 169.21 381.46 165.01
  C 367.19 85.18 307.82 23.42 227.13 8.80
  C 180.26 0.30 130.11 10.90 90.65 36.98
  C 69.62 50.88 50.50 70.09 36.69 91.18
  C -9.86 162.26 -3.56 255.66 52.33 319.42
  C 53.73 321.01 54.27 320.75 56.25 320.75
  Q 107.87 320.74 159.34 320.76
  A 0.46 0.45 64.2 0 0 159.62 319.95
  Q 154.66 315.94 149.42 312.01
  Q 145.32 308.93 146.67 302.93
  C 156.45 259.51 180.30 218.70 216.83 193.32
  A 2.49 2.48 -52.8 0 1 219.04 193.01
  Z
  M 61.07 329.47
  C 93.82 360.27 136.08 381.09 180.74 383.43
  C 195.17 384.18 210.22 384.17 224.35 381.74
  Q 285.09 371.30 329.51 327.75
  A 0.32 0.31 22.4 0 0 329.28 327.21
  Q 211.15 327.23 92.81 327.48
  Q 76.72 327.51 61.70 327.82
  Q 59.36 327.86 61.07 329.47
  Z"
/>
<path fill="#000000" d="
  M 247.91 79.24
  A 0.52 0.52 0.0 0 1 247.77 80.24
  C 241.37 80.84 234.49 81.36 228.54 83.23
  C 196.97 93.17 175.42 124.14 168.54 155.23
  Q 166.93 162.48 165.65 169.49
  A 0.74 0.74 0.0 0 1 164.19 169.48
  Q 163.19 163.56 163.63 157.53
  Q 167.08 110.04 206.04 85.53
  Q 219.89 76.82 237.62 77.75
  C 241.35 77.95 244.26 77.83 247.91 79.24
  Z"
/>
<path fill="#000000" d="
  M 220.71 102.47
  C 241.58 89.52 267.79 95.50 281.06 115.94
  C 296.52 139.75 296.68 169.65 287.24 196.00
  A 1.13 1.13 0.0 0 0 288.25 197.51
  Q 294.10 197.81 299.97 197.83
  C 318.12 197.89 338.22 207.88 342.96 226.82
  C 344.81 234.26 341.93 241.63 336.26 247.02
  Q 321.77 260.81 300.76 258.39
  Q 300.20 258.33 300.00 257.80
  C 282.65 212.40 241.88 177.38 192.41 172.82
  Q 186.69 172.29 181.78 171.93
  Q 180.13 171.80 180.34 170.16
  C 183.94 143.13 197.24 117.05 220.71 102.47
  Z"
/>
<path fill="#000000" d="
  M 134.57 191.55
  C 150.08 183.26 165.88 181.80 182.74 182.65
  A 0.66 0.66 0.0 0 1 183.20 183.74
  C 178.93 188.59 172.92 194.20 169.75 197.56
  Q 143.71 225.14 129.80 260.43
  C 127.08 267.31 125.12 275.00 123.09 282.44
  A 0.71 0.71 0.0 0 1 121.81 282.64
  Q 108.91 262.80 107.07 239.23
  A 1.71 1.71 0.0 0 0 105.14 237.67
  C 95.39 238.97 83.76 240.48 74.10 237.37
  C 50.24 229.70 57.15 204.69 68.31 190.11
  C 72.48 184.66 79.21 177.83 85.10 172.48
  A 0.52 0.51 -44.6 0 0 85.11 171.72
  Q 72.46 159.87 55.78 154.68
  C 53.57 153.99 51.46 154.75 49.00 155.85
  C 40.34 159.74 31.24 150.18 37.62 142.11
  Q 41.96 136.64 47.99 138.94
  C 50.95 140.07 52.86 143.18 54.50 145.84
  A 1.22 1.22 0.0 0 0 55.24 146.38
  C 69.76 149.99 81.25 156.95 92.08 167.16
  C 93.91 168.89 95.86 169.80 98.06 168.48
  A 1.56 1.55 63.7 0 0 98.71 166.56
  Q 90.17 145.55 71.48 132.54
  C 68.72 130.62 67.05 130.17 63.53 131.15
  C 56.52 133.11 48.40 126.88 51.66 119.19
  C 55.18 110.88 67.09 111.63 69.50 120.38
  A 1.70 1.56 17.2 0 0 69.93 121.12
  C 73.38 124.56 78.09 127.16 81.10 129.69
  C 94.03 140.55 100.96 152.22 108.07 167.33
  A 1.72 1.62 -83.0 0 0 108.37 167.74
  L 110.07 169.44
  A 0.67 0.65 77.0 0 0 110.30 169.59
  Q 126.52 175.58 133.78 191.29
  Q 134.04 191.84 134.57 191.55
  Z
  M 90.33 204.12
  Q 82.31 202.20 76.32 207.56
  A 1.16 1.13 -25.5 0 0 75.95 208.56
  C 77.18 218.32 93.58 215.71 91.57 205.42
  A 1.68 1.66 -89.0 0 0 90.33 204.12
  Z"
/>
<path fill="#000000" d="
  M 316.62 177.81
  C 326.22 181.03 339.13 188.68 344.00 198.02
  A 0.62 0.62 0.0 0 1 343.07 198.79
  C 331.89 189.88 321.06 186.90 307.59 183.23
  A 1.88 1.88 0.0 0 1 306.24 181.04
  C 310.12 161.92 307.64 135.60 299.25 117.82
  A 0.73 0.73 0.0 0 1 299.57 116.86
  Q 300.37 116.44 301.15 117.37
  C 316.68 135.91 315.75 155.04 316.04 177.02
  A 0.85 0.85 0.0 0 0 316.62 177.81
  Z"
/>
<path fill="#000000" d="
  M 733.00 390.00
  L 718.78 390.00
  C 718.25 384.02 718.08 377.01 716.31 371.78
  C 713.14 362.38 704.53 352.49 694.22 350.59
  C 680.77 348.12 665.71 349.21 651.98 349.27
  Q 651.46 349.27 651.46 349.80
  L 651.41 390.00
  L 646.46 390.00
  L 637.91 389.44
  Q 637.26 389.40 637.26 388.74
  L 636.63 212.08
  Q 636.62 211.59 637.11 211.58
  Q 664.73 211.24 684.73 211.78
  Q 713.52 212.54 727.60 237.45
  C 729.10 240.11 732.69 246.58 732.71 250.83
  Q 732.83 275.42 733.05 300.00
  C 733.21 316.81 725.48 330.29 712.11 340.32
  A 1.01 1.01 0.0 0 0 712.09 341.92
  C 727.75 354.33 734.85 369.87 733.00 390.00
  Z
  M 718.14 258.95
  C 717.22 242.62 704.55 227.16 687.75 226.74
  Q 670.22 226.29 651.94 226.56
  Q 651.49 226.57 651.49 227.01
  L 651.50 332.52
  A 0.73 0.73 0.0 0 0 652.23 333.25
  Q 668.60 333.29 684.26 333.22
  C 700.97 333.13 709.54 325.54 716.73 311.18
  Q 717.81 309.03 717.88 306.57
  Q 718.81 270.71 718.14 258.95
  Z"
/>
<path fill="#000000" d="
  M 783.47 390.00
  L 768.78 390.00
  L 768.78 211.94
  A 0.44 0.44 0.0 0 1 769.22 211.50
  L 782.98 211.50
  A 0.52 0.51 90.0 0 1 783.49 212.02
  L 783.47 390.00
  Z"
/>
<path fill="#000000" d="
  M 965.74 390.00
  L 951.03 390.00
  L 951.04 211.99
  Q 951.04 211.50 951.53 211.50
  L 965.02 211.50
  A 0.72 0.72 0.0 0 1 965.74 212.22
  L 965.74 390.00
  Z"
/>
<path fill="#000000" d="
  M 1029.93 390.00
  L 1001.27 390.00
  L 1001.25 212.01
  A 0.51 0.51 0.0 0 1 1001.76 211.50
  L 1015.25 211.50
  Q 1016.00 211.50 1016.00 212.25
  L 1016.00 373.72
  A 0.47 0.47 0.0 0 0 1016.47 374.19
  L 1096.51 374.77
  Q 1097.25 374.77 1097.25 375.51
  L 1097.25 388.94
  Q 1097.25 389.42 1096.77 389.42
  L 1029.93 390.00
  Z"
/>
<path fill="#000000" d="
  M 1147.99 390.00
  L 1133.27 390.00
  L 1133.26 212.22
  A 0.72 0.71 -90.0 0 1 1133.97 211.50
  L 1147.27 211.50
  A 0.72 0.72 0.0 0 1 1147.99 212.22
  L 1147.99 390.00
  Z"
/>
<path fill="#000000" d="
  M 1280.00 211.73
  L 1280.00 277.56
  Q 1279.73 288.33 1279.44 299.10
  C 1278.96 317.47 1272.80 328.77 1258.87 340.54
  A 0.84 0.83 -43.5 0 0 1258.83 341.79
  C 1273.12 355.20 1278.12 363.64 1280.00 384.08
  L 1280.00 386.99
  Q 1279.38 389.67 1277.00 389.75
  Q 1271.84 389.92 1265.21 389.45
  Q 1264.70 389.41 1264.67 388.90
  Q 1264.26 380.58 1263.44 375.27
  C 1261.38 361.85 1248.46 350.53 1235.00 349.67
  Q 1221.57 348.81 1198.71 349.39
  Q 1198.35 349.40 1198.34 349.76
  L 1197.82 388.70
  Q 1197.81 389.47 1197.04 389.51
  L 1188.18 390.00
  L 1183.52 390.00
  L 1183.50 212.01
  A 0.51 0.51 0.0 0 1 1184.01 211.50
  L 1197.50 211.50
  Q 1198.25 211.50 1198.25 212.25
  L 1198.25 332.98
  Q 1198.25 333.46 1198.73 333.45
  Q 1217.38 333.31 1236.25 332.75
  C 1247.50 332.42 1256.62 324.19 1261.32 314.56
  C 1264.63 307.76 1264.23 297.20 1264.23 289.69
  Q 1264.25 250.92 1264.26 212.14
  Q 1264.26 211.59 1264.81 211.60
  L 1280.00 211.73
  Z"
/>
<path fill="#000000" d="
  M 601.12 390.00
  L 595.70 390.00
  L 587.40 389.45
  Q 586.87 389.42 586.82 388.88
  C 586.29 382.95 585.82 376.04 583.97 370.85
  C 572.82 339.57 528.55 343.55 521.06 374.77
  C 520.13 378.67 520.76 383.63 519.84 387.99
  A 2.30 2.29 6.5 0 1 517.54 389.81
  L 505.88 389.56
  Q 505.27 389.55 505.26 388.94
  Q 505.21 320.81 505.29 252.72
  Q 505.29 249.00 506.38 246.00
  C 522.81 200.70 583.70 199.89 599.33 246.31
  C 600.88 250.92 600.66 257.64 600.73 262.67
  Q 601.63 326.33 601.12 390.00
  Z
  M 536.94 336.68
  C 553.57 331.01 571.45 334.77 585.05 345.65
  A 0.66 0.66 0.0 0 0 586.12 345.14
  Q 586.71 302.23 585.35 259.01
  C 585.13 251.96 584.36 244.49 580.05 240.19
  C 577.14 237.29 574.22 233.89 570.88 231.81
  Q 553.34 220.92 534.92 232.14
  C 526.58 237.23 521.52 244.99 521.26 254.80
  Q 520.10 299.19 520.25 344.67
  Q 520.25 346.12 521.44 345.28
  C 526.18 341.95 531.54 338.52 536.94 336.68
  Z"
/>
<path fill="#000000" d="
  M 847.76 215.97
  C 877.91 202.69 911.00 222.25 914.97 254.51
  Q 915.74 260.73 915.45 266.80
  A 0.51 0.50 -88.3 0 1 914.94 267.29
  L 901.47 267.23
  Q 900.98 267.23 900.93 266.73
  Q 900.65 263.83 900.53 261.01
  C 899.84 244.94 890.50 230.82 874.25 227.25
  C 859.01 223.89 843.29 232.38 836.64 246.13
  C 834.48 250.62 834.41 256.54 834.33 261.31
  C 834.02 281.96 833.43 314.95 834.28 341.50
  C 835.04 365.05 857.89 380.73 879.97 371.55
  C 895.84 364.95 900.41 350.94 900.82 334.61
  Q 900.85 333.27 902.19 333.32
  L 914.29 333.83
  A 0.58 0.58 0.0 0 1 914.84 334.34
  C 919.03 367.65 890.09 395.04 856.82 388.13
  C 838.46 384.32 828.26 371.87 820.66 355.28
  Q 819.60 352.97 819.57 350.35
  Q 819.07 304.94 819.33 259.50
  C 819.37 254.13 819.52 249.10 821.46 244.07
  Q 829.14 224.18 847.76 215.97
  Z"
/>
<path fill="#000000" d="
  M 305.55 275.25
  Q 305.13 275.13 304.85 274.71
  A 0.44 0.43 -19.8 0 1 305.17 274.04
  C 330.69 271.31 350.22 262.91 358.25 236.92
  A 0.76 0.75 -53.8 0 1 359.59 236.71
  Q 359.80 237.02 359.83 237.53
  Q 361.13 260.38 342.56 271.36
  Q 328.31 279.78 312.00 277.25
  C 309.81 276.91 307.85 275.92 305.55 275.25
  Z"
/>
</svg>
